<svg xmlns="http://www.w3.org/2000/svg" viewBox="0 0 115.29 90.14"><defs><style>.cls-1,.cls-28{opacity:0.3;}.cls-2{fill:#616161;}.cls-3{fill:#4f4f4f;}.cls-4{fill:#474747;}.cls-5{fill:#454545;}.cls-6{fill:#ff8400;}.cls-28,.cls-7{fill:#0d0d0d;}.cls-8{fill:#232323;}.cls-9{fill:#939598;}.cls-10{fill:#bcbec0;}.cls-11{fill:#808285;}.cls-12{fill:#16a89f;}.cls-13{fill:#917441;}.cls-14{fill:#383838;}.cls-15{fill:#787878;}.cls-16{fill:#fff;}.cls-17{fill:#e31b25;}.cls-18{fill:#4d4d4d;}.cls-19{fill:#404040;}.cls-20{fill:#242424;}.cls-21{fill:#2e2e2e;}.cls-22{fill:#121212;}.cls-23{fill:#1a1a1a;}.cls-24{fill:#ff9d26;}.cls-25{fill:#ba6000;}.cls-26{fill:#2a4e68;}.cls-27{fill:#b3b3b3;}.cls-29{fill:#828282;}.cls-30{fill:#0a8074;}.cls-31{fill:#24d2c1;}.cls-32{opacity:0.2;}</style></defs><g id="Capa_2" data-name="Capa 2"><g id="Layer_1" data-name="Layer 1"><polygon class="cls-1" points="99.9 46.87 73.65 31.79 89.04 22.71 115.28 37.8 99.9 46.87"/><polygon class="cls-2" points="77.94 34.2 80.1 35.44 81.94 28.51 79.78 27.26 77.94 34.2"/><polygon class="cls-3" points="80.1 35.44 81.61 34.57 84.96 27.62 81.94 28.51 80.1 35.44"/><polygon class="cls-4" points="111.98 37.63 109.82 36.39 106.46 33.31 108.62 34.55 111.98 37.63"/><polygon class="cls-3" points="113.49 36.76 111.98 37.63 108.62 34.55 111.65 31.95 113.49 36.76"/><polygon class="cls-2" points="95.77 44.5 97.93 45.74 99.77 38.81 97.61 37.56 95.77 44.5"/><polygon class="cls-3" points="97.93 45.74 99.45 44.87 102.8 37.91 99.77 38.81 97.93 45.74"/><path class="cls-5" d="M99,24.67c2.59-3.12,5.7-4.31,7.7-3.18h0l5.39,3.11c-2-1.06-5.07.14-7.63,3.22-3.17,3.81-4.35,9.06-2.63,11.73a3.23,3.23,0,0,0,1,1h0l-5.41-3.12h0a3.27,3.27,0,0,1-1.09-1.07C94.63,33.73,95.81,28.48,99,24.67Z"/><path class="cls-5" d="M79.91,13.65c2.59-3.11,5.7-4.3,7.7-3.18h0L93,13.59c-2-1.06-5.07.13-7.63,3.22C82.2,20.62,81,25.87,82.74,28.54a3.3,3.3,0,0,0,1,1h0l-5.4-3.13h0a3.37,3.37,0,0,1-1.09-1.07C75.56,22.72,76.74,17.47,79.91,13.65Z"/><path class="cls-6" d="M85.32,16.77c2.59-3.11,5.71-4.3,7.7-3.18l8.21,4.75,5.4,3.12c-2-1.06-5.08.14-7.64,3.22-3.17,3.81-4.35,9.06-2.63,11.73a3.36,3.36,0,0,0,1,1.05h0L83.77,29.58h0a3.27,3.27,0,0,1-1.09-1.07C81,25.84,82.15,20.59,85.32,16.77Z"/><path class="cls-7" d="M104.44,27.82c-3.17,3.81-4.35,9.06-2.63,11.73s5.68,1.75,8.85-2.07,4.35-9.07,2.63-11.74S107.61,24,104.44,27.82Z"/><path class="cls-5" d="M103.5,38.44c1.34,1.91,4.31,1.17,6.7-1.69s3.33-6.95,2-9a2.48,2.48,0,0,0-.91-.86.61.61,0,0,1,.07.1c1.32,2,.42,6.07-2,9C107.39,38.36,105,39.27,103.5,38.44Z"/><path class="cls-8" d="M103.42,38.34l.08.1c1.52.83,3.89-.08,5.86-2.45,2.43-2.92,3.33-7,2-9a.61.61,0,0,0-.07-.1c-1.53-.83-3.89.08-5.86,2.45C103,32.27,102.11,36.29,103.42,38.34Z"/><polygon class="cls-9" points="79.87 11.88 84.59 14.6 84.59 9.93 79.87 7.21 79.87 11.88"/><polygon class="cls-10" points="85.38 4.03 90.09 6.75 84.59 9.93 79.87 7.21 85.38 4.03"/><polygon class="cls-11" points="84.59 14.6 90.09 11.42 90.09 6.75 84.59 9.93 84.59 14.6"/><path class="cls-12" d="M87.21,10.39c.26-.33.59-.45.8-.33h0l2.44,1.41c-.2-.11-.52,0-.79.33A1.17,1.17,0,0,0,89.39,13a.36.36,0,0,0,.1.11h0l-2.44-1.41h0a.63.63,0,0,1-.12-.11A1.18,1.18,0,0,1,87.21,10.39Z"/><path class="cls-13" d="M89.66,11.8A1.17,1.17,0,0,0,89.39,13c.17.28.59.18.91-.22a1.16,1.16,0,0,0,.28-1.21C90.4,11.31,90,11.41,89.66,11.8Z"/><path class="cls-14" d="M97.84,11.68v3.38h0a2.28,2.28,0,0,1-1.34,1.88,7.16,7.16,0,0,1-6.5,0,2.29,2.29,0,0,1-1.35-1.88V11.68Z"/><path class="cls-15" d="M90,13.58a7.22,7.22,0,0,0,6.5,0c1.8-1,1.8-2.72,0-3.76a7.22,7.22,0,0,0-6.5,0C88.2,10.86,88.2,12.54,90,13.58Z"/><path class="cls-16" d="M90.59,13.23a5.85,5.85,0,0,0,5.31,0c1.47-.84,1.47-2.22,0-3.06a5.85,5.85,0,0,0-5.31,0C89.13,11,89.13,12.39,90.59,13.23Z"/><path class="cls-17" d="M93.25,11.7l-2.66-1.53a1.88,1.88,0,0,0-1.1,1.52Z"/><path class="cls-18" d="M90.54,13.26c-1.49-.86-1.49-2.26,0-3.12a6,6,0,0,1,5.41,0c1.5.86,1.5,2.26,0,3.12A6,6,0,0,1,90.54,13.26Zm.1,0a5.76,5.76,0,0,0,5.21,0c1.44-.83,1.44-2.18,0-3a5.78,5.78,0,0,0-5.22,0C89.2,11,89.2,12.38,90.64,13.21Z"/><path class="cls-19" d="M93,11.78l-3.33.36L93,11.67a.22.22,0,0,1,.19-.11c.14,0,.27,0,.3.11s0,.15-.19.17A.36.36,0,0,1,93,11.78Z"/><path class="cls-20" d="M93.28,11.77c.06,0,.1,0,.09-.08a.14.14,0,0,0-.15-.06c-.07,0-.11,0-.09.09S93.21,11.78,93.28,11.77Z"/><polygon class="cls-21" points="90.99 10.45 91.11 10.39 90.76 10.19 90.65 10.25 90.99 10.45"/><rect class="cls-21" x="89.64" y="11.68" width="0.52" height="0.03"/><rect class="cls-21" x="93.22" y="13.49" width="0.06" height="0.28"/><rect class="cls-21" x="96.37" y="11.68" width="0.49" height="0.03"/><rect class="cls-21" x="93.23" y="9.61" width="0.06" height="0.28"/><polygon class="cls-21" points="92.01 10.04 92.07 10.03 91.88 9.77 91.82 9.78 92.01 10.04"/><polygon class="cls-21" points="94.45 10.04 94.51 10.05 94.71 9.78 94.65 9.77 94.45 10.04"/><polygon class="cls-21" points="96.18 11.04 96.2 11.07 96.64 10.98 96.62 10.95 96.18 11.04"/><polygon class="cls-21" points="96.17 12.34 96.15 12.37 96.6 12.47 96.62 12.44 96.17 12.34"/><polygon class="cls-21" points="94.41 13.37 94.36 13.38 94.53 13.64 94.58 13.63 94.41 13.37"/><polygon class="cls-21" points="92.09 13.37 92.04 13.36 91.86 13.61 91.91 13.63 92.09 13.37"/><polygon class="cls-21" points="90.37 12.37 90.35 12.34 89.89 12.45 89.91 12.48 90.37 12.37"/><polygon class="cls-21" points="90.33 11.07 90.35 11.04 89.89 10.94 89.87 10.97 90.33 11.07"/><polygon class="cls-21" points="91.11 12.99 90.99 12.92 90.62 13.14 90.74 13.21 91.11 12.99"/><polygon class="cls-21" points="95.48 12.93 95.35 13 95.73 13.22 95.86 13.15 95.48 12.93"/><polygon class="cls-21" points="95.41 10.4 95.53 10.46 95.87 10.26 95.76 10.2 95.41 10.4"/><path class="cls-10" d="M76.61,20.75a13.1,13.1,0,0,1,.33-1.49l-1.49-.86a1.85,1.85,0,0,1-.92-1.6V8.09a.33.33,0,0,1,.18-.31.36.36,0,0,1,.36,0l16.62,9.6a7.73,7.73,0,0,0,7.73,0L103,15.31a3.25,3.25,0,0,0,0-5.63L86.67.25a1.78,1.78,0,0,0-1.81,0A1.79,1.79,0,0,0,84,1.81v3L85.41,4V1.81a.33.33,0,0,1,.18-.31.35.35,0,0,1,.35,0l16.35,9.44a1.79,1.79,0,0,1,0,3.11L98.7,16.13a6.34,6.34,0,0,1-6.28,0L75.79,6.53a1.81,1.81,0,0,0-2.71,1.56V16.8a3.3,3.3,0,0,0,1.65,2.86Z"/><path class="cls-22" d="M81.19,11.07a1.13,1.13,0,0,1,.52-.89.36.36,0,0,1,.37,0h0l10.34,6a6.34,6.34,0,0,0,6.28,0l3.59-2.08a1.79,1.79,0,0,0,0-3.11L92.19,5.11h0A.37.37,0,0,1,92,4.78a1.13,1.13,0,0,1,.51-.89.39.39,0,0,1,.37,0L103,9.68a3.25,3.25,0,0,1,0,5.63l-3.59,2.07a7.73,7.73,0,0,1-7.73,0l-10.35-6h0A.37.37,0,0,1,81.19,11.07Z"/><path class="cls-23" d="M104.87,47.15l.58-1L76.27,29.27a3.45,3.45,0,0,1,0-6l.26-.18a12.48,12.48,0,0,1,0-1.33l-.81.5a4.61,4.61,0,0,0,0,8Z"/><path class="cls-6" d="M105,46.34c.16-.2.36-.28.49-.21h0l2.38,1.38c-.13-.07-.33,0-.49.21a.73.73,0,0,0-.17.75.13.13,0,0,0,.07.06h0l-2.38-1.38h0s0,0-.07-.06A.71.71,0,0,1,105,46.34Z"/><path class="cls-24" d="M107.33,47.72a.73.73,0,0,0-.17.75c.11.17.36.11.57-.14a.7.7,0,0,0,.16-.75C107.79,47.41,107.53,47.47,107.33,47.72Z"/><path class="cls-25" d="M107.37,47.79a.57.57,0,0,0-.13.57c.09.14.28.09.44-.1a.58.58,0,0,0,.13-.58C107.72,47.55,107.53,47.6,107.37,47.79Z"/><path class="cls-16" d="M35.45,23.09a1.69,1.69,0,0,0-1.9-.5L27.27,25l-.51-.31,6.52-4c1.37-.68,1.89-1.28,1.42-1.69a2.52,2.52,0,0,0-2.13-.33l-8,4.9-.89-.45,7.57-5.7c1-.72-.41-1.3-.41-1.3a2.72,2.72,0,0,0-2.28.22l-7.49,5.6a6.39,6.39,0,0,1-1.15-.3l4.31-5.22c.51-.42.33-1-.4-1.3,0,0-1.57-.49-2.28.23l-7.39,7.94s-.61.37-1.45.85L12.43,22c-.08-1.16-.81-1.66-2.12-1.57-2.28.12-1.37,2.24-1.37,2.24s-.15,5.13.21,5.58A.78.78,0,0,1,9,29.39l-1.8,1.53,8,3.21,1.93-1.61a3.59,3.59,0,0,1,1.53-.66A18.43,18.43,0,0,0,21.9,31c.54-.24,5.39-3.68,5.39-3.68L34.65,24C35.27,23.74,35.63,23.33,35.45,23.09Z"/><path class="cls-26" d="M10.33,26.39h0A1.8,1.8,0,0,1,11,25.7l1.7-1a4.1,4.1,0,0,1,2.15-.48H15c1.37,0,2.49.65,2.66,1.43L17.9,27c.12.55-.26,1.1-1,1.46l-.81.39a4.48,4.48,0,0,1-3.82-.1L11,28C10.29,27.6,10,27,10.33,26.39Z"/><path class="cls-26" d="M24,26.62a27.34,27.34,0,0,0-7-3.72c-.58-.21-.79-.65-.46-1h0a1.87,1.87,0,0,1,1.79-.21A30,30,0,0,1,26,25.73c.46.35.36.83-.21,1.05h0A2,2,0,0,1,24,26.62Z"/><path class="cls-27" d="M33.28,20.63l-6.52,4,.51.31L29,24.34l4.33-2.68c1-.52,1.57-1,1.59-1.35h0v-1h0C34.88,19.63,34.33,20.1,33.28,20.63Z"/><path class="cls-27" d="M19.92,21.58l.67.21,3.64-4.4a.81.81,0,0,0,.29-.6h0v-.94a.67.67,0,0,1-.29.51Z"/><path class="cls-27" d="M8.92,23.62c0-.58,0-1,0-1a2.82,2.82,0,0,1-.18-.84v1.05h0A2.52,2.52,0,0,0,8.92,23.62Z"/><path class="cls-27" d="M9.15,28.23a10.46,10.46,0,0,1-.24-2.9,17.76,17.76,0,0,0,.22,3.89A.74.74,0,0,0,9.15,28.23Z"/><path class="cls-27" d="M31.25,17.36l-7.57,5.7.81.41,6.76-5.08a.71.71,0,0,0,.37-.51h0v-1A.71.71,0,0,1,31.25,17.36Z"/><path class="cls-27" d="M35.49,23.21c0,.24-.31.57-.84.83l-7.36,3.31S22.44,30.79,21.9,31a18.43,18.43,0,0,1-3.24.83,3.59,3.59,0,0,0-1.53.66L15.2,34.13,8,31.24l-.82.7,8,3.22,1.93-1.61a3.47,3.47,0,0,1,1.53-.66,19.33,19.33,0,0,0,3.24-.84c.54-.23,5.39-3.68,5.39-3.68l7.36-3.3c.51-.25.84-.57.84-.81h0V23.21Z"/><polygon class="cls-25" points="15.04 35.57 6.61 32.2 6.61 31.17 15.04 34.55 15.04 35.57"/><polygon class="cls-24" points="15.04 34.55 6.61 31.17 7 30.85 15.43 34.22 15.04 34.55"/><path class="cls-26" d="M22.1,17.9l-2-.62,1.67-1.64a1.61,1.61,0,0,1,1.53-.27h0c.55.17.76.57.47.89Z"/><path class="cls-26" d="M11.79,23.2l-2.28,0V21.49c0-.36.5-.65,1.12-.66h0c.63,0,1.14.29,1.15.65Z"/><path class="cls-26" d="M28.56,18.82,26.73,18l2-1.41a1.71,1.71,0,0,1,1.58-.13h0c.5.21.6.62.23.91Z"/><path class="cls-26" d="M31.56,21.23l-1.48-.8,2.26-1.27a1.56,1.56,0,0,1,1.41,0h0c.4.21.43.58.05.81Z"/><path class="cls-26" d="M32.19,24.64l-1.13-.8L33.34,23a1.38,1.38,0,0,1,1.24.07h0c.31.22.25.54-.12.72Z"/><polygon class="cls-6" points="15.43 34.22 15.04 34.55 15.04 35.57 15.43 35.25 15.43 34.22"/><path class="cls-16" d="M32,46.07c.07-.44-.2-.94-1.26-1l-7.49.38-.19-.41,9.05-1.76c1.77-.23,2.72-.61,2.65-1.1,0,0-.23-.85-1.6-.88L22.11,43.45l-.42-.64,11.36-2.94c1.51-.35.71-1.25.71-1.25a2.25,2.25,0,0,0-2.19-.43l-11.2,2.87c-.13,0-.76-.59-.76-.59l8.09-3.4c.8-.23,1.11-.8.71-1.26a2.31,2.31,0,0,0-2.19-.42l-13,5s-.84.16-2,.35l1.49-1.93c.87-1,.64-1.68-.58-2a2.76,2.76,0,0,0-3,1.6s-4.35,4.48-4.41,5-.47.77-1.11,1l-2.84.85,4.42,5,3-.89A4.9,4.9,0,0,1,10,49.18a23.8,23.8,0,0,0,3.54.15c.67-.06,7.78-1.76,7.78-1.76l9.19-.89C31.34,46.58,32,46.33,32,46.07Z"/><path class="cls-27" d="M12.7,38.77,11.21,40.7l.85-.15.64-.83a1.71,1.71,0,0,0,.51-1.08h0v-.87A2,2,0,0,1,12.7,38.77Z"/><path class="cls-27" d="M27.7,37.07l-8.09,3.4s.63.6.76.59l.26-.07,7.07-3c.57-.17.89-.5.88-.85h0v-1h0C28.59,36.56,28.27,36.9,27.7,37.07Z"/><path class="cls-27" d="M33.05,39.87,21.69,42.81l.42.64,3-.58,7.94-2c.76-.17.93-.49.92-.76h0v-.93h0C34,39.4,33.79,39.7,33.05,39.87Z"/><path class="cls-27" d="M32.14,43.31l-9,1.76.19.41,3.46-.17,5.4-1.05c1.77-.23,2.72-.61,2.65-1.1v-.91h0C34.8,42.72,33.86,43.09,32.14,43.31Z"/><path class="cls-27" d="M32,46.07c0,.26-.69.51-1.49.61l-9.19.89s-7.11,1.7-7.78,1.76A23.8,23.8,0,0,1,10,49.18a4.9,4.9,0,0,0-1.88.16l-3,.89L1.37,45.94l-.66.2,4.42,5,3-.89A4.9,4.9,0,0,1,10,50.13a23.8,23.8,0,0,0,3.54.15c.67-.06,7.78-1.76,7.78-1.76l9.19-.89c.8-.1,1.45-.35,1.49-.61a.49.49,0,0,0,0-.12h0v0h0v-.93h0A.76.76,0,0,1,32,46.07Z"/><polygon class="cls-25" points="4.64 51.5 0 46.21 0 45.26 4.64 50.55 4.64 51.5"/><polygon class="cls-24" points="4.64 50.55 0 45.26 0.61 45.08 5.25 50.37 4.64 50.55"/><polygon class="cls-6" points="5.25 50.37 4.64 50.55 4.64 51.5 5.25 51.32 5.25 50.37"/><polygon class="cls-1" points="48.1 77.75 95.51 50.74 59.37 29.87 11.95 56.88 48.1 77.75"/><polygon class="cls-7" points="45.11 72.9 87.21 48.59 87.21 26.39 45.11 50.7 45.11 72.9"/><polygon class="cls-5" points="47.91 67.49 47.91 68.58 84.4 47.51 84.4 37.84 83.38 38.43 83.38 47.01 47.91 67.49"/><polygon class="cls-8" points="47.91 58.91 47.91 67.49 83.38 47.01 83.38 38.43 47.91 58.91"/><polygon points="45.11 54.46 87.21 30.15 87.21 26.39 45.11 50.7 45.11 54.46"/><polygon class="cls-8" points="45.11 72.9 45.11 50.7 20.7 36.61 20.7 58.8 45.11 72.9"/><polygon class="cls-7" points="45.11 54.46 45.11 50.7 20.7 36.61 20.7 40.38 45.11 54.46"/><polygon class="cls-7" points="44.54 52.3 89.34 26.43 89.34 19.28 44.54 45.15 44.54 52.3"/><polygon class="cls-8" points="44.54 52.3 44.54 45.15 18.57 30.15 18.57 37.31 44.54 52.3"/><polygon class="cls-5" points="44.54 45.15 89.34 19.28 63.37 4.28 18.57 30.15 44.54 45.15"/><polygon class="cls-8" points="31.34 23.6 32.53 24.28 53.45 12.21 64.68 18.7 65.86 18.01 53.45 10.84 31.34 23.6"/><polygon class="cls-8" points="36.63 24.78 45.38 29.84 46.58 29.15 36.63 23.41 36.63 24.78"/><polygon class="cls-7" points="32.53 24.28 43.77 30.77 45.38 29.84 36.63 24.78 36.63 23.41 53.12 13.89 63.06 19.63 64.68 18.7 53.45 12.21 32.53 24.28"/><polygon class="cls-6" points="60.89 6.95 63.06 8.14 63.06 19.63 60.89 18.43 60.89 6.95"/><polygon class="cls-25" points="65.86 3.66 65.86 18.01 63.06 19.63 63.06 8.14 46.58 17.66 46.58 29.15 43.77 30.76 43.77 16.42 65.86 3.66"/><polygon class="cls-6" points="41.6 29.56 43.77 30.77 43.77 16.42 41.6 15.23 41.6 29.56"/><polygon class="cls-24" points="41.6 15.23 43.77 16.42 65.86 3.66 63.7 2.46 41.6 15.23"/><polygon class="cls-6" points="61.34 42.6 61.34 35.45 55.27 31.95 55.27 30.92 62.72 35.2 62.72 43.39 61.34 42.6"/><polygon class="cls-25" points="62.72 43.39 62.72 35.2 74.56 28.37 74.56 36.56 62.72 43.39"/><polygon class="cls-24" points="62.72 35.2 74.56 28.37 67.11 24.09 55.27 30.92 62.72 35.2"/><path class="cls-28" d="M48.47,87.91l-22-13.18a1.51,1.51,0,0,1,0-2.57l.05,0A5.51,5.51,0,0,1,32,72L53.9,84.61a2,2,0,0,1-.06,3.45l-.06,0A5.48,5.48,0,0,1,48.47,87.91Z"/><path class="cls-29" d="M29.74,72.14l-.59-.34.41-.24a6.34,6.34,0,0,1,1,0l-.18.52Z"/><polygon class="cls-12" points="52.44 82.88 50.16 82.52 50.16 84.52 52.44 84.87 52.44 82.88"/><path class="cls-30" d="M26,72v2h0c0,1,1.35,1.56,1.35,1.56a6.16,6.16,0,0,0,3.1.46,3.72,3.72,0,0,1,2.48.63L47,84.73v1.13h0a1.84,1.84,0,0,0,1.08,1.5,5.82,5.82,0,0,0,5.24,0,1.86,1.86,0,0,0,1.09-1.5h0v-2l-1,1.45-.13.08a5.84,5.84,0,0,1-4.94.15L47,83.84a1.46,1.46,0,0,1,.35-.9L32.91,74.63A3.72,3.72,0,0,0,30.43,74a6.28,6.28,0,0,1-3.1-.46,3.12,3.12,0,0,1-.51-.3ZM47,83.88h0Z"/><polygon class="cls-30" points="30.81 70.77 29.15 69.81 29.15 71.8 30.81 72.76 30.81 70.77"/><polygon class="cls-30" points="49.55 84.87 50.16 84.52 50.16 82.52 48.49 83.49 49.1 84.81 49.55 84.87"/><polygon class="cls-30" points="52.44 84.55 53.05 84.19 52.44 82.88 52.44 84.55"/><path class="cls-31" d="M32.91,74.63l14.42,8.31c-.64.8-.4,1.77.73,2.43a5.82,5.82,0,0,0,5.24,0c1.45-.84,1.45-2.19,0-3a5.82,5.82,0,0,0-4.09-.45c-1.35-.79-14.44-8.34-14.44-8.34-1.5-.86-1.1-1.43-1.1-1.43.41-.91-.79-1.79-.79-1.79h0a4.92,4.92,0,0,0-3.32-.76l-.42.24,1.66,1-.46,1.3-2.26.27-1.66-1-.41.24c-.33,1.22,1.31,1.92,1.31,1.92a6.28,6.28,0,0,0,3.1.46A3.72,3.72,0,0,1,32.91,74.63Zm17.25,7.89,2.28.36.61,1.31-1.67,1-2.28-.35-.61-1.32Z"/><path class="cls-30" d="M33.56,74.51l.12-.09h0a1.12,1.12,0,0,1,1,0l12.57,7.24.11.09c.17-.16.13-.38-.11-.52L34.72,74a1.12,1.12,0,0,0-1,0h0C33.43,74.13,33.4,74.34,33.56,74.51Z"/><path class="cls-12" d="M33.56,74.51l.11.08,12.57,7.24a1.15,1.15,0,0,0,1,0h0l.11-.08-.11-.09L34.72,74.42a1.12,1.12,0,0,0-1,0h0Z"/><path class="cls-28" d="M69.44,89.49,51,78.45a1.27,1.27,0,0,1,0-2.16l0,0a4.59,4.59,0,0,1,4.68-.14L74,86.72a1.64,1.64,0,0,1,0,2.9l0,0A4.6,4.6,0,0,1,69.44,89.49Z"/><path class="cls-29" d="M53.74,76.28,53.25,76l.35-.2a5.54,5.54,0,0,1,.81,0l-.16.44Z"/><polygon class="cls-12" points="72.76 85.27 70.85 84.98 70.85 86.64 72.76 86.94 72.76 85.27"/><path class="cls-30" d="M50.59,76.12V77.8h0c0,.84,1.14,1.31,1.14,1.31a5.12,5.12,0,0,0,2.59.39A3.14,3.14,0,0,1,56.4,80l11.79,6.8v.94h0A1.56,1.56,0,0,0,69.1,89a4.85,4.85,0,0,0,4.39,0,1.57,1.57,0,0,0,.91-1.26h0V86.08l-.81,1.21-.1.07a4.93,4.93,0,0,1-4.15.13l-1.15-1.41a1.2,1.2,0,0,1,.29-.75l-12.08-7a3.14,3.14,0,0,0-2.08-.53,5.17,5.17,0,0,1-2.59-.38,3,3,0,0,1-.43-.25Zm17.6,10h0Z"/><polygon class="cls-30" points="54.64 75.13 53.25 74.32 53.25 75.99 54.64 76.79 54.64 75.13"/><polygon class="cls-30" points="70.34 86.94 70.85 86.64 70.85 84.98 69.45 85.78 69.97 86.89 70.34 86.94"/><polygon class="cls-30" points="72.76 86.67 73.28 86.38 72.76 85.27 72.76 86.67"/><path class="cls-31" d="M56.4,78.36l12.08,7c-.54.66-.33,1.48.62,2a4.85,4.85,0,0,0,4.39,0,1.34,1.34,0,0,0,0-2.54,4.92,4.92,0,0,0-3.42-.38l-12.1-7c-1.26-.73-.92-1.2-.92-1.2.34-.76-.67-1.5-.67-1.5h0a4.13,4.13,0,0,0-2.79-.64l-.35.2,1.39.81-.39,1.09-1.89.22L51,75.64l-.35.2c-.27,1,1.11,1.61,1.11,1.61a5.17,5.17,0,0,0,2.59.38A3.14,3.14,0,0,1,56.4,78.36ZM70.85,85l1.91.29.52,1.11-1.4.8L70,86.89l-.51-1.11Z"/><path class="cls-30" d="M57,78.26a.22.22,0,0,1,.09-.07h0a1,1,0,0,1,.87,0l10.53,6.07.09.07c.14-.13.11-.31-.09-.43L57.92,77.82a1,1,0,0,0-.87,0h0C56.84,77.94,56.81,78.12,57,78.26Z"/><path class="cls-12" d="M57,78.26l.09.07L67.57,84.4a1,1,0,0,0,.87,0h0a.22.22,0,0,0,.09-.07l-.09-.07L57.92,78.18a1,1,0,0,0-.87,0h0A.22.22,0,0,0,57,78.26Z"/><path class="cls-32" d="M110.05,65.7c-5.36,3.1-14.06,3.1-19.42,0s-5.37-8.12,0-11.21,14.06-3.1,19.42,0S115.42,62.61,110.05,65.7Z"/><path class="cls-25" d="M104.12,55.46c-1.75-1.6-5.69-1.62-7.46,0a1.69,1.69,0,0,0,0,2.67,3.39,3.39,0,0,0,.53.38,6.79,6.79,0,0,1,6.39,0,3,3,0,0,0,.53-.38A1.67,1.67,0,0,0,104.12,55.46Z"/><path class="cls-24" d="M95.71,52.41l-2.92-1.7L90,52.32,92.88,54l-.15.16a4.34,4.34,0,0,0-1,1.41H87.62v2.29l4.13,0a2.86,2.86,0,0,0,.29.58,4.94,4.94,0,0,0,.82,1l-2.92,1.67.31.19,2.43,1.42.06,0,2.92-1.67c.27.1.54.18.82.26a13.07,13.07,0,0,0,1.9.4v2.38l4,0V61.78a15,15,0,0,0,1.91-.39c.28-.07.55-.16.81-.25l2.91,1.7,0,0,2.45-1.4.32-.18-2.91-1.7a4.7,4.7,0,0,0,.83-1A3.13,3.13,0,0,0,109,58l4.13,0V55.7l-2.65,0H109a4.06,4.06,0,0,0-1-1.42,1.21,1.21,0,0,0-.16-.16l2.93-1.67L108,50.79l-2.92,1.67a12.58,12.58,0,0,0-2.72-.66V49.41l-4,0v2.39A12.87,12.87,0,0,0,95.71,52.41Zm8.39,5.72a3,3,0,0,1-.53.38,6.73,6.73,0,0,1-6.39,0,3.39,3.39,0,0,1-.53-.38,1.69,1.69,0,0,1,0-2.67c1.77-1.58,5.71-1.56,7.46,0A1.67,1.67,0,0,1,104.1,58.13Z"/><polygon class="cls-6" points="89.93 61.12 92.73 62.76 92.71 66.19 89.91 64.56 89.93 61.12"/><polygon class="cls-25" points="95.66 61.09 95.64 64.53 92.71 66.19 92.73 62.76 95.66 61.09"/><rect class="cls-6" x="98.62" y="63.88" width="3.44" height="3.97" transform="translate(34.06 165.93) rotate(-89.76)"/><path class="cls-6" d="M98.37,61.75l0,3.44a13,13,0,0,1-2.71-.66V61.09A16.83,16.83,0,0,0,98.37,61.75Z"/><polygon class="cls-25" points="91.74 57.87 91.72 60.09 89.93 61.12 89.93 61.3 87.59 61.29 87.61 57.85 91.74 57.87"/><path class="cls-6" d="M91.74,57.87a4.3,4.3,0,0,0,1.11,1.58l-1.13.65Z"/><polygon class="cls-6" points="107.98 62.84 107.96 66.28 105.06 64.58 105.07 61.14 107.98 62.84"/><polygon class="cls-25" points="110.8 61.23 110.78 64.67 107.96 66.28 107.98 62.84 110.8 61.23"/><path class="cls-25" d="M105.07,61.14c0-.23,0,3.44,0,3.44a12.49,12.49,0,0,1-2.72.63c0-.2,0-3.43,0-3.43A15.21,15.21,0,0,0,105.07,61.14Z"/><polygon class="cls-6" points="113.15 57.99 113.13 61.43 110.8 61.41 110.8 61.23 109.01 60.19 109.03 57.97 113.15 57.99"/><path class="cls-25" d="M109,58v2.22l-1.12-.66A4.89,4.89,0,0,0,109,58Z"/><path class="cls-25" d="M110.84,52.43v3.26H109a4.33,4.33,0,0,0-1.12-1.58Z"/><path class="cls-25" d="M92.88,54a4.85,4.85,0,0,0-1.13,1.57H90l0-3.25Z"/><path class="cls-32" d="M95.32,78.79a14.36,14.36,0,0,1-13,0c-3.6-2.08-3.6-5.44,0-7.52a14.36,14.36,0,0,1,13,0C98.91,73.35,98.91,76.71,95.32,78.79Z"/><path class="cls-25" d="M91.34,71.92a4.31,4.31,0,0,0-5,0,1.12,1.12,0,0,0,0,1.78,1.87,1.87,0,0,0,.35.26A4.51,4.51,0,0,1,91,74a2,2,0,0,0,.36-.26A1.12,1.12,0,0,0,91.34,71.92Z"/><path class="cls-24" d="M85.7,69.88l-2-1.14-1.89,1.08,2,1.13-.1.11a2.87,2.87,0,0,0-.66,1H80.28v1.54H83a2.4,2.4,0,0,0,.2.39,3.31,3.31,0,0,0,.55.67l-2,1.12.21.12,1.63,1,0,0,2-1.12a4.88,4.88,0,0,0,.54.18,8.8,8.8,0,0,0,1.28.27v1.6h2.66V76.16a10.35,10.35,0,0,0,1.28-.26l.55-.17,2,1.14,0,0,1.65-.94.21-.12-1.95-1.14a3.17,3.17,0,0,0,.56-.67,2,2,0,0,0,.2-.38l2.76,0V72.08H94.63a2.66,2.66,0,0,0-.64-.95.57.57,0,0,0-.11-.11l2-1.12L94,68.79l-2,1.12a8.35,8.35,0,0,0-1.82-.44v-1.6H87.54l0,1.59A8.33,8.33,0,0,0,85.7,69.88Zm5.63,3.83A2,2,0,0,1,91,74a4.51,4.51,0,0,1-4.28,0,1.87,1.87,0,0,1-.35-.26,1.12,1.12,0,0,1,0-1.78,4.31,4.31,0,0,1,5,0A1.12,1.12,0,0,1,91.33,73.71Z"/><polygon class="cls-6" points="81.83 75.72 83.71 76.81 83.69 79.12 81.82 78.02 81.83 75.72"/><polygon class="cls-25" points="85.67 75.69 85.65 78 83.69 79.12 83.71 76.81 85.67 75.69"/><rect class="cls-6" x="87.66" y="77.57" width="2.3" height="2.66" transform="translate(9.5 167.34) rotate(-89.73)"/><path class="cls-6" d="M87.49,76.14v2.3A8.86,8.86,0,0,1,85.65,78l0-2.31A10.74,10.74,0,0,0,87.49,76.14Z"/><polygon class="cls-25" points="83.04 73.54 83.03 75.03 81.83 75.72 81.83 75.84 80.27 75.83 80.28 73.53 83.04 73.54"/><path class="cls-6" d="M83,73.54a3,3,0,0,0,.75,1.06L83,75Z"/><polygon class="cls-6" points="93.93 76.87 93.92 79.17 91.97 78.03 91.98 75.73 93.93 76.87"/><polygon class="cls-25" points="95.82 75.79 95.81 78.1 93.92 79.17 93.93 76.87 95.82 75.79"/><path class="cls-25" d="M92,75.73c0-.15,0,2.3,0,2.3a8,8,0,0,1-1.83.43c0-.14,0-2.3,0-2.3A10.13,10.13,0,0,0,92,75.73Z"/><polygon class="cls-6" points="97.39 73.62 97.38 75.92 95.82 75.91 95.82 75.79 94.62 75.09 94.63 73.6 97.39 73.62"/><path class="cls-25" d="M94.63,73.6v1.49l-.75-.44A3.42,3.42,0,0,0,94.63,73.6Z"/><path class="cls-25" d="M95.84,69.89v2.19h-1.2A2.89,2.89,0,0,0,93.88,71Z"/><path class="cls-25" d="M83.81,71A3.11,3.11,0,0,0,83.05,72h-1.2V69.82Z"/></g></g></svg>