<svg xmlns="http://www.w3.org/2000/svg" viewBox="0 0 19.88 49.11"><defs><style>.cls-1{fill:#6e1d14;}.cls-2{fill:#5b1511;}.cls-3{fill:#7cc2c7;}.cls-4{fill:#449fa1;}.cls-5{fill:#f1b5ab;}.cls-6{fill:#f5948d;}.cls-7{fill:#ee7123;}.cls-8{fill:#a45b52;}.cls-9{fill:#272b6a;}.cls-10{fill:#2b91be;}.cls-11{fill:#6e2b28;}.cls-12{fill:#fff;}.cls-13{fill:#1e1724;}.cls-14{fill:#d15c27;}.cls-15{fill:#90584d;}.cls-16{fill:#a1d0c0;}.cls-17{fill:#97d8e9;}.cls-18{fill:#68b4d6;}.cls-19{fill:#3485ba;}.cls-20{fill:#bde4e8;}</style></defs><g id="Capa_2" data-name="Capa 2"><g id="_ëîé_1" data-name="‘ëîé_1"><path class="cls-1" d="M8.42,8.94a4.7,4.7,0,0,1-1,1.47h0A7.15,7.15,0,0,0,7,9.34a1.45,1.45,0,0,0-.2-.29,2.15,2.15,0,0,0-1.18-.46l-.19,0-.25,0H4.92s-.47,0-.8.83a14.69,14.69,0,0,0-.57,2.54S1.36,9.78,1.42,9.25s.63,0,.66,0-.43-.71-.33-.93.67.05.67.05-.55-1.1-.23-1.3.66.38.66.38S2.8,5.8,3.62,5.74a.78.78,0,0,1,.89.67s.71-1,1-1,.12,1.15.12,1.2a8,8,0,0,1,1-.77A2,2,0,0,1,7,5.72a.48.48,0,0,1,.32,0c.32.13-.09.77-.21,1,.09-.11.29-.33.44-.17s-.28.77-.16.73C7.8,7,8,7.11,8,7.46s-.7,1.08-.7,1.08a1,1,0,0,1,1.07.33A.15.15,0,0,1,8.42,8.94Z"/><path class="cls-2" d="M7,5.72a18.13,18.13,0,0,0-1.6,2.85l-.25,0H4.92s-.47,0-.8.83a14.69,14.69,0,0,0-.57,2.54S1.36,9.78,1.42,9.25s.63,0,.66,0-.43-.71-.33-.93.67.05.67.05-.55-1.1-.23-1.3.66.38.66.38S2.8,5.8,3.62,5.74a.78.78,0,0,1,.89.67s.71-1,1-1,.12,1.15.12,1.2a8,8,0,0,1,1-.77A2,2,0,0,1,7,5.72Z"/><path class="cls-3" d="M7.44,14.44c0,.13,0,.29,0,.47a24.16,24.16,0,0,1-.23,2.9l-2.66.61s-.39-2.1-.67-3.3c0-.18-.08-.34-.12-.47a7.24,7.24,0,0,1,1.31-.35A5.7,5.7,0,0,1,7.44,14.44Z"/><path class="cls-4" d="M7.87,14.58a2.28,2.28,0,0,1-.45.33,3.71,3.71,0,0,1-1.63.45,5.27,5.27,0,0,1-1.93-.24,3.48,3.48,0,0,1-.6-.28,4.78,4.78,0,0,1,.48-.19,7.24,7.24,0,0,1,1.31-.35,5.7,5.7,0,0,1,2.39.14A3.62,3.62,0,0,1,7.87,14.58Z"/><path class="cls-5" d="M6.78,13.63c0,.12-.06.28-.11.47-.17.69-.5,1.69-.88,1.67S5.15,14.88,5,14.2C5,14,5,13.9,5,13.78c.41,0,.88,0,1.3,0A2.09,2.09,0,0,0,6.78,13.63Z"/><path class="cls-6" d="M6.78,13.63c0,.12-.06.28-.11.47A3.82,3.82,0,0,1,5,14.2C5,14,5,13.9,5,13.78c.41,0,.88,0,1.3,0A2.09,2.09,0,0,0,6.78,13.63Z"/><path class="cls-5" d="M7.88,13a2.11,2.11,0,0,1-1.24.93,1.71,1.71,0,0,1-.49.1c-.39,0-.83.05-1.2,0H4.84a1.39,1.39,0,0,1-.69-.18c-.35-.27-.49-.92-.6-2,0,0,.12-1.72.25-2.37a1.14,1.14,0,0,1,.94-1l.25,0c.15,0,.15,0,.15,0l.27,0a2.4,2.4,0,0,1,1.35.48,5.06,5.06,0,0,1,.64,1.36A9.61,9.61,0,0,1,7.88,13Z"/><path class="cls-2" d="M8.42,8.94a4.7,4.7,0,0,1-1,1.47h0A7.15,7.15,0,0,0,7,9.34,8,8,0,0,0,8.42,8.94Z"/><path class="cls-6" d="M4.84,14.05a1.39,1.39,0,0,1-.69-.18c-.35-.27-.49-.92-.6-2,0,0,.12-1.72.25-2.37a1.14,1.14,0,0,1,.94-1l.25,0,.15,0,.27,0a13.67,13.67,0,0,0-1.28,3.32A3.85,3.85,0,0,0,4.84,14.05Z"/><path class="cls-3" d="M3.2,22.87c0,.07,0,.15,0,.22-.1.58-.23,1.35-.36,2.15h0s-.27-2-.36-3.09a8.51,8.51,0,0,0-1.15-2.82A11.81,11.81,0,0,1,0,14.49a10.3,10.3,0,0,1,.94-4.11,2.09,2.09,0,0,0,.52.77,2.8,2.8,0,0,0,1.82.63c-.6.88-.68,3.42-.68,3.42A3.38,3.38,0,0,1,3,15a9.47,9.47,0,0,1,.61,2.85A26.66,26.66,0,0,1,3.2,22.87Z"/><path class="cls-3" d="M14.69,11.79a9.89,9.89,0,0,1-1.14,2.15c-.61.75-1.7,2-2.4,2.71a5.53,5.53,0,0,0-1.32,1.89c-.09.4-.58,2.07-.77,2.72,0,0-.65-2.57-.92-3.2l.32-3.24a2.13,2.13,0,0,0,.25.09,7.35,7.35,0,0,0,.85-.72c.68-.62,1.57-1.45,1.88-1.69l1.62-1.28a1,1,0,0,0,.34.36A2.16,2.16,0,0,0,14.69,11.79Z"/><path class="cls-7" d="M14.57,27.12c-.14.4-.36,1.13-.62,2-.76,2.55-1.83,6.28-1.83,6.28l-.49.24,0,0a10.09,10.09,0,0,1-.78-3.47,15.68,15.68,0,0,1,.39-3.8c0-.2.07-.32.07-.32l-.34.1L6.69,29.45s-.79,2.62-1.44,5c-.29,1-.55,2-.7,2.74S4.2,38.8,4,40H4c0,.08,0,.15,0,.22-.67,3.28-1.54,7.61-1.54,7.61S2,48,1.87,48H1.8s-1.45-5.32-1.2-7a7.05,7.05,0,0,1,.54-1.82,5.5,5.5,0,0,1,.57-1c0-.43.09-1.15.14-2,.17-2.74.41-7,.54-8,.09-.71.24-1.69.39-2.66h0s0-.06,0-.09a.13.13,0,0,0,0-.06c0-.14.05-.27.07-.4v-.1l.31-1.82h0v-.05a26.66,26.66,0,0,0,.42-5.06A9.47,9.47,0,0,0,3,15l.25-.12a4.78,4.78,0,0,1,.48-.19c0,.13.08.29.12.47.28,1.2.67,3.3.67,3.3l2.66-.61a24.16,24.16,0,0,0,.23-2.9c0-.18,0-.34,0-.47a3.62,3.62,0,0,1,.43.14,4.14,4.14,0,0,1,.59.24l-.32,3.24c.27.63.92,3.2.92,3.2h0c-.15.51-.42,2.49-.54,3.41l0,.11s0,.09,0,.13a.74.74,0,0,0,0,.12c0,.07,0,.11,0,.11a21.58,21.58,0,0,1,4-1A7.77,7.77,0,0,1,15.32,24C15.6,24.24,15.09,25.54,14.57,27.12Z"/><path class="cls-8" d="M7.25,5.8h0Z"/><path class="cls-5" d="M16.14,5.25c-.06,0-.06,2.25-.29,3.59a10.82,10.82,0,0,1-1.16,2.95,1.56,1.56,0,0,1-1.24-.18,1.17,1.17,0,0,1-.39-.39,23.39,23.39,0,0,1,.52-2.59A15.84,15.84,0,0,1,15.09,5a5.68,5.68,0,0,1-.16-1.93V3c.23-.23.49.86.49.86s.52-1.54.78-1.37-.28.92-.32,1h0s.6-.8.74-.72-.39.9-.56,1.14c.17-.22.75-.88.87-.88s-.55,1.2-.59,1.27.76-.85.86-.58S16.21,5.21,16.14,5.25Z"/><path class="cls-1" d="M4.35,9.69c.38-.07,1-.09.89-.2a.76.76,0,0,0-.72-.18.93.93,0,0,0-.62.47Z"/><path class="cls-1" d="M6.08,9.42c-.14,0-.24-.34.31-.33a.82.82,0,0,1,.73.4S6.29,9.46,6.08,9.42Z"/><path class="cls-9" d="M1.8,48a7.26,7.26,0,0,0-.66,1H2.91s-.45-.84-.56-1.07Z"/><path class="cls-9" d="M11.59,35.67l.18.5h2.29S13.41,34.43,11.59,35.67Z"/><path class="cls-10" d="M5.25,34.44c-.29,1-.55,2-.7,2.74s-.37,1.75-.63,3a7.33,7.33,0,0,1-1.45,1,9.19,9.19,0,0,1-1.33-2.06,5.5,5.5,0,0,1,.57-1c0-.43.09-1.15.14-2a14.63,14.63,0,0,0,2.09-1Z"/><path class="cls-10" d="M14.57,27.12c-.14.4-.36,1.13-.62,2a6.49,6.49,0,0,0-2.75-.73c0-.2.07-.32.07-.32l-.34.1a31.9,31.9,0,0,1,1.51-4.05A7.77,7.77,0,0,1,15.32,24C15.6,24.24,15.09,25.54,14.57,27.12Z"/><path class="cls-11" d="M3.77,25l.1,0v.09H3.77a7,7,0,0,1-.9-.23v-.1A5.22,5.22,0,0,0,3.77,25Z"/><path class="cls-11" d="M7.11,25v.1H7c-.33,0-.71.07-1.14.08H5.66a11.22,11.22,0,0,1-1.39-.08H4.18l0-.1.09,0a12.22,12.22,0,0,0,1.57.07A7.68,7.68,0,0,0,7,25Z"/><path class="cls-11" d="M8.52,24.67l0,.11a4.83,4.83,0,0,1-1.1.3l-.09,0V25l.09,0A5.2,5.2,0,0,0,8.52,24.67Z"/><path class="cls-11" d="M3.82,25.59v.09l-.1,0h0a7.3,7.3,0,0,1-.94-.27h0s0-.06,0-.09c.21.07.54.17.94.27h0Z"/><path class="cls-11" d="M7,25.64l.1,0v.1l-.09,0a4.48,4.48,0,0,1-1.23.16H5.68a8.6,8.6,0,0,1-1.5-.14l-.09,0v-.09h.1a7.41,7.41,0,0,0,1.54.14A4.9,4.9,0,0,0,7,25.64Z"/><path class="cls-11" d="M8.49,24.91l0,.12a4.24,4.24,0,0,1-1.07.57l-.09,0v-.1l.09,0a3.43,3.43,0,0,0,1-.58Z"/><path class="cls-11" d="M4.31,24.83a0,0,0,0,0,0,0H3.83a0,0,0,0,0-.05,0v.22l0,.5h0v.09h0l0,.45s0,.05,0,.05l.32.08h0s0,0,0,0l.07-.44v-.1h0l.07-.52,0-.09,0-.19S4.31,24.84,4.31,24.83Zm-.13.3-.08.52v.09l-.06.4-.24-.06,0-.4v-.09l0-.51V24.9h.35l0,.13Z"/><path class="cls-11" d="M7,25.14l0,.5.1,0,0-.48Zm.35-.33H7.07a0,0,0,0,0,0,0L7,25v.1l0,.5v.09L7,26s0,0,0,0H7L7.37,26s0,0,0,0v-1.1A0,0,0,0,0,7.36,24.81Zm-.05,1.11L7.05,26v-.37l0-.48V24.9h.19Z"/><path class="cls-11" d="M5.31,12l0,0s0,0,0,0h0l.4-.1a1.21,1.21,0,0,1,.61-.06,8.3,8.3,0,0,1-.61-2.06l0,0s0,0,0,0a8.31,8.31,0,0,0,.62,2.06v0s0,0,0,0h0s-.1-.1-.63,0l-.4.1h0Z"/><path class="cls-12" d="M5.26,12.66l1.32-.17a.72.72,0,0,1-.64.66A.59.59,0,0,1,5.26,12.66Z"/><path class="cls-13" d="M5.1,10.41c0,.22-.08.4-.18.4s-.18-.18-.18-.4.08-.41.18-.41S5.1,10.19,5.1,10.41Z"/><path class="cls-13" d="M6.71,10.23c0,.2-.07.37-.16.37s-.17-.17-.17-.37.07-.38.17-.38S6.71,10,6.71,10.23Z"/><path class="cls-5" d="M7.82,2.84a0,0,0,0,1,0,0,6.32,6.32,0,0,1-1.08.79l-.13.42h0c-.2.62-.61,1.82-1,2.71-.53,1.26-2.34,5-2.34,5a2.33,2.33,0,0,1-2-.71,1.52,1.52,0,0,1-.38-.69A23,23,0,0,1,2.85,7c1-1.48,2.56-3.24,2.56-3.24C5,2.52,5.27,1.11,5.54,1a.09.09,0,0,1,.08,0,.8.8,0,0,1,.1.51C5.79,1.32,5.91,1,6,1s.16.9.15,1c0-.13.15-.86.37-.8s0,1.18,0,1.49.48,0,.48,0C7.7,2.35,7.82,2.84,7.82,2.84Z"/><path class="cls-1" d="M5.72,11.92a2.85,2.85,0,0,0-1.43.84s1.26-.13,1.88-.21,1.09-.18,1.09-.18S7,11.74,5.72,11.92Z"/><path class="cls-6" d="M5.66,4A31.93,31.93,0,0,0,2.93,7.64a33.86,33.86,0,0,0-1.61,3.43,1.52,1.52,0,0,1-.38-.69A23,23,0,0,1,2.85,7c1-1.48,2.56-3.24,2.56-3.24C5,2.52,5.27,1.11,5.54,1a4.19,4.19,0,0,0-.09,1.71C5.64,3.41,5.77,3.81,5.66,4Z"/><path class="cls-6" d="M7.81,2.86a6.32,6.32,0,0,1-1.08.79l-.13.42c0-.34.07-.66.08-.69S7.4,3.1,7.81,2.86Z"/><path class="cls-6" d="M15.4,5.08a13,13,0,0,0-1.2,3.17c-.2,1-.52,2.52-.75,3.36a1.17,1.17,0,0,1-.39-.39,23.39,23.39,0,0,1,.52-2.59A15.84,15.84,0,0,1,15.09,5a5.68,5.68,0,0,1-.16-1.93V3A8.23,8.23,0,0,0,15.4,5.08Z"/><path class="cls-4" d="M3.16,23.09c-.1.58-.23,1.35-.36,2.15h0s-.27-2-.36-3.09a8.51,8.51,0,0,0-1.15-2.82A11.81,11.81,0,0,1,0,14.49a10.3,10.3,0,0,1,.94-4.11,2.09,2.09,0,0,0,.52.77A12.93,12.93,0,0,0,.7,15.52C.77,16.66,2,19.18,2.49,20.59A17.43,17.43,0,0,1,3.16,23.09Z"/><path class="cls-4" d="M13.4,11.58a19.55,19.55,0,0,1-3.84,2.61c.68-.62,1.57-1.45,1.88-1.69l1.62-1.28A1,1,0,0,0,13.4,11.58Z"/><path class="cls-14" d="M3.16,27.12s-.44,3.13-.71,5.73-.46,6-.46,6a8.63,8.63,0,0,0-.85,3.61A35.87,35.87,0,0,0,1.87,48H1.8s-1.45-5.32-1.2-7a7.05,7.05,0,0,1,.54-1.82,5.5,5.5,0,0,1,.57-1c0-.43.09-1.15.14-2,.17-2.74.41-7,.54-8,.09-.71.24-1.69.39-2.66h0s0-.06,0-.09a.13.13,0,0,0,0-.06c0-.14.05-.27.07-.4v-.1l.31-1.82C3.25,23.74,3.24,26.26,3.16,27.12Z"/><path class="cls-14" d="M11.63,35.65l0,0a10.09,10.09,0,0,1-.78-3.47,15.68,15.68,0,0,1,.39-3.8c0-.2.07-.32.07-.32l-.34.1L6.69,29.45s-.79,2.62-1.44,5c-.29,1-.55,2-.7,2.74S4.2,38.8,4,40a39.72,39.72,0,0,1,.59-4.59c.71-3.29,1.7-6.26,1.7-6.26A52.58,52.58,0,0,0,12.15,27s-.33,1.91-.65,4.23A15.2,15.2,0,0,0,11.63,35.65Z"/><path class="cls-15" d="M1.36,49.11a.18.18,0,0,1-.19-.19.13.13,0,0,1,0-.06c.07-.3.74-4.63,1.45-9.2C3.24,35.79,3.92,31.4,4.46,28c.3-1.86.52-3.24.69-4.22.3-1.78.3-1.78.46-1.82a.19.19,0,0,1,.2.28c-.16.56-1.69,10.34-2.8,17.49-.4,2.53-.76,4.84-1,6.52-.13.84-.24,1.52-.32,2l-.09.55C1.54,49,1.52,49.11,1.36,49.11ZM5.74,22.29a.08.08,0,0,1-.06,0A.08.08,0,0,0,5.74,22.29Z"/><path class="cls-15" d="M15.53,49.11a.19.19,0,0,1-.19-.19V22.13a.19.19,0,0,1,.19-.19.18.18,0,0,1,.19.19V48.92A.18.18,0,0,1,15.53,49.11Z"/><path class="cls-15" d="M9.16,49.11A.19.19,0,0,1,9,49c-.05-.14-1.5-12.12-2.36-19.24a.19.19,0,0,1,0-.15.21.21,0,0,1,.15-.07h8.87a.2.2,0,0,1,.19.15l4,19.2a.2.2,0,0,1-.15.23.19.19,0,0,1-.22-.15l-4-19H7c.79,6.53,2.25,18.58,2.32,19a.19.19,0,0,1-.12.22Z"/><rect class="cls-16" x="3.87" y="29.72" width="11.82" height="1.07"/><rect class="cls-16" x="2.91" y="36.66" width="12.49" height="0.82"/><rect class="cls-16" x="1.89" y="44.44" width="13.79" height="0.82"/><rect class="cls-16" x="5.39" y="21.64" width="10.38" height="0.74"/><path class="cls-17" d="M16.47,1.64c0,.45-1.15.85-2.85,1.05a21.48,21.48,0,0,1-2.8.17c-3.13,0-5.66-.55-5.66-1.22S7.69.42,10.82.42c.75,0,1.48,0,2.13.09C15,.69,16.47,1.13,16.47,1.64Z"/><path class="cls-18" d="M12.17,1.61c0,.26-.65.47-1.46.47s-1.46-.21-1.46-.47.66-.48,1.46-.48S12.17,1.35,12.17,1.61Z"/><path class="cls-18" d="M16.47.9v.74C16.47,1.13,15,.7,13,.51h0c-.67-.06-1.4-.09-2.16-.09C7.69.42,5.16,1,5.16,1.64V.82S6.61,0,10.93,0c.67,0,1.25,0,1.78.06C15.6.25,16.47.9,16.47.9Z"/><path class="cls-19" d="M16.47.9v.74C16.47,1.13,15,.7,13,.51h0L12.71.06C15.6.25,16.47.9,16.47.9Z"/><path class="cls-20" d="M16.47,1.64c0,.45-1.15.85-2.85,1.05A8.16,8.16,0,0,0,13,.51C15,.69,16.47,1.13,16.47,1.64Z"/></g></g></svg>