<svg xmlns="http://www.w3.org/2000/svg" xmlns:xlink="http://www.w3.org/1999/xlink" viewBox="0 0 33.41 46.09"><defs><style>.cls-1{mask:url(#mask);filter:url(#luminosity-noclip-2);}.cls-2{mix-blend-mode:multiply;fill:url(#linear-gradient);}.cls-3{fill:#272b6a;}.cls-4{fill:#202259;}.cls-5{fill:#ffc40c;}.cls-6{fill:#e6ab23;}.cls-7{fill:#f79738;}.cls-8{fill:#e18726;}.cls-9{fill:#a6ddeb;}.cls-10{fill:#66c8ce;}.cls-11{fill:#683c38;}.cls-12{fill:#721813;}.cls-13{fill:#581210;}.cls-14{fill:#f1b5ab;}.cls-15{fill:#e98582;}.cls-16{fill:#f5948d;}.cls-17{fill:#804f4a;}.cls-18{fill:#5e3431;}.cls-19{fill:#1e1724;}.cls-20{fill:#fff;}.cls-21{fill:#983222;}.cls-22{fill:#1e2d58;}.cls-23{fill:#d64e27;}.cls-24{fill:#47211f;}.cls-25{fill:#5c2f2c;}.cls-26{fill:#ee3852;}.cls-27{fill:#db2245;}.cls-28{fill:#bf3a27;}.cls-29{fill:#a6d6b4;}.cls-30{mask:url(#mask-2);}.cls-31{opacity:0.4;fill:url(#linear-gradient-2);}.cls-32{fill:#b2dbdb;opacity:0.1;}.cls-33{fill:#7ec9d4;opacity:0.2;}.cls-34{fill:#c23827;}.cls-35{fill:#2b91be;}.cls-36{fill:#0d64a5;}.cls-37{fill:#3d66b0;}.cls-38{fill:#065c93;}.cls-39{fill:#1f4fa1;}.cls-40{fill:#1d4380;}.cls-41{fill:#eb5729;}.cls-42{filter:url(#luminosity-noclip);}</style><filter id="luminosity-noclip" x="0" y="-8182.22" width="9.7" height="32766" filterUnits="userSpaceOnUse" color-interpolation-filters="sRGB"><feFlood flood-color="#fff" result="bg"/><feBlend in="SourceGraphic" in2="bg"/></filter><mask id="mask" x="0" y="-8182.22" width="9.7" height="32766" maskUnits="userSpaceOnUse"><g class="cls-42"/></mask><linearGradient id="linear-gradient" x1="5.18" y1="2.61" x2="4.53" y2="42.5" gradientUnits="userSpaceOnUse"><stop offset="0" stop-color="#fff"/><stop offset="1" stop-color="#4d4d4d"/></linearGradient><filter id="luminosity-noclip-2" x="0" y="0" width="9.7" height="45.74" filterUnits="userSpaceOnUse" color-interpolation-filters="sRGB"><feFlood flood-color="#fff" result="bg"/><feBlend in="SourceGraphic" in2="bg"/></filter><mask id="mask-2" x="0" y="0" width="9.7" height="45.74" maskUnits="userSpaceOnUse"><g class="cls-1"><rect class="cls-2" width="9.7" height="45.74"/></g></mask><linearGradient id="linear-gradient-2" x1="5.18" y1="2.61" x2="4.53" y2="42.5" gradientUnits="userSpaceOnUse"><stop offset="0" stop-color="#b2dbdb"/><stop offset="1" stop-color="#b2dbdb"/></linearGradient></defs><g id="Capa_2" data-name="Capa 2"><g id="_ëîé_1" data-name="‘ëîé_1"><path class="cls-3" d="M27.17,43.47l-.24.46-.05.1s-1.12-1.24-2.33-2.75A50.12,50.12,0,0,1,20,34.91c-1-1.92-3.69-9.44-3.69-9.44h0l-1.56,9.46c.38,1,.53,2.65,0,5.31s-1.24,5.37-1.24,5.37h0l-.64-.14s-.85-7-.94-13.37c0-.59,0-1.17,0-1.73h0c0-5.32.44-8.69.39-8.72a5.15,5.15,0,0,0,1.79.79s0-.7.09-1.66h0l.54,0,2-.06h.47c.15.94.24,1.76.24,1.76a4.93,4.93,0,0,0,.92-.11,3.88,3.88,0,0,0,1.68-.7,15.31,15.31,0,0,1,1.34,4.9c.23,1.92,1,8,1,8a6.33,6.33,0,0,1,2.31,2.28C25.4,38.24,27.17,43.47,27.17,43.47Z"/><path class="cls-4" d="M27.17,43.47l-.24.46c-.52-1.08-2.42-5.87-2.74-6.63s-2.33-2.13-2.33-2.13-.76-5.57-1.44-8.35a31.92,31.92,0,0,0-1.27-4.19,4.75,4.75,0,0,1-2,0l-.47-1.94h.47c.15.94.24,1.76.24,1.76a4.93,4.93,0,0,0,.92-.11,3.88,3.88,0,0,0,1.68-.7,15.31,15.31,0,0,1,1.34,4.9c.23,1.92,1,8,1,8a6.33,6.33,0,0,1,2.31,2.28C25.4,38.24,27.17,43.47,27.17,43.47Z"/><path class="cls-4" d="M14.72,20.75,14.12,23a3.54,3.54,0,0,0-1.11.23c-.14.1-.67,3.88-1.1,7.12,0-5.32.44-8.69.39-8.72a5.15,5.15,0,0,0,1.79.79s0-.7.09-1.66h0Z"/><path class="cls-4" d="M14.78,34.94c.38,1,.53,2.65,0,5.31s-1.24,5.37-1.24,5.37h0c.2-1.37.58-4,.68-4.86.13-1.27.35-3.19.3-3.75s-.36-2.21-.36-2.21.8-4.16,1.29-5.84.89-3.32.93-3.47Z"/><path class="cls-5" d="M7,12s-.06.05-.15.11a1.45,1.45,0,0,1-.91.21H5.86A3.45,3.45,0,0,1,4.71,12a2.58,2.58,0,0,1-.46-.24s0-.15,0-.38c0-.5.14-1.36.19-1.84a6.94,6.94,0,0,0-.13-1.45,4.69,4.69,0,0,1-.13-1.21c.12-.15.33.69.33.69s-.06-1.2.13-1.32.42.9.42.9.07-1.6.34-1.69.32.6.36.9l0,.14s0-.08,0-.2c.06-.4.21-1.26.47-1.24s.37,2.07.37,2.07a1.87,1.87,0,0,1,.26,1.08c0,.16,0,.32,0,.45a3,3,0,0,1-.14.65A14.84,14.84,0,0,0,6.87,11C7,11.58,7,12,7,12Z"/><path class="cls-6" d="M7,12s-.06.05-.15.11a1.45,1.45,0,0,1-.91.21c0-.31.22-1.35.35-1.87a2,2,0,0,1-.69.68,4.88,4.88,0,0,1-1.32.27c0-.5.14-1.36.19-1.84a6.94,6.94,0,0,0-.13-1.45l1.78.42L5.6,7.2a3.57,3.57,0,0,1,.19-.8l0-.06s.07,0,.1,0a20.31,20.31,0,0,1,1,2.32,3,3,0,0,1-.14.65A14.84,14.84,0,0,0,6.87,11C7,11.58,7,12,7,12Z"/><path class="cls-7" d="M14.78,13.15a18.36,18.36,0,0,0-.4,3.24c0,1.07-.13,3-.2,4.38h0c0,1-.09,1.66-.09,1.66a5.15,5.15,0,0,1-1.79-.79l-.1,0s.12-1.39.18-2.54c0-.56.06-1.53.09-2.4s0-1.68,0-1.68a1.49,1.49,0,0,1-.89-1.2,5.77,5.77,0,0,1,.18-1.52c.09-.43.19-.86.26-1.17A6.59,6.59,0,0,0,11.89,9a1.23,1.23,0,0,1,.44-.3l.18,0h.16a13.33,13.33,0,0,1,1.54,0c-.08.06-.25.2-.27.28a9.15,9.15,0,0,0,.16,2.21A8.2,8.2,0,0,0,14.78,13.15Z"/><path class="cls-8" d="M12.47,16.66c0-.91,0-1.68,0-1.68a1.49,1.49,0,0,1-.89-1.2,5.77,5.77,0,0,1,.18-1.52c.1.7.44,2.5,1.38,3.11Z"/><path class="cls-7" d="M20.2,21.45l-.21.18a4.86,4.86,0,0,1-2.6.81s-.09-.82-.24-1.76c0-.31-.1-.63-.16-.95s-.13-.69-.2-1c0-.1-.05-.2-.08-.29-.37-1.3-1.15-5.3-1.13-5.34a10.68,10.68,0,0,0,1.33-2.23A4.13,4.13,0,0,0,17,9c0-.16,0-.27-.05-.32h.23s1.32.12,2.29.31a5.69,5.69,0,0,0-.32,1.2,12.2,12.2,0,0,0-.06,1.95h0c0,.59.05,1,.05,1.05h0A37,37,0,0,0,19.09,18a19.2,19.2,0,0,0,.56,1.91C19.93,20.72,20.2,21.45,20.2,21.45Z"/><path class="cls-8" d="M19.65,19.91c-.57-.11-1.38-.26-1.76-.35a1.37,1.37,0,0,0-.9.17c-.06-.35-.13-.69-.2-1l.07,0,2,.1a11.23,11.23,0,0,1-.27-3.6,2.84,2.84,0,0,1-1.35,0,1.85,1.85,0,0,0,1.1-.8,8.77,8.77,0,0,0,.81-2.25c0,.59.05,1,.05,1.05h0A37,37,0,0,0,19.09,18,19.2,19.2,0,0,0,19.65,19.91Z"/><path class="cls-9" d="M17.15,20.68a1.83,1.83,0,0,1-.49.07c-.5,0-1.27,0-1.85,0h-.63c.07-1.39.17-3.32.2-4.39,0-.38,0-.74.07-1.07a16.2,16.2,0,0,1,.33-2.17h0a8.2,8.2,0,0,1-.68-2A9.72,9.72,0,0,1,14,10a.76.76,0,0,1,0-.15,4.23,4.23,0,0,1,0-.85c0-.08.19-.22.27-.28l.43,0h.08c0,.12-.56.29-.45.56a1,1,0,0,0,1.22.59A2.42,2.42,0,0,0,17,9a4.35,4.35,0,0,1,.05.69v.14a3.49,3.49,0,0,1-.18,1,10.68,10.68,0,0,1-1.33,2.23h0a3.93,3.93,0,0,0,.07.41s0,.05,0,.08c.21,1.11.76,3.82,1.05,4.85A19.8,19.8,0,0,1,17.15,20.68Z"/><path class="cls-9" d="M22.93,17.91A2.65,2.65,0,0,0,21.79,17c-.19-.09-.37-.16-.53-.22a5.07,5.07,0,0,0-.85-.21h-.07l-.09-.26h0a.24.24,0,0,0,0-.08c-.21-.64-.62-1.8-.87-2.49l-.16-.46s0,0,0,0,0-.11,0-.29h0a16.51,16.51,0,0,1,0-2.71A5.69,5.69,0,0,1,19.51,9a2.81,2.81,0,0,1,.94.29c.45.35,1.49,3.2,1.77,4.46.16.74.39,2.08.54,3a.59.59,0,0,0,0,.14c.06.35.1.64.13.82S22.93,17.91,22.93,17.91Z"/><path class="cls-9" d="M12.07,11.09c-.08.35-.2.85-.29,1.34a5.12,5.12,0,0,0-.15,1.35l-.05-.07a9.71,9.71,0,0,1-3,1.68,10,10,0,0,1-1.29.31h-.1a1.64,1.64,0,0,1-.77,0s.15-.31.32-.72a5.25,5.25,0,0,0,.49-1.64s0-.1,0-.14l0-.06a3.52,3.52,0,0,0,.32-.24l.08-.06c.79-.65,2.5-2.12,3.14-2.72s.82-.87,1.09-1.13A6.59,6.59,0,0,1,12.07,11.09Z"/><path class="cls-10" d="M11.63,13.78l-.05-.07a9.71,9.71,0,0,1-3,1.68,10,10,0,0,1-1.29.31h-.1a1.64,1.64,0,0,1-.77,0s.15-.31.32-.72a8.68,8.68,0,0,0,2.77-.87,10.69,10.69,0,0,0,2.25-1.7A5.12,5.12,0,0,0,11.63,13.78Z"/><path class="cls-10" d="M21.26,16.76l-.85-.21h0l-.06,0-.09-.26h0a.24.24,0,0,0,0-.08c-.21-.64-.8-2.3-1.05-3l.18-1.07Z"/><path class="cls-10" d="M14.94,13.67l-.13,7.12h-.63c.07-1.39.17-3.32.2-4.39,0-.38,0-.83,0-1.17l.38-2.07h0Z"/><polygon class="cls-11" points="15.58 13.12 15.58 13.12 15.58 13.12 15.58 13.12"/><path class="cls-10" d="M17.15,20.68a1.83,1.83,0,0,1-.49.07c-.15-1.09-.71-5-.81-5.82-.06-.5-.13-1-.19-1.32.21,1.11.76,3.82,1.05,4.85A19.8,19.8,0,0,1,17.15,20.68Z"/><path class="cls-12" d="M18.57,6.08l-.07.13a6.53,6.53,0,0,1-2.22,2.24c0-.34-.12-1.14-.2-1.69a2.42,2.42,0,0,0,.29-1.11,1.62,1.62,0,0,0,.81-.75,1.48,1.48,0,0,0-.14-1c-.09-.19-.2-.33-.28-.32l-.06,0a3.53,3.53,0,0,0-.52.87A5.09,5.09,0,0,0,15.27,3c-.45-.37-.76-.61-1.08-.29a3.18,3.18,0,0,1-.75.59c-.46.23-1.1.31-1.26.43a2.86,2.86,0,0,0-.09,1.35A.45.45,0,0,1,12,5a3.15,3.15,0,0,1-.59-1.54,2.1,2.1,0,0,1,.75-1.77A1.11,1.11,0,0,1,13,1.53,2.62,2.62,0,0,1,14.87.46c1.16,0,2.66,1.71,3.38,2.64A2.9,2.9,0,0,1,18.57,6.08Z"/><path class="cls-13" d="M16.18,4.49A5.09,5.09,0,0,0,15.27,3c-.45-.37-.76-.61-1.08-.29a3.18,3.18,0,0,1-.75.59c-.46.23-1.1.31-1.26.43a2.86,2.86,0,0,0-.09,1.35A.45.45,0,0,1,12,5c-.1-.36-.29-1-.13-1.26s1-.35,1.61-.63.64-1.06,1.63-.54A8.88,8.88,0,0,1,16.7,3.62,3.53,3.53,0,0,0,16.18,4.49Z"/><path class="cls-13" d="M18.57,6.08l-.07.13a6.53,6.53,0,0,1-2.22,2.24c0-.34-.12-1.14-.2-1.69a2.42,2.42,0,0,0,.29-1.11,1.62,1.62,0,0,0,.81-.75,1.48,1.48,0,0,0-.14-1A5.9,5.9,0,0,1,18.57,6.08Z"/><path class="cls-14" d="M17,9a2.42,2.42,0,0,1-1.55.83,1,1,0,0,1-1.22-.59c-.11-.27.41-.44.45-.56a.36.36,0,0,0,0-.16A3.75,3.75,0,0,0,14.55,8a1.66,1.66,0,0,0,.78-.35A2.69,2.69,0,0,0,16,6.9s.05-.09.08-.14,0,.07,0,.11c.07.44.13,1,.17,1.39a1.76,1.76,0,0,1,0,.19c0,.11,0,.17,0,.17l.69.07v0S17,8.87,17,9Z"/><path class="cls-15" d="M16.26,8.26a5,5,0,0,1-1.56.29A3.75,3.75,0,0,0,14.55,8a1.66,1.66,0,0,0,.78-.35A2.69,2.69,0,0,0,16,6.9l.09,0C16.16,7.31,16.22,7.9,16.26,8.26Z"/><path class="cls-14" d="M17.18,4.9a1.62,1.62,0,0,1-.81.75,2.42,2.42,0,0,1-.29,1.11,2.73,2.73,0,0,1-.75.92l-.19.13a1.52,1.52,0,0,1-.59.22h0a2,2,0,0,1-2.12-1.5,5.86,5.86,0,0,1-.33-1.48,2.86,2.86,0,0,1,.09-1.35c.16-.12.8-.2,1.26-.43a3.18,3.18,0,0,0,.75-.59.44.44,0,0,1,.6-.06,3,3,0,0,1,.48.35,5.09,5.09,0,0,1,.91,1.52s.39-.87.58-.89S17.34,4.43,17.18,4.9Z"/><path class="cls-16" d="M17.18,4.9a1.62,1.62,0,0,1-.81.75,2.42,2.42,0,0,1-.29,1.11,2.73,2.73,0,0,1-.75.92l-.19.13a6.35,6.35,0,0,0,.71-2.45,5.62,5.62,0,0,0-1.06-2.74,3,3,0,0,1,.48.35,5.09,5.09,0,0,1,.91,1.52s.39-.87.58-.89S17.34,4.43,17.18,4.9Z"/><path class="cls-14" d="M7.25,13.36a2.94,2.94,0,0,1-.16.77,12.27,12.27,0,0,1-.65,1.59l-.13,0c-.39,0-1-.43-1.39-1.38A5.81,5.81,0,0,1,4.63,12l.08,0a3.45,3.45,0,0,0,1.15.29h.26a1.37,1.37,0,0,0,.73-.21,2.72,2.72,0,0,1,.39,1.09S7.25,13.31,7.25,13.36Z"/><path class="cls-16" d="M7.25,13.36a2.94,2.94,0,0,1-.16.77,4,4,0,0,0-1-1.79,1.37,1.37,0,0,0,.73-.21,2.72,2.72,0,0,1,.39,1.09S7.25,13.31,7.25,13.36Z"/><path class="cls-14" d="M22.67,18.61A7.79,7.79,0,0,1,20,19c0-.14,0-.43,0-.75-.05-.67-.13-1.5-.13-1.5s.34-.13.55-.16a4.93,4.93,0,0,1,1.39.43,2.92,2.92,0,0,1,1.06.81.49.49,0,0,1,.08.12C22.94,18.08,22.93,18.46,22.67,18.61Z"/><path class="cls-16" d="M22.67,18.61A7.79,7.79,0,0,1,20,19c0-.14,0-.43,0-.75a3.85,3.85,0,0,0,2,0,3.05,3.05,0,0,0,.87-.42.49.49,0,0,1,.08.12C22.94,18.08,22.93,18.46,22.67,18.61Z"/><path class="cls-12" d="M15.05,4.06a1.1,1.1,0,0,0-.9-.11c-.48.18-.36.39-.2.42S14.85,4.07,15.05,4.06Z"/><path class="cls-12" d="M13,4.54a.69.69,0,0,0-.9.29l0,.23a2.21,2.21,0,0,1,.59-.32C12.94,4.67,13.06,4.58,13,4.54Z"/><path class="cls-17" d="M12.55,8.68h0Z"/><path class="cls-17" d="M12.51,8.68h0Z"/><path class="cls-18" d="M12.51,8.68a.85.85,0,0,0-.62.33h0a1.23,1.23,0,0,1,.44-.3Z"/><path class="cls-18" d="M12.54,8.68h0Z"/><path class="cls-14" d="M22.92,17.82a.13.13,0,0,0,0-.08c0,.1,0,.17,0,.17A.41.41,0,0,0,22.92,17.82Z"/><path class="cls-19" d="M12.66,5.36c0,.16-.06.29-.14.29s-.13-.13-.13-.29.06-.3.13-.3S12.66,5.2,12.66,5.36Z"/><path class="cls-19" d="M14.07,5c0,.16-.06.29-.13.29S13.8,5.14,13.8,5s.06-.3.14-.3S14.07,4.82,14.07,5Z"/><path class="cls-20" d="M13.5,7a1.5,1.5,0,0,0,.67-.08,4.56,4.56,0,0,0,1-.53s-.28,1-.76,1.09S13.5,7,13.5,7Z"/><path class="cls-21" d="M12.88,6.65h0a0,0,0,0,1,0,0s.06-.28.12-.74a6.1,6.1,0,0,0,0-1.1,0,0,0,0,1,.06,0,6.17,6.17,0,0,1,0,1.11c0,.36-.09.61-.11.7s.49-.1.55-.28c0,0,0,0,0,0s0,0,0,0c-.09.26-.62.33-.64.33Z"/><path class="cls-21" d="M16.39,5.31h0a0,0,0,0,1,0,0,3.76,3.76,0,0,1,.37-1.11,0,0,0,1,1,.06,0,3.66,3.66,0,0,0-.37,1.1S16.41,5.31,16.39,5.31Z"/><path class="cls-21" d="M16.52,5h-.08s0,0,0,0a0,0,0,0,1,0,0s.12,0,.27-.08a.09.09,0,0,0,.06-.08c0-.09-.15-.2-.21-.23a0,0,0,0,1,0,0s0,0,0,0,.23.14.24.28a.16.16,0,0,1-.08.13A.47.47,0,0,1,16.52,5Z"/><path class="cls-22" d="M17.09,9.72v.14a2.29,2.29,0,0,1-1.62.61h0A2.08,2.08,0,0,1,14,10a.76.76,0,0,1,0-.15,1.82,1.82,0,0,0,1.53.56A2.07,2.07,0,0,0,17.09,9.72Z"/><path class="cls-22" d="M7.75,14.28a5.81,5.81,0,0,1-.44,1.42h-.1a6.13,6.13,0,0,0,.45-1.44,3.21,3.21,0,0,0-.08-1.35l.08-.06A3.29,3.29,0,0,1,7.75,14.28Z"/><path class="cls-22" d="M19.18,13.24a0,0,0,0,1,0,0,9.18,9.18,0,0,1,.5-2.46,0,0,0,0,1,.08,0,9.27,9.27,0,0,0-.49,2.41,0,0,0,0,1-.05.05Z"/><polygon class="cls-23" points="16.32 13.15 16.52 13.82 18.48 13.75 18.41 13.04 16.32 13.15"/><path class="cls-24" d="M17.89,15.18a.05.05,0,0,1-.05,0s0-.05,0-.05a1.74,1.74,0,0,0,1.23-1.39s0,0,0,0a0,0,0,0,1,0,0,1.83,1.83,0,0,1-1.29,1.47Z"/><path class="cls-24" d="M12.92,15.22h0A3.16,3.16,0,0,1,12,14.7a0,0,0,0,1,0-.06,0,0,0,0,1,.06,0,3.35,3.35,0,0,0,.84.49s0,0,0,0S12.94,15.22,12.92,15.22Z"/><path class="cls-22" d="M22.78,16.92a2.65,2.65,0,0,0-2.53-.65.24.24,0,0,0,0-.08,2.71,2.71,0,0,1,2.53.59A.59.59,0,0,0,22.78,16.92Z"/><path class="cls-25" d="M6.69,7.24s0,0,0,0c-.07-.35-.45-.93-.6-.93H6a.07.07,0,0,0,0,0,1.18,1.18,0,0,0,0,.6.08.08,0,0,1,0,0,.05.05,0,0,1,0,0,1.3,1.3,0,0,1,.06-.65A.15.15,0,0,1,6,6.21c.23,0,.63.67.69,1,0,0,0,0,0,0Z"/><path class="cls-26" d="M6.44,9.86a3.1,3.1,0,0,1-.6.76,15,15,0,0,1-2.13,1.49c-.44.24-.87.31-1,.06a1.11,1.11,0,0,1,0-.33,5.07,5.07,0,0,1,.34-1.33c.18-.39,0-.69.1-1.17s.31-.38.49-.43.21-.47.57-.77a9.78,9.78,0,0,0,1-.92,1.67,1.67,0,0,1,.46-.46.33.33,0,0,1,.17,0s.11.47.19.9a3.31,3.31,0,0,0,.36.94A9.22,9.22,0,0,1,6.44,9.86Z"/><path class="cls-27" d="M6.44,9.86a3.1,3.1,0,0,1-.6.76,15,15,0,0,1-2.13,1.49c-.44.24-.87.31-1,.06a1.11,1.11,0,0,1,0-.33,10.14,10.14,0,0,0,2.1-1.37,5.36,5.36,0,0,0,.76-2,11,11,0,0,1,.12-1.67.33.33,0,0,1,.17,0s.11.47.19.9a3.31,3.31,0,0,0,.36.94A9.22,9.22,0,0,1,6.44,9.86Z"/><path class="cls-23" d="M28.12,44.46l-.4.44a10,10,0,0,1-.92.92c-.52.43-.81.21-.81.21a14.69,14.69,0,0,0,.81-2.09l.13-.17.24-.3Z"/><path class="cls-28" d="M28.12,44.46l-.4.44-.79-1.13.24-.3Z"/><path class="cls-23" d="M13.54,45.62V46H10.85a1.62,1.62,0,0,1,1.29-.76,2.32,2.32,0,0,1,1.12.18A1.28,1.28,0,0,1,13.54,45.62Z"/><path class="cls-28" d="M13.54,45.62V46h-1l.71-.58A1.28,1.28,0,0,1,13.54,45.62Z"/><rect class="cls-29" x="24.31" width="0.85" height="45.74"/><rect class="cls-29" x="9.27" width="0.85" height="45.74"/><g class="cls-30"><rect class="cls-31" width="9.7" height="45.74"/></g><rect class="cls-32" x="9.91" y="0.14" width="23.51" height="45.74"/><path class="cls-33" d="M6.69,3.6s-1.29.71-1.35.53,0-.5-.49-.25a2.74,2.74,0,0,1-1.13.25c-.09,0-.09,1-.68,1.23s-.36-.49-.53-.26-.33,1-.42.8-.44.06-.5.43.12,1.08-.15.87-.62-.42-.76,0a8.83,8.83,0,0,0,.56,2.86c.23.79-.36,1.57-.33,1.92s.77,0,.71.31S.85,14,1.15,14.09s.29.24.53.33.59-.89.71-.6.12.89.34.81.57-.8.57-.5.12.83.62.61.62-.79.68-.65.3.58.89.19.75-.85,1-.67.6,0,.77-.6,0-1.56.29-1.44.38.14.64-.48-.67-1.46-.35-1.57.41-.3.79-.67.51-1.4.12-1.36-.82-.17-.56-.41.74-1.27.27-1.21-1-.31-.62-.65-.2-1.37-.29-1.07-.66.58-.72.22S7,3.75,6.69,3.6Z"/><path class="cls-23" d="M18.14,23.86a1.68,1.68,0,0,1-.79.7,3.5,3.5,0,0,1-.67.22,2,2,0,0,1-1.74-.38s-.47-2.92-.53-3.72A2.38,2.38,0,0,1,15,19.14s.14,0,.73-.06a3.43,3.43,0,0,0,.4-.06,2,2,0,0,0,.51-.17c.49.14.79.82,1,1.69A31.51,31.51,0,0,1,18.14,23.86Z"/><path class="cls-23" d="M16.64,18.85a5.07,5.07,0,0,1-1.64.29l-.06-2.74.25,0,.35-.05.47,1.1Z"/><polygon class="cls-34" points="16.01 17.41 15.61 17.43 15.19 16.36 15.54 16.31 16.01 17.41"/><polygon class="cls-35" points="17.61 15.9 17.61 16.26 16.41 16.19 14.12 16.5 14.05 16.27 13.86 15.58 16.41 14.58 17.61 15.9"/><path class="cls-34" d="M18.14,23.86a1.68,1.68,0,0,1-.79.7c-.05-.86-.16-2.25-.28-3.26A4.17,4.17,0,0,0,16.13,19a2,2,0,0,0,.51-.17c.49.14.79.82,1,1.69A31.51,31.51,0,0,1,18.14,23.86Z"/><path class="cls-5" d="M20,18.48c0,.21,0,.39,0,.48a.31.31,0,0,1,0,.09c-.42.29-2.92-.06-2.92-.06a3.8,3.8,0,0,1-1.77.31c-.33-.06-.48-.18-.53-.3a.4.4,0,0,1,0-.23.17.17,0,0,0,0-.05v0a.38.38,0,0,1-.3-.51s0-.05,0-.05h0s-.35-.05-.38-.35.27-.29.42-.32h.1l-.08-.05h0c-.14-.09-.42-.28-.31-.44s1.49-.17,1.49-.17a7.92,7.92,0,0,0,1.58.07c.74-.06,2.4-.15,2.4-.15C20,16.52,20,17.72,20,18.48Z"/><path class="cls-25" d="M15.61,17.43a0,0,0,0,1,0,0l-.47,0a3.82,3.82,0,0,1-.56,0h.09l-.08-.05a4.1,4.1,0,0,0,1,0S15.6,17.41,15.61,17.43Z"/><path class="cls-25" d="M15.41,18.15a0,0,0,0,1,0,0l-.48,0a2.26,2.26,0,0,1-.42,0s0-.05,0-.05a4.1,4.1,0,0,0,.88,0S15.41,18.13,15.41,18.15Z"/><path class="cls-25" d="M15.85,18.78l0,0h-.39a4.07,4.07,0,0,1-.69-.05.17.17,0,0,0,0-.05,5.46,5.46,0,0,0,1.05,0A0,0,0,0,1,15.85,18.78Z"/><path class="cls-6" d="M20,18.48c0,.21,0,.39,0,.48a.31.31,0,0,1,0,.09c-.42.29-2.92-.06-2.92-.06a3.8,3.8,0,0,1-1.77.31c-.33-.06-.48-.18-.53-.3a3.59,3.59,0,0,0,1.54-.18l1.08-.44A7.12,7.12,0,0,0,20,18.48Z"/><path class="cls-36" d="M17.61,16.15v.11l-1.2-.07-2.29.32-.07-.24,2.11-.56Z"/><path class="cls-37" d="M14.05,16.28l-.48,0-.05-.18L13.46,16a2.74,2.74,0,0,0,.46-.15L14,16Z"/><polygon class="cls-38" points="14.05 16.28 13.57 16.33 13.52 16.15 13.98 16.02 14.05 16.28"/><path class="cls-39" d="M14.89,16.4a10.26,10.26,0,0,1-1,1.14,1.08,1.08,0,0,1-.19.14c-.22.09-.22-.12,0-.36a4.81,4.81,0,0,0,.32-.43l.24-.4Z"/><path class="cls-40" d="M14.89,16.4a10.26,10.26,0,0,1-1,1.14,2.39,2.39,0,0,0,.13-.65l.24-.4Z"/><path class="cls-41" d="M15.08,19.83c-.24,0-.59.56-.33,2s.64,1,.66.84-.1-.68-.11-1.32S15.39,19.89,15.08,19.83Z"/></g></g></svg>