<svg xmlns="http://www.w3.org/2000/svg" viewBox="0 0 34.66 47.58"><defs><style>.cls-1{isolation:isolate;}.cls-2{fill:#887979;}.cls-3{fill:#786a69;}.cls-4{fill:#cdb9b9;}.cls-5{fill:#baa8a8;}.cls-6{fill:#988181;}.cls-7{fill:#877373;}.cls-8{fill:#403651;}.cls-9{fill:#9a706f;}.cls-10{fill:#272b6a;}.cls-11{fill:#2b91be;}.cls-12{fill:#1f89ae;}.cls-13{fill:#5b4e6c;}.cls-14{fill:#6a5e7c;}.cls-15{fill:#9a8382;}.cls-16{fill:#a89595;}.cls-17{fill:#4b415b;}.cls-18{fill:#867474;}.cls-19{fill:#a6ddeb;}.cls-20{fill:#66c8ce;}.cls-21{fill:#263b7f;}.cls-22{fill:#212a60;}.cls-23{fill:#f1b5ab;}.cls-24{fill:#f5948d;}.cls-25{fill:#d64e27;}.cls-26{fill:#e35933;}.cls-27{fill:#732d29;}.cls-28{fill:#983222;}.cls-29{fill:#1e1724;}.cls-30{fill:#cf3d28;}.cls-31{fill:#f79738;}.cls-32{fill:#e18726;}.cls-33,.cls-34{fill:none;stroke-miterlimit:10;stroke-width:0.75px;}.cls-33{stroke:#9a706f;}.cls-34{stroke:#725051;}.cls-35{fill:#52b9ca;}.cls-36{fill:#857490;mix-blend-mode:multiply;opacity:0.4;}.cls-37{fill:#c6e8f0;}.cls-38{fill:#9cd9e7;}.cls-39{fill:#36a5cc;}.cls-40{fill:#ffc40c;}.cls-41{fill:#45201f;}.cls-42{fill:#a6d6b4;}.cls-43{fill:#f7981d;}.cls-44{fill:#d68028;}.cls-45{fill:#83c392;}</style></defs><g class="cls-1"><g id="Capa_2" data-name="Capa 2"><g id="_ëîé_1" data-name="‘ëîé_1"><rect class="cls-2" x="2.22" y="7.41" width="17.78" height="1.09"/><rect class="cls-3" x="14.25" y="7.41" width="5.75" height="1.09"/><rect class="cls-4" x="6.58" width="9.51" height="4.83"/><polygon class="cls-5" points="16.1 0 16.1 4.83 14.07 4.83 13.39 0 16.1 0"/><polygon class="cls-6" points="19.76 7.41 2.22 7.41 4.69 4.83 17.6 4.83 19.76 7.41"/><rect class="cls-2" x="11.34" y="1.86" width="1" height="2.97"/><polygon class="cls-7" points="19.76 7.41 14.44 7.41 14.07 4.83 17.6 4.83 19.76 7.41"/><rect class="cls-4" x="21.08" width="13.16" height="10.97"/><polygon class="cls-5" points="34.24 0 34.24 10.97 30.38 10.97 31.96 0 34.24 0"/><path class="cls-8" d="M33.79,9.54h-.85l-.2-7.35h1ZM33,9.46h.69V2.27h-.89Z"/><path class="cls-9" d="M15,23.37h-6s.18-1,.72-1.12a11.87,11.87,0,0,1,1.55-.33,7.19,7.19,0,0,1,2.07,0c1.35.21,1.46.36,1.46.36Z"/><path class="cls-10" d="M15,23.37H13.32a14.09,14.09,0,0,0-2.11-1.45,7.19,7.19,0,0,1,2.07,0c1.35.21,1.46.36,1.46.36Z"/><path class="cls-11" d="M8.22,18.84s-.43,4.32-1,4.45a12.52,12.52,0,0,1-1.88.13,6.59,6.59,0,0,1-1.73-.13c-.48-.18-1-4.44-1-4.44H8.22Z"/><path class="cls-12" d="M8.22,18.84s-.43,4.32-1,4.45a12.52,12.52,0,0,1-1.88.13,14.26,14.26,0,0,0,2-4.58Z"/><rect class="cls-4" x="2.44" y="44.77" width="18.47" height="0.9"/><polygon class="cls-5" points="20.91 44.77 20.91 45.67 14.55 45.67 14.77 44.77 20.91 44.77"/><polygon class="cls-4" points="34.66 23.35 34.61 27.78 34.61 27.86 34.56 33.43 34.56 33.51 34.51 39.08 34.5 39.16 34.45 44.73 34.45 44.81 34.44 45.67 20.91 45.67 20.91 23.35 34.66 23.35"/><path class="cls-5" d="M34.66,23.35l0,4.43v.08l0,5.57v.08l-.05,5.57v.08l0,5.57v.94H27.55c.79-4,3.75-18.79,4.4-22.32Z"/><rect class="cls-8" x="20.91" y="27.78" width="13.71" height="0.08"/><rect class="cls-8" x="27.69" y="26.64" width="0.08" height="13.65" transform="translate(-6.22 60.61) rotate(-88.99)"/><rect class="cls-8" x="27.67" y="32.32" width="0.08" height="13.6" transform="translate(-11.89 66.13) rotate(-88.99)"/><rect class="cls-8" x="20.91" y="44.73" width="13.54" height="0.08"/><polygon class="cls-13" points="20.91 23.35 20.91 44.77 2.44 44.77 2.37 38.68 2.27 28.61 2.27 28.53 2.22 23.35 20.91 23.35"/><polygon class="cls-14" points="8.58 23.35 2.37 38.68 2.22 23.35 8.58 23.35"/><polygon class="cls-15" points="19.23 32.65 19.02 41.95 4.21 41.95 4.01 32.65 19.23 32.65"/><polygon class="cls-16" points="10.61 32.65 5.63 41.95 4.23 41.95 8.17 32.65 10.61 32.65"/><polygon class="cls-17" points="20.91 23.35 20.91 44.77 14.81 44.77 20.26 23.35 20.91 23.35"/><polygon class="cls-18" points="19.23 32.65 19.02 41.95 13.77 41.95 16.67 32.65 19.23 32.65"/><path class="cls-19" d="M30.53,27.52c-.19,1.48-.79,5.65-.79,5.65.36.57,1,1.89.73,4.84a37,37,0,0,1-1.57,6.91l-.16,0-.22.06s-.82-9.64-.91-10.59-.67-7.15-.67-7.15l-.09.12h0c-.32.4-1.34,1.71-2,2.76-.81,1.25-2.77,3.91-2.77,3.91a8.62,8.62,0,0,1,2.13,4.56c.32,1.74.64,6.62.64,6.62l-.06,0-.37-.2s-2-4.4-3-6.66S19.26,34.13,19.3,34s1.55-3.64,2-4.86,2.68-6,2.68-6a6.19,6.19,0,0,0,2.91.09,6.28,6.28,0,0,0,2.3-1,3.43,3.43,0,0,0,.85-.71C30.76,22.71,30.72,26,30.53,27.52Z"/><path class="cls-20" d="M30.53,27.52c-.19,1.48-.79,5.65-.79,5.65.36.57,1,1.89.73,4.84a37,37,0,0,1-1.57,6.91l-.16,0c.24-1.31,1.2-6.77,1.27-8.06a10.71,10.71,0,0,0-.55-3.33s.33-5.74.35-7.32a16.89,16.89,0,0,0-.6-4,3.43,3.43,0,0,0,.85-.71C30.76,22.71,30.72,26,30.53,27.52Z"/><path class="cls-20" d="M26.85,26.54v.85c-.32.4-1.34,1.71-2,2.76-.81,1.25-2.77,3.91-2.77,3.91a8.62,8.62,0,0,1,2.13,4.56c.32,1.74.64,6.62.64,6.62l-.06,0c-.13-1-.47-3.3-.73-4.57a16.18,16.18,0,0,0-1.55-4.85l-1.42-1.88s2-2.57,3.51-4.29A20.36,20.36,0,0,0,26.85,26.54Z"/><path class="cls-21" d="M34,16.87a2.69,2.69,0,0,0-.58,0,2.84,2.84,0,0,0-1.08.45L31.67,17h0c-.4-.24-1-.59-1.48-1-1-.73-1.92-1.47-1.92-1.47s-.05,1.95-.07,2.6a2.26,2.26,0,0,0,.66,1.73,5.87,5.87,0,0,1,1.2,2.68,3.42,3.42,0,0,1-.81.69,6.35,6.35,0,0,1-2.34,1A6.19,6.19,0,0,1,24,23.14c0-.74-.09-4.69-.11-5.05a.88.88,0,0,0-.06-.26,2.77,2.77,0,0,0-.35-.6h0l0,0h0a18.53,18.53,0,0,1-1.14,1.93,5.74,5.74,0,0,1-1.84,1.64,5.31,5.31,0,0,0,0-.8,2,2,0,0,0-.41-1.35s.55-1.38,1-2.54c.29-.77.62-1.79.94-2.73.17-.48.33-.93.49-1.33a2.09,2.09,0,0,1,.14-.3A1.2,1.2,0,0,1,24,11h0l.17.33c.11.16.22.27.32.26.26,0,.55-.57.66-1l0-.1.07,0a1.44,1.44,0,0,1,1.38-.26,6,6,0,0,1,1.11.37l.45.21c1.29.65,3.63,3.11,4.56,4.11l.09.1h0A6.23,6.23,0,0,1,34,16.87Z"/><path class="cls-22" d="M26.57,10.2a3.8,3.8,0,0,1-2.14,1.57,7.7,7.7,0,0,1-1.79,0A1.2,1.2,0,0,1,24,11h0l.17.33c.11.16.22.27.32.26.26,0,.55-.57.66-1l0-.1.07,0A1.44,1.44,0,0,1,26.57,10.2Z"/><path class="cls-22" d="M23.46,17.21a18.53,18.53,0,0,1-1.14,1.93,5.74,5.74,0,0,1-1.84,1.64,5.31,5.31,0,0,0,0-.8A6.49,6.49,0,0,0,22,18.54,8.62,8.62,0,0,0,23,16.75,2.34,2.34,0,0,0,23.46,17.21Z"/><path class="cls-22" d="M24,17.44l-.18.39a2.77,2.77,0,0,0-.35-.6A.93.93,0,0,0,24,17.44Z"/><path class="cls-22" d="M34,16.87a2.69,2.69,0,0,0-.58,0,14.73,14.73,0,0,0-.6-1.91A6.23,6.23,0,0,1,34,16.87Z"/><path class="cls-22" d="M28.2,17.15a2.26,2.26,0,0,0,.66,1.73,5.87,5.87,0,0,1,1.2,2.68,3.42,3.42,0,0,1-.81.69c-.36-1.12-.95-3-1.17-3.51a6.27,6.27,0,0,1-.4-1.82,2.29,2.29,0,0,1-1.7.14,5.65,5.65,0,0,0,1.34-.88c.48-.48.36-2.38.36-2.38s2.17,1.65,2.83,2.19c.43.34.85.7,1.16,1-.4-.24-1-.59-1.48-1-1-.73-1.92-1.47-1.92-1.47S28.22,16.5,28.2,17.15Z"/><path class="cls-23" d="M25.57,6.85c0,.52-.87.93-.87.93a2,2,0,0,1,0,.72c0,.06,0,.11,0,.17a2.87,2.87,0,0,1-.57,1.11h0a2,2,0,0,1-.38.39l0,0c-.37.27-.82.29-2,.18C20,10.23,20,9.32,20,8.73a9,9,0,0,0-.25-1.55A.56.56,0,0,0,20,7.1a10.09,10.09,0,0,0,1.06-.79,5,5,0,0,0,1.18-1.48,5.71,5.71,0,0,0,1.6,1.83l.1,0c.64.25.86-.49,1.07-.65S25.61,6.33,25.57,6.85Z"/><path class="cls-24" d="M25.57,6.85c0,.52-.87.93-.87.93a2,2,0,0,1,0,.72c0,.06,0,.11,0,.17a2.87,2.87,0,0,1-.57,1.11h0a6.54,6.54,0,0,0-.21-3.13l.1,0c.64.25.86-.49,1.07-.65S25.61,6.33,25.57,6.85Z"/><path class="cls-23" d="M25.2,10.32a1,1,0,0,1,0,.26c-.11.4-.4,1-.66,1-.1,0-.21-.1-.32-.26a4.68,4.68,0,0,1-.29-.55c-.09-.2-.17-.4-.23-.56a2.49,2.49,0,0,0,.39-.4,2.87,2.87,0,0,0,.57-1.11s0,0,0-.05l0-.12a.24.24,0,0,0,0,.08c.16.48.35,1.06.45,1.42A1.72,1.72,0,0,1,25.2,10.32Z"/><path class="cls-24" d="M25.13,10a5.19,5.19,0,0,1-1.24.74c-.09-.2-.17-.4-.23-.56a2.49,2.49,0,0,0,.39-.4,2.87,2.87,0,0,0,.57-1.11s0,0,0-.05l.05,0C24.84,9.06,25,9.64,25.13,10Z"/><path class="cls-23" d="M20.48,20.78c-.31.41-1.77,1.3-4.87,1.28l.18-.44c.16-.38.38-.91.52-1.16a10.17,10.17,0,0,0,1.84-.65,8,8,0,0,0,1.92-1.18c.06,0,.3.23.41.95a2,2,0,0,1,0,.33A3.46,3.46,0,0,1,20.48,20.78Z"/><path class="cls-24" d="M20.48,20.78c-.31.41-1.77,1.3-4.87,1.28l.18-.44a18.2,18.2,0,0,0,3-.56,6.07,6.07,0,0,0,1.71-1.15A3.46,3.46,0,0,1,20.48,20.78Z"/><path class="cls-23" d="M34.16,20.92,34,21a7.4,7.4,0,0,0-.94.31c-.06-.33-.21-1.18-.44-2a8.23,8.23,0,0,1-.28-1.92,3,3,0,0,1,1-.51,2.85,2.85,0,0,1,.57-.1C34.41,17.71,34.21,20.42,34.16,20.92Z"/><path class="cls-24" d="M34.16,20.92,34,21a14.05,14.05,0,0,0-.13-2.14,13.46,13.46,0,0,0-.49-2,2.85,2.85,0,0,1,.57-.1C34.41,17.71,34.21,20.42,34.16,20.92Z"/><path class="cls-25" d="M24.84,45.24a1.27,1.27,0,0,0-1.13-.47,1.83,1.83,0,0,0-1.21.9h2.34Z"/><polygon class="cls-25" points="28.09 45.67 29.81 45.67 28.9 44.92 28.52 44.92 28.09 45.67"/><path class="cls-26" d="M21.84,7c-.16,0-.16-.41.18-.57a1.25,1.25,0,0,1,.88.11,4.32,4.32,0,0,0-.66.15A1,1,0,0,0,21.84,7Z"/><path class="cls-26" d="M27.68,10.57c-1.09-.48-2-.61-2.49-.11l-.07,0a12.05,12.05,0,0,1-.5-1.81,2.47,2.47,0,0,0,.08-.89s.84-.41.87-.93-.35-.95-.57-.79-.43.9-1.07.65a5.26,5.26,0,0,1-1.7-1.88,5,5,0,0,1-1.18,1.48A10.09,10.09,0,0,1,20,7.1c-.44.17-.82.21-.93,0a.08.08,0,0,0,0,0,3.51,3.51,0,0,1,1-2.58C20.9,3.56,21.42,3,22.34,3s2.38,1.58,3.22,2.82c.17.25.31.48.43.68l.08.14a27,27,0,0,1,1.31,3.1Z"/><path class="cls-26" d="M24,11h0a1.26,1.26,0,0,0-.54,0h0c-.32.08-.68.34-1,1-.16.4-.32.85-.49,1.33l-.26-2-.11-.92c1.16.11,1.65.06,2-.21Z"/><path class="cls-19" d="M23.8,17.44h0a1,1,0,0,1-.69-.52c-.53-.94,0-2.71,0-2.79a.05.05,0,0,1,.05,0,.06.06,0,0,1,0,.06s-.57,1.81,0,2.72a1,1,0,0,0,.64.48,0,0,0,0,1,0,.05S23.82,17.44,23.8,17.44Z"/><path class="cls-19" d="M26.82,16.92a0,0,0,0,1,0,0s0,0,0-.05a1.84,1.84,0,0,0,1-1.5,0,0,0,0,1,.08,0,1.89,1.89,0,0,1-1.11,1.58Z"/><path class="cls-19" d="M28.36,14.67h0a4,4,0,0,1-1-1.67.05.05,0,0,1,0-.05s0,0,0,0a4,4,0,0,0,1,1.63s0,0,0,.05Z"/><path class="cls-27" d="M27,27.69a0,0,0,0,1-.05-.05l-.3-2.49a.06.06,0,0,1,.05-.06s.05,0,.05,0l.3,2.5a.06.06,0,0,1-.05.06Z"/><path class="cls-28" d="M25,6.59a1,1,0,0,1,.13-.25,0,0,0,0,0,0,0h0a1.54,1.54,0,0,0-.24.67h0a1.94,1.94,0,0,0,0,.24,0,0,0,0,0,0,0s0,0,0,0a1.49,1.49,0,0,1,0-.21h0c.07,0,.26,0,.31-.13S25.08,6.63,25,6.59Zm.16.26c0,.08-.17.1-.26.1A2,2,0,0,1,25,6.64C25.05,6.68,25.21,6.76,25.17,6.85Z"/><path class="cls-28" d="M21.48,9.35a.32.32,0,0,1-.17,0s0,0,0,0a7.67,7.67,0,0,0-.08-1.14A2.14,2.14,0,0,0,21,7.45a0,0,0,0,1,0,0s0,0,0,0a2.29,2.29,0,0,1,.2.7,9.46,9.46,0,0,1,.07,1.13.28.28,0,0,0,.2,0,.54.54,0,0,0,.3-.35s0,0,0,0a0,0,0,0,1,0,0,.59.59,0,0,1-.34.38Z"/><path class="cls-28" d="M22.35,9.69s0,0,0,0,0,0,0,0a1.3,1.3,0,0,0,.82-.53,0,0,0,0,1,0,0,0,0,0,0,1,0,0,1.31,1.31,0,0,1-.86.56Z"/><path class="cls-29" d="M20.8,8.11c.08.19.05.38-.05.41s-.23-.08-.3-.28-.05-.38.05-.41S20.73,7.92,20.8,8.11Z"/><path class="cls-29" d="M22.34,7.54c.07.19.05.37,0,.41s-.24-.09-.31-.29,0-.37.05-.41S22.27,7.34,22.34,7.54Z"/><path class="cls-26" d="M20.94,7.41a1.14,1.14,0,0,0-.77,0c-.23.1-.24.37-.1.43s.15,0,.35-.16A1.63,1.63,0,0,1,20.94,7.41Z"/><path class="cls-30" d="M23.66,10.18,24,11h0a1.26,1.26,0,0,0-.54,0h0a7.06,7.06,0,0,0-1.71.33l-.11-.92C22.8,10.5,23.29,10.45,23.66,10.18Z"/><path class="cls-30" d="M27.68,10.57c-1.09-.48-2-.61-2.49-.11l-.07,0a12.05,12.05,0,0,1-.5-1.81,2.47,2.47,0,0,0,.08-.89s.84-.41.87-.93-.35-.95-.57-.79-.43.9-1.07.65a5.26,5.26,0,0,1-1.7-1.88,5,5,0,0,1-1.18,1.48A10.09,10.09,0,0,1,20,7.1c-.44.17-.82.21-.93,0a.08.08,0,0,0,0,0,5.78,5.78,0,0,0,2-1.17,4.22,4.22,0,0,0,1.18-1.56S23.44,6.51,24.7,6a2.88,2.88,0,0,1,.86-.22c.17.25.31.48.43.68a3.41,3.41,0,0,0,.3,2.38,4.7,4.7,0,0,0,1.09.86Z"/><path class="cls-31" d="M16,21.21a7.13,7.13,0,0,0-.34.88l-.15.48a6.24,6.24,0,0,1-1.32,0,3.64,3.64,0,0,1-1.52-.5s-.73.39-.84.25.22-.42.22-.42c-.17-.16-1.17.09-1.17.09s0,0,.11-.22l.14-.21a2.87,2.87,0,0,1,1.76-.84c.59,0,.85.16,1.25,0s2.07-1,2.25-.71A3.27,3.27,0,0,1,16,21.21Z"/><path class="cls-32" d="M15.67,22.09l-.15.48a6.24,6.24,0,0,1-1.32,0,3.64,3.64,0,0,1-1.52-.5s-.73.39-.84.25.22-.42.22-.42c-.17-.16-1.17.09-1.17.09s0,0,.11-.22a1.43,1.43,0,0,1,.61-.21H12.9a8.49,8.49,0,0,0,1.39.5A7,7,0,0,0,15.67,22.09Z"/><path class="cls-31" d="M34.39,22.44A4.3,4.3,0,0,1,34,23.55a3.63,3.63,0,0,1,0,1.36c-.09.27-.16.36-.21.36s-.06,0-.08-.09,0,.24-.34.42-.58.07-.64-.05h0s0,0,0,0,.14-1.08.11-1.13-.52.23-.66.18a.1.1,0,0,1,0-.05c0-.13.2-.49.43-.7a1.24,1.24,0,0,0,.34-.47s0-.39-.09-1-.09-.93-.09-.93l.35-.14a5.88,5.88,0,0,1,1.14-.34h0a1.36,1.36,0,0,1,.49,0A10.43,10.43,0,0,1,34.39,22.44Z"/><path class="cls-32" d="M34.39,22.44A4.3,4.3,0,0,1,34,23.55a3.63,3.63,0,0,1,0,1.36c-.09.27-.16.36-.21.36.06-.62,0-1.6,0-1.6a3.28,3.28,0,0,1,.17-.84,9.06,9.06,0,0,0,.21-1.92,1.36,1.36,0,0,1,.49,0A10.43,10.43,0,0,1,34.39,22.44Z"/><path class="cls-32" d="M33,24.31a4.17,4.17,0,0,1-.29,1.24s0,0,0,0,.14-1.08.11-1.13-.52.23-.66.18a.1.1,0,0,1,0-.05c.24-.2.57-.55.7-.52S33,24.31,33,24.31Z"/><rect class="cls-8" x="3.51" y="30.15" width="16.5" height="1.36"/><rect class="cls-33" x="3.51" y="25.01" width="1.45" height="1.53"/><rect class="cls-33" x="5.53" y="25.01" width="1.45" height="1.53"/><rect class="cls-33" x="15.38" y="25.01" width="1.45" height="1.53"/><rect class="cls-33" x="17.62" y="25.01" width="1.45" height="1.53"/><rect class="cls-33" x="8.32" y="25.14" width="5.93" height="1.4"/><polygon class="cls-34" points="19.02 41.95 4.21 41.95 4.01 32.65 19.23 32.65 19.02 41.95"/><path class="cls-35" d="M4.18,19.51a13,13,0,0,1-1.87-.1.1.1,0,0,1-.09-.12.11.11,0,0,1,.13-.09,16.92,16.92,0,0,0,2.12.09h0a.11.11,0,1,1,0,.22Z"/><path class="cls-35" d="M7.71,19.54a.11.11,0,0,1-.11-.1.1.1,0,0,1,.1-.11l.88-.1a.12.12,0,0,1,.12.1.11.11,0,0,1-.1.12l-.88.09Z"/><polygon class="cls-36" points="15.71 41.27 14.85 44.77 14.63 45.67 7.19 45.67 7.04 44.77 6.46 41.27 15.71 41.27"/><path class="cls-9" d="M20.91,28.54v.08H15.78l-13.51,0v-.08C4.63,28.54,17.86,28.55,20.91,28.54Z"/><path class="cls-37" d="M7.88,23.35a1,1,0,0,1,.27-1,.55.55,0,0,1,.79.13s0-.64.2-.68.4.36.4.36,0-1.07.65-1.2,1.27,1.07,1.27,1.07.16-.5.49-.5.41,1,.41,1,.29-.7.92-.45.18,1.31.18,1.31Z"/><path class="cls-37" d="M8.94,21.27c.44-.18,0-1-.36-.61S8.51,21.45,8.94,21.27Z"/><path class="cls-37" d="M10.44,20.27a.23.23,0,1,1,.46,0,.23.23,0,0,1-.46,0Z"/><path class="cls-38" d="M10.6,22.06a.47.47,0,1,1-.94,0,.47.47,0,0,1,.94,0Z"/><path class="cls-38" d="M11.57,22.74a.34.34,0,1,1-.33-.33A.33.33,0,0,1,11.57,22.74Z"/><path class="cls-39" d="M3.1,19.7H4s.13,2.77-.22,2.78S3.1,19.7,3.1,19.7Z"/><polygon class="cls-40" points="14.55 41.07 14.07 47 6.98 47 6.62 44.1 6.6 43.96 6.53 43.4 6.51 43.24 6.26 41.18 6.44 41.18 8.54 41.15 8.65 41.15 13.38 41.09 14.55 41.07"/><path class="cls-41" d="M8.92,47h-.1c-.08-1.59-.23-4.54-.28-5.85h.11C8.7,42.42,8.84,45.3,8.92,47Z"/><path class="cls-42" d="M6.05,45.22l-.52,1.91-1.95.16L0,47.58s.65-2,.65-2.13l4.42-.19Z"/><path class="cls-43" d="M14.55,41.07,14.08,47H10.92a44.7,44.7,0,0,0,2.46-5.91Z"/><path class="cls-43" d="M7.76,47H7l-.36-2.9,0-.14-.07-.56,0-.16-.25-2.06h.18C6.73,42.51,7.49,45.84,7.76,47Z"/><path class="cls-41" d="M6.61,44.1h0l-.35-.15s0,0,0,0,0,0,0,0l.26-.59a.05.05,0,0,1,.07,0,.05.05,0,0,1,0,.07l-.24.54.26.12,1.69-2.75a.06.06,0,0,1,.07,0,.06.06,0,0,1,0,.08L6.66,44.07A.05.05,0,0,1,6.61,44.1Z"/><path class="cls-43" d="M14.55,41.09a.17.17,0,0,1-.17.16h-8a.17.17,0,0,1-.17-.17.16.16,0,0,1,.17-.16l5.9,0h2.14A.18.18,0,0,1,14.55,41.09Z"/><path class="cls-44" d="M14.55,41.09a.17.17,0,0,1-.17.16H12.15l.09-.34h2.14A.18.18,0,0,1,14.55,41.09Z"/><polygon class="cls-45" points="6.05 45.22 5.53 47.13 3.58 47.29 5.07 45.26 6.05 45.22"/><polygon class="cls-36" points="4.47 44.95 6.26 44.92 6.26 45.67 2.44 45.67 2.44 45.13 3.58 44.95 3.6 44.77 5.8 23.35 6.56 23.35 4.49 44.77 4.47 44.95"/><polygon class="cls-21" points="7.42 14.67 5.33 31.21 3.51 45.67 2.83 45.67 4.61 31.6 6.76 14.67 7.42 14.67"/><polygon class="cls-22" points="5.33 31.21 3.51 45.67 2.83 45.67 4.61 31.6 5.33 31.21"/><path class="cls-37" d="M8.38,39.68a.53.53,0,0,1-.53.53.52.52,0,0,1-.52-.53.52.52,0,0,1,.52-.52A.52.52,0,0,1,8.38,39.68Z"/><path class="cls-37" d="M12.62,38.34a.82.82,0,1,1-.82-.81A.82.82,0,0,1,12.62,38.34Z"/><path class="cls-37" d="M10.3,40.21a.32.32,0,0,1-.32.33.33.33,0,0,1,0-.65A.32.32,0,0,1,10.3,40.21Z"/><path class="cls-37" d="M7.76,40.93s.1-.48.46-.5a1.22,1.22,0,0,1,.72.25.88.88,0,0,1,.55-.25c.27,0,.32.49.32.49s1.07-.77,1.86,0Z"/></g></g></g></svg>