<svg xmlns="http://www.w3.org/2000/svg" viewBox="0 0 36.49 48.04"><defs><style>.cls-1{fill:#f79738;}.cls-2{fill:#4b1532;}.cls-3{fill:#d64e27;}.cls-4{fill:#2b91be;}.cls-5{fill:#983f40;}.cls-6{fill:#e69143;}.cls-7{fill:#d17d35;}.cls-8{fill:#0c2420;}.cls-9{fill:#109a70;}.cls-10{fill:#062f29;}.cls-11{fill:#026e61;}.cls-12{fill:#081714;}.cls-13{fill:#782829;}.cls-14{fill:#f17071;}.cls-15{fill:#2d9d7d;}.cls-16{fill:#66bc84;}.cls-17{fill:#06332c;}.cls-18{fill:#88c770;}.cls-19{fill:#e1ab25;}.cls-20{fill:#044738;}.cls-21{fill:#e55b62;}.cls-22{fill:#cc912a;}.cls-23{fill:#61b9da;}.cls-24{fill:#3483aa;}.cls-25{fill:#272b6a;}.cls-26{fill:#1e1f53;}.cls-27{fill:#a6ddeb;}.cls-28{fill:#66c8ce;}.cls-29{fill:#f1b5ab;}.cls-30{fill:#f5948d;}.cls-31{fill:#321312;}.cls-32{fill:#9d4236;}.cls-33{fill:#5b1436;}.cls-34{fill:#2e58a6;}.cls-35{fill:#f5a42a;}.cls-36,.cls-38{fill:#e67325;}.cls-36{opacity:0.8;}.cls-37{fill:#f5c91d;}.cls-39{fill:#ffdcb4;}.cls-40{fill:#1c4689;}.cls-41{fill:#3a1126;}</style></defs><g id="Capa_2" data-name="Capa 2"><g id="_ëîé_1" data-name="‘ëîé_1"><polygon class="cls-1" points="35.17 6.19 35.01 14.33 29.42 14.33 29.12 7.41 29.12 6.52 33.39 6.29 33.45 6.29 35.17 6.19"/><path class="cls-2" d="M34.73,14h-.82l0,0V7.22a0,0,0,0,1,0,0h.82a0,0,0,0,1,0,0v6.71A0,0,0,0,1,34.73,14ZM34,13.9h.75V7.25H34Z"/><path class="cls-2" d="M33.51,7.31a0,0,0,0,1,0,0h0a0,0,0,0,1,0,0l0-1h.06Z"/><polygon class="cls-3" points="33.6 14.33 28.3 14.33 28.1 7.45 29.68 7.39 31.49 7.31 31.55 7.3 33.47 7.22 33.6 14.33"/><path class="cls-2" d="M33.14,14.09h-1a0,0,0,0,1,0,0V8a0,0,0,0,1,0,0H33a0,0,0,0,1,0,0l.17,6.05h0A0,0,0,0,1,33.14,14.09Zm-1-.06h.92l-.16-6h-.76Z"/><rect class="cls-2" x="31.49" y="7.31" width="0.06" height="7.02"/><polygon class="cls-4" points="35.16 6.82 36.22 6.82 36.22 14.33 35.01 14.33 35.16 6.82"/><path class="cls-2" d="M36,14.12h-.71s0,0,0,0l.08-6.64a0,0,0,0,1,0,0H36a0,0,0,0,1,0,0v6.64A0,0,0,0,1,36,14.12Zm-.66-.06H36V7.48H35.4Z"/><polygon class="cls-5" points="30.89 14.33 28.3 14.33 28.1 7.45 29.68 7.39 30.89 14.33"/><rect class="cls-6" y="14.33" width="36.49" height="1.45"/><polygon class="cls-7" points="35.56 15.77 15.34 15.77 15.9 14.33 35.31 14.33 35.56 15.77"/><path class="cls-8" d="M16.12,11.84a3.56,3.56,0,0,1-.92,2.49l-.84,0a21.46,21.46,0,0,1-2.82,0c-.92-.15-1.13-2.59-1.13-2.59l2.21,0Z"/><path class="cls-9" d="M11.22,11.76l-.39,0h-.1l-.31,0s-1.06-1.76-.89-2.65S10.68,10.13,11.22,11.76Z"/><path class="cls-10" d="M10.83,11.78h-.1a18.92,18.92,0,0,0-.92-2.07.05.05,0,0,1,0-.07,0,0,0,0,1,.06,0A22.45,22.45,0,0,1,10.83,11.78Z"/><path class="cls-11" d="M12.41,11.81l-.59,0h-.09l-.51,0a12.9,12.9,0,0,1,.76-4c.7-1.61.95-2,1.28-1.89S12.41,11.81,12.41,11.81Z"/><path class="cls-10" d="M12.93,6.7a19.82,19.82,0,0,0-1.07,4.79c0,.13,0,.22,0,.29h-.09c0-.08,0-.19,0-.3a19.26,19.26,0,0,1,1.08-4.82,0,0,0,0,1,.08,0Z"/><path class="cls-9" d="M14.48,9.16h0a.37.37,0,0,0,0,.11v.07a22.6,22.6,0,0,1-.34,2.46H13s.15-2.43.33-3.64S13.77,6,14.18,6,14.57,7.83,14.48,9.16Z"/><path class="cls-10" d="M14.09,6.87c0,1-.37,4.15-.46,4.93h-.1c.08-.73.42-3.88.46-4.94a.07.07,0,0,1,0,0A0,0,0,0,1,14.09,6.87Z"/><path class="cls-11" d="M15.67,9.1c-.06.34-.12.66-.18.92-.14.59-.29,1.07-.39,1.39s-.15.41-.15.41h-.61s.07-1.26.13-2.51v0a.37.37,0,0,1,0-.11h0c.12-1.22,1-2.62,1.31-2.55S15.85,8,15.67,9.1Z"/><path class="cls-10" d="M15.76,6.89A11,11,0,0,0,15,9.54c-.09.77-.27,1.91-.34,2.28h-.09c.06-.36.24-1.51.33-2.29a11.09,11.09,0,0,1,.78-2.69,0,0,0,0,1,.07,0A0,0,0,0,1,15.76,6.89Z"/><path class="cls-9" d="M16.3,10.06a6.36,6.36,0,0,1-.61,1.78h-.58s0-.16,0-.41a5.32,5.32,0,0,1,.27-1.78,2.17,2.17,0,0,1,.3-.53c.52-.72,1.4-1.27,1.52-1.16S16.53,9,16.3,10.06Z"/><path class="cls-10" d="M17,8.23a5.39,5.39,0,0,0-1.17,1.45c-.11.35-.26,1.11-.38,1.66-.05.25-.08.4-.11.49h-.09c0-.12.07-.31.11-.51.11-.56.27-1.31.38-1.66A5.09,5.09,0,0,1,17,8.16a0,0,0,0,1,.07,0S17.05,8.21,17,8.23Z"/><path class="cls-12" d="M16.12,11.84a3.56,3.56,0,0,1-.92,2.49l-.84,0a21.25,21.25,0,0,0-1.74-2.58Z"/><path class="cls-13" d="M5.1,11.87h0l-.4.08-.08,0-.34,0-.21,0-.38,0H2.71L2,12H1.93l-.4,0h0c-.38-.05-.62-.1-.62-.1a4.5,4.5,0,0,1,.6-.13h0L2,11.67h.14c.25,0,.54,0,.86,0h.07l.49,0,.48,0,.23,0,.39.06h.07l.37.07Z"/><path class="cls-14" d="M4.81,13.88c-.22.4-.78.55-1.46.57a8,8,0,0,1-1.43-.11c-1.24-.19-1-2.47-1-2.47a11.58,11.58,0,0,0,3.1.19,5.91,5.91,0,0,0,1.08-.19A4.69,4.69,0,0,1,4.81,13.88Z"/><path class="cls-15" d="M1.53,12h0l-.33-.05H1.12l-.22,0c-.16-.33-.48-1-.62-1.36A3,3,0,0,1,.19,9.28s.49.13.91,1a3.91,3.91,0,0,1,.38,1.2h0c0,.11,0,.21,0,.29S1.53,12,1.53,12Z"/><path class="cls-16" d="M2.48,10.12h0c0,.1,0,.2,0,.29a12.67,12.67,0,0,1-.31,1.25C2.07,11.82,2,12,2,12H1.93l-.18,0H1.68l-.15,0h0c0-.06,0-.14,0-.23s0-.19,0-.3h0a7.24,7.24,0,0,1,.05-1.22c.14-.83.91-1.76,1.05-1.7S2.61,9.34,2.48,10.12Z"/><path class="cls-15" d="M3.77,9.7s0,.09,0,.14-.13.37-.19.56-.11.32-.18.49h0c-.12.27-.25.53-.37.74a5.23,5.23,0,0,1-.27.45l-.4,0H2.24L2,12H1.93c0-.1,0-.22.05-.35a9.9,9.9,0,0,1,.5-1.55h0a6.09,6.09,0,0,1,.45-.92L3.06,9a2.11,2.11,0,0,1,.52-.49l0,0c.17-.09.31-.09.37,0S4,9.14,3.77,9.7Z"/><path class="cls-16" d="M4.25,11.72a.91.91,0,0,1,0,.17h0V12h0l-.21,0H3.86l-.21,0c0-.1-.07-.24-.11-.43s-.13-.47-.19-.76h0c-.06-.27-.12-.56-.17-.85l0-.22h0s0-.07,0-.11c0-.23,0-.47-.07-.7,0-.78,0-1.44.35-1.49s.68.67.79,1.66c0,.19,0,.39,0,.59C4.26,10.54,4.25,11.27,4.25,11.72Z"/><path class="cls-15" d="M5,10.31a9.61,9.61,0,0,1-.15,1.06q0,.24-.09.42c0,.06,0,.12,0,.17l-.08,0L4.3,12H4.24l-.21,0c0-.09,0-.21,0-.36s0-.69,0-1.28A6.66,6.66,0,0,1,4.2,9.18c.17-.78.45-1.16.61-1.11S5,9.14,5,10.31Z"/><path class="cls-16" d="M6.11,10.59a16.13,16.13,0,0,1-1,1.27l0,0-.23,0-.08,0H4.66l-.08,0,.06-.2c.05-.14.11-.28.16-.41A4,4,0,0,1,6.28,9.43C6.51,9.45,6.55,9.94,6.11,10.59Z"/><path class="cls-17" d="M7.1,12A.08.08,0,0,1,7,11.94s-.24-2.14-.4-3.11a.08.08,0,0,1,.06-.08.07.07,0,0,1,.07.06c.15,1,.4,3.09.4,3.11s0,.07-.06.07Z"/><path class="cls-17" d="M6.19,12a.06.06,0,0,1-.06,0s-.43-1.38-.64-2a.07.07,0,0,1,0-.08.06.06,0,0,1,.08,0c.21.57.63,1.94.64,1.95a.06.06,0,0,1,0,.08Z"/><path class="cls-17" d="M7.8,12h0s-.06,0,0-.07a20.33,20.33,0,0,1,.44-2.64.06.06,0,0,1,.08,0,.06.06,0,0,1,0,.08,22,22,0,0,0-.44,2.62A.06.06,0,0,1,7.8,12Z"/><path class="cls-18" d="M6.72,9s.59-1.55.38-1.7-.4.79-.4.79-.28-1.21-.51-1.24.17,1.36.17,1.36-.53-.53-.7-.35S6.72,9,6.72,9Z"/><path class="cls-18" d="M5.64,10.31s.44-1.53.23-1.6-.42.86-.43.8A11.73,11.73,0,0,0,5.34,8c-.09-.27-.29-.18-.24.44a4.39,4.39,0,0,0,.24,1.11S5,9,4.81,9.28,5.64,10.31,5.64,10.31Z"/><path class="cls-18" d="M7,11.26c0,.05-.6-1.1-.83-.89s.91,1.4.91,1.4.86-1.12.81-1.43S7.39,10.13,7,11.26Z"/><path class="cls-18" d="M5.93,9c-.16.21.67,1.19,1,1.43a4.47,4.47,0,0,0,.5-1c.11-.45.2-.93,0-.92s-.58,1.34-.58,1.34S6.1,8.8,5.93,9Z"/><path class="cls-18" d="M6.3,12.05s.41-1.22.15-1.24-.4.72-.4.72-.68-.34-.71,0S6.3,12.05,6.3,12.05Z"/><path class="cls-18" d="M7.84,11.53s.93-.35.86-.49-.86.15-.86.15-.29-.95-.59-.75S7.84,11.53,7.84,11.53Z"/><path class="cls-18" d="M8.12,9.82s1-.29.88-.77-.7.45-.7.45.48-1.08.17-1.17-.33,1.1-.33,1.1-.26-.62-.5-.46S8.12,9.82,8.12,9.82Z"/><path class="cls-19" d="M9.49,13.54c-.15.55-.37.82-1.36.9H7.89c-1.2.06-1.79-.13-2-.46a8.48,8.48,0,0,1-.33-2l3-.08,1,0A7.39,7.39,0,0,1,9.49,13.54Z"/><path class="cls-20" d="M1.19,11.92H1.12a8.8,8.8,0,0,0-.73-2.1s0,0,0,0,0,0,0,0A9,9,0,0,1,1.19,11.92Z"/><path class="cls-20" d="M2.41,9a9.08,9.08,0,0,0-.66,3H1.68a9.08,9.08,0,0,1,.68-3,0,0,0,0,1,0,0S2.42,9,2.41,9Z"/><path class="cls-20" d="M3.32,9.51a3.07,3.07,0,0,0-.17.31,12.63,12.63,0,0,0-.84,2.24H2.24a13,13,0,0,1,.89-2.34l.14-.24s0,0,0,0S3.33,9.49,3.32,9.51Z"/><path class="cls-20" d="M3.93,12.06H3.86c0-.38-.06-1.31-.14-2.22h0c0-.47-.09-.94-.14-1.32,0-.17-.05-.32-.08-.45s0,0,0,0a0,0,0,0,1,0,0,3.51,3.51,0,0,1,.07.43c.05.34.1.76.14,1.21h0C3.85,10.63,3.91,11.63,3.93,12.06Z"/><path class="cls-20" d="M4.74,8.71a14.1,14.1,0,0,0-.43,3.15c0,.06,0,.11,0,.16H4.24v-.14h0v0a14.55,14.55,0,0,1,.43-3.18,0,0,0,0,1,0,0S4.75,8.69,4.74,8.71Z"/><path class="cls-20" d="M6.11,10a8.83,8.83,0,0,0-1.28,2l-.08,0a1.39,1.39,0,0,1,.06-.13c.07-.14.19-.35.33-.6a7.06,7.06,0,0,1,.93-1.3h0S6.13,10,6.11,10Z"/><path class="cls-21" d="M4.81,13.88c-.22.4-.78.55-1.46.57A9.08,9.08,0,0,0,4,12.06a5.91,5.91,0,0,0,1.08-.19A4.69,4.69,0,0,1,4.81,13.88Z"/><path class="cls-22" d="M9.49,13.54c-.15.55-.37.82-1.36.9a6.41,6.41,0,0,0,.45-2.55l1,0A7.39,7.39,0,0,1,9.49,13.54Z"/><path class="cls-23" d="M5.74,1.82a1.55,1.55,0,0,0-.31.85l-.33,0-1.63.1A18.41,18.41,0,0,1,5.18,1.07,4.72,4.72,0,0,1,5.65.7,8.19,8.19,0,0,0,5.74,1.82Z"/><path class="cls-24" d="M5.74,1.82a1.55,1.55,0,0,0-.31.85l-.33,0,.08-1.62A4.72,4.72,0,0,1,5.65.7,8.19,8.19,0,0,0,5.74,1.82Z"/><path class="cls-25" d="M30,44.74c0,.11-.14,1-.14,1a59,59,0,0,0-4.52-6.66,13.29,13.29,0,0,1-3.11-6.24c-.47-2-1.24-6.8-1.24-6.8l-.27.2-1,10.38c.57.78.82,2.52.42,4.75a43.8,43.8,0,0,1-1.85,6l-.13,0-.33-.09s-.27-4.81-.36-6.81-.54-7.35-.58-10.31c0-2.2.11-5.6.18-7.23v-.1c0-.5,0-.82,0-.83l.53.05,7.22.68,0,2.47s0,.43.11,1.11c0,.47.08,1.07.12,1.73.08,1.64-.3,5.94-.3,5.94a8.17,8.17,0,0,1,3.47,3.53,14.94,14.94,0,0,1,.74,2.11A39.42,39.42,0,0,1,30,44.74Z"/><path class="cls-26" d="M30,44.74c0,.11-.14,1-.14,1a59,59,0,0,0-4.52-6.66,13.29,13.29,0,0,1-3.11-6.24c-.47-2-1.24-6.8-1.24-6.8l-.27.2-1,10.38c.57.78.82,2.52.42,4.75a43.8,43.8,0,0,1-1.85,6l-.13,0c.28-1.49,1-5.15,1.37-6.81a7,7,0,0,0-.22-3.91s.12-2.39.22-5a37.08,37.08,0,0,0-.22-5.23,11.26,11.26,0,0,1-1-1.51,9.54,9.54,0,0,1-.15-1.93L17.58,22l7.22.68,0,2.47s0,.43.11,1.11a5.89,5.89,0,0,0-1.47,2.37c-.17,1.13-.07,5.1-.07,5.1a7.38,7.38,0,0,0,2.82,4.13A15.71,15.71,0,0,0,28.9,39.6,39.42,39.42,0,0,1,30,44.74Z"/><path class="cls-27" d="M22.94,8.08l-.35,0a3.45,3.45,0,0,0-.54,0,17.16,17.16,0,0,0-3,.61,4.38,4.38,0,0,1,.56-.84,4.23,4.23,0,0,1,2.11-.54,2.63,2.63,0,0,1,.41,0A2.78,2.78,0,0,1,22.94,8.08Z"/><path class="cls-28" d="M22.94,8.08l-.35,0a3.45,3.45,0,0,0-.54,0,1.25,1.25,0,0,0-.29-.77,2.63,2.63,0,0,1,.41,0A2.78,2.78,0,0,1,22.94,8.08Z"/><path class="cls-27" d="M26,10.63l-.42-.08h0l-.76-.13-.67-.07h0a6.2,6.2,0,0,0-2.61.25,1.92,1.92,0,0,0-.67.39l-.16.17a2.1,2.1,0,0,0-.15.22.56.56,0,0,0-.05.08l0,.09-.05.1,0,.07-.05.12s0,0,0,.05a.14.14,0,0,0,0,.06v0s0,.1-.05.14a.44.44,0,0,0,0,.1c0,.1-.05.2-.08.31s0,.12,0,.19c-.32,1.8-1.05,8.82-1.05,8.82l.21.09-.21.35s.6-.2,0,.08a4.17,4.17,0,0,1-2,0,11.89,11.89,0,0,1-.15-2.58c0-2.23,0-5.88,0-5.88a33.7,33.7,0,0,1-5-2.38A7.69,7.69,0,0,1,9.61,9.3,3.74,3.74,0,0,0,10.79,9l.08-.05A5.07,5.07,0,0,0,12,8a5.8,5.8,0,0,0,1.7.57c1.25.27,3.3.84,3.3.84l.3-.13a13.31,13.31,0,0,1,1.31-.47l.5-.16a13.17,13.17,0,0,1,3.5-.63l.35,0,.44.07a6.9,6.9,0,0,1,1.19.37,2.7,2.7,0,0,1,.92.57,2.86,2.86,0,0,1,.39.93A2.28,2.28,0,0,1,26,10.63Z"/><path class="cls-28" d="M17.06,12.49A19.31,19.31,0,0,0,20.29,12v0s0,.1-.05.14a.44.44,0,0,0,0,.1c0,.1-.05.2-.08.31s0,.12,0,.19c-.32,1.8-1.05,8.82-1.05,8.82l.21.09-.21.35s.6-.2,0,.08a4.17,4.17,0,0,1-2,0,11.89,11.89,0,0,1-.15-2.58c0-2.23,0-5.88,0-5.88a33.7,33.7,0,0,1-5-2.38A7.69,7.69,0,0,1,9.61,9.3,3.74,3.74,0,0,0,10.79,9,10.34,10.34,0,0,0,12,10.13C12.6,10.6,15.1,12.4,17.06,12.49Z"/><path class="cls-28" d="M26,10.63l-.42-.08h0l-.76-.13,1.07-.4A2.28,2.28,0,0,1,26,10.63Z"/><path class="cls-29" d="M22.16,6.73l-.22.6a4.28,4.28,0,0,0-2.29.52l-.21-1.22c-.78.69-1.19.32-1.31-.35a2.64,2.64,0,0,1,0-.8,11.89,11.89,0,0,1,.61-3.66h0s0,.09,0,.12a12.93,12.93,0,0,0,.08,1.42,2.25,2.25,0,0,0,.2.79c.17-.47.61-.69.91-.52s.29,1.12.3,1.55c0,.13,0,.21,0,.21a1.37,1.37,0,0,0,.44.71l.19.17a1.27,1.27,0,0,0,.4.21h0A3,3,0,0,0,22.16,6.73Z"/><path class="cls-30" d="M22.16,6.73l-.22.6a4.28,4.28,0,0,0-2.29.52l-.21-1.22c-.78.69-1.19.32-1.31-.35a1.89,1.89,0,0,0,2.08-1.09c0,.13,0,.21,0,.21a1.37,1.37,0,0,0,.44.71l.19.17a1.27,1.27,0,0,0,.4.21h0A3,3,0,0,0,22.16,6.73Z"/><path class="cls-31" d="M19.52,26.36s0,0,0,0,0,0,0-.06l2.4-.74a.05.05,0,0,1,.06,0,0,0,0,0,1,0,.05l-2.4.74Z"/><path class="cls-31" d="M19.06,23a3.74,3.74,0,0,1-.77.07A7.3,7.3,0,0,1,17,22.91v-.1a5.16,5.16,0,0,0,2,.06,0,0,0,0,1,.05,0S19.08,23,19.06,23Z"/><polygon class="cls-32" points="21.25 6.49 21.25 6.49 21.25 6.49 21.25 6.49"/><path class="cls-32" d="M21.25,6.49a2.74,2.74,0,0,0,.91.24v0A3.79,3.79,0,0,1,21.25,6.49Z"/><path class="cls-33" d="M24.13,3.72a1.84,1.84,0,0,1-.34.6,11.64,11.64,0,0,0-1.28,1.79c-.07.17,0,.59-.11.61a.78.78,0,0,1-.24,0v0a3.79,3.79,0,0,1-.92-.21h0a1.77,1.77,0,0,1-.59-.38,2,2,0,0,1-.44-.71s0-1.59-.31-1.76-.74,0-.91.52a2.25,2.25,0,0,1-.2-.79c-.05-.36-.07-.83-.08-1.12V2s0-.07,0-.12a2.43,2.43,0,0,1,0-.85c.09-.29.57-.88,2.57-1s2.52.76,2.86,1.67A3,3,0,0,1,24.13,3.72Z"/><path class="cls-32" d="M20.66,6.11a2,2,0,0,1-.44-.71A1.37,1.37,0,0,0,20.66,6.11Z"/><path class="cls-34" d="M19.34,18.81l-.08,1L19.16,21l-.11,1.29a16.39,16.39,0,0,1-2.36-1.66c-.38-.46-.46-2.12.22-2.35S19.34,18.81,19.34,18.81Z"/><path class="cls-34" d="M25.58,10.55h0l-1.43-.2h0s-.48-1.58-.75-2.2a6.9,6.9,0,0,1,1.19.37C24.79,9,25.4,10.11,25.58,10.55Z"/><path class="cls-3" d="M18.28,47.3a2.36,2.36,0,0,0-1.45,0c-.75.25-.88.7-.88.7h2.4Z"/><path class="cls-3" d="M29.84,45.63s-.36,1.59-.46,1.76-.78.52-.78.61a2.27,2.27,0,0,0,1.24-.11,6.81,6.81,0,0,0,.9-1.43L29.93,45Z"/><path class="cls-23" d="M25.3,25.33c-.75.59-2.14.42-3.82.19l-.54-.1a8.17,8.17,0,0,1-2.4-.93s.51-1.83.51-1.91v.33a6.07,6.07,0,0,0,1.91.87,7.4,7.4,0,0,0,1.36.23c2,.12,2.94-.07,3.11-.26a1.86,1.86,0,0,0,.19-.38A1.55,1.55,0,0,1,25.3,25.33Z"/><path class="cls-35" d="M25.87,22.62s-.06.2-.14.44-.07.21-.11.31a1.86,1.86,0,0,1-.19.38c-.17.19-1.12.38-3.11.26a7.3,7.3,0,0,1-1.54-.28l-.33-.11-.09,0a5.45,5.45,0,0,1-1.31-.68V21.53l.21.09a11,11,0,0,0,1.42.52l.09,0a9.71,9.71,0,0,0,1.15.25,12.68,12.68,0,0,0,3.95.21Z"/><path class="cls-34" d="M20.85,11l-.16.17a2.1,2.1,0,0,0-.15.22.56.56,0,0,0-.05.08l0,.09-.05.1,0,.07-.05.12s0,0,0,.05l0,.08s0,.1-.05.14a.44.44,0,0,0,0,.1c0,.1-.05.2-.08.31s0,.12,0,.19c-.2-.43-1.27-2.7-2.82-3.39a13.31,13.31,0,0,1,1.31-.47A9.82,9.82,0,0,1,20.85,11Z"/><path class="cls-35" d="M28,14.59l0,.11c0,.09,0,.18,0,.27-.28,1.56-1.62,7.55-1.62,7.55l-.42.1A12.25,12.25,0,0,1,22,22.43l-.11,0h-.09l-.1,0a10.61,10.61,0,0,1-2.47-.76l-.21-.09s.73-7,1.05-8.82c0-.07,0-.14,0-.19v0l0-.1a2.89,2.89,0,0,1,.54-1.24l.06-.07a.6.6,0,0,1,.08-.08,1.92,1.92,0,0,1,.67-.39,4.75,4.75,0,0,1,1.07-.24h.12a6.77,6.77,0,0,1,.9,0,13.43,13.43,0,0,1,2.39.31l1,.21a1.15,1.15,0,0,1,.86.74l0,.09A6.32,6.32,0,0,1,28,14.59Z"/><path class="cls-36" d="M25.87,22.62s-.06.2-.14.44a5.87,5.87,0,0,1-1.35.18,10.33,10.33,0,0,1-3.26-.53l-.34,1-.33-.11-.09,0a5.45,5.45,0,0,1-1.31-.68V21.53l.21.09a11,11,0,0,0,1.42.52l.09,0a9.71,9.71,0,0,0,1.15.25,12.68,12.68,0,0,0,3.95.21Z"/><path class="cls-37" d="M3.18,2.81c.07,0,3-.19,3-.19v1.2L3.18,4Z"/><path class="cls-38" d="M22,22.43l-.11,0h-.09l-.1,0a10.61,10.61,0,0,1-2.47-.76l-.21-.09s.73-7,1.05-8.82c0-.07,0-.14,0-.19v0l0-.1a2.89,2.89,0,0,1,.54-1.24l.06-.07a.6.6,0,0,1,.08-.08,1.92,1.92,0,0,1,.67-.39,4.75,4.75,0,0,1,1.07-.24h.12a6.77,6.77,0,0,1,.9,0c-1.11,1.75-1.54,3.09-1.64,7.07C21.91,19.63,22,21.32,22,22.43Z"/><path class="cls-23" d="M23.48,10.94a.56.56,0,0,1-.8,0,1.65,1.65,0,0,0-1.46-.5,2.42,2.42,0,0,0-1.62,1.24c-.17.36-.37.91-.61,1.55a19.69,19.69,0,0,1-2.33,4.87,3.2,3.2,0,0,1-2.59,1.4,3.64,3.64,0,0,1-2.67-1,10.89,10.89,0,0,1-1.91-3.22h0a23.15,23.15,0,0,1-1.28-4C8.09,10.69,8,9.9,7.83,9a66.08,66.08,0,0,1-.72-7,.56.56,0,0,1,1.11.16c0,.44.51,6,1.1,8.85.12.55.25,1.09.4,1.61.7,2.47,1.7,4.45,2.35,4.92,1.9,1.4,3,.69,3.68-.15a18.62,18.62,0,0,0,2.18-4.58c.24-.67.45-1.25.65-1.66A3.56,3.56,0,0,1,21,9.33a2.62,2.62,0,0,1,1.65.24h0a3,3,0,0,1,.79.57A.57.57,0,0,1,23.48,10.94Z"/><path class="cls-39" d="M23.33,14.48l-1.5,7.92-.1,0,1.5-7.88a5.08,5.08,0,0,1-1.4-.58h0a5.91,5.91,0,0,1-1.67-1.43l0,0a0,0,0,0,1,0-.07s0,0,0,0h0A5.83,5.83,0,0,0,21.8,13.8l.09,0a5.62,5.62,0,0,0,1.41.57A0,0,0,0,1,23.33,14.48Z"/><path class="cls-37" d="M25.41,13.53a8.45,8.45,0,0,0,1.93.16L26,21.22H24.48Z"/><path class="cls-37" d="M24.67,11.74l-.19.63a11.3,11.3,0,0,0,3,0l-.17-.79A12.59,12.59,0,0,1,24.67,11.74Z"/><path class="cls-39" d="M20.77,22.16l-.32,1.46h0s0,0,0,0h0s0,0,0,0h0l.32-1.45Z"/><path class="cls-39" d="M22.71,10.35a6,6,0,0,0-.64,2s0,.07,0,.1c-.1.66-.15,1.22-.16,1.36v0a0,0,0,0,1,0,0h0a0,0,0,0,1,0,0V13.8a15.07,15.07,0,0,1,.3-2.07s0-.06,0-.09a5,5,0,0,1,.47-1.28h.12Z"/><path class="cls-39" d="M28,14.59l0,.11a4.56,4.56,0,0,1-1.06.11h-.14a0,0,0,0,1-.05-.05c0-.25,0-.9,0-1.54v-.09c0-.7,0-1.34,0-1.35a.07.07,0,0,1,0,0l1.12-.15,0,.09-1.1.15c0,.32,0,2.32,0,2.9A4.6,4.6,0,0,0,28,14.59Z"/><path class="cls-39" d="M26.75,13.23h0A16.61,16.61,0,0,1,22,12.46a0,0,0,0,1,0-.06,0,0,0,0,1,.06,0,16.5,16.5,0,0,0,4.72.75,0,0,0,0,1,.05,0A.05.05,0,0,1,26.75,13.23Z"/><path class="cls-39" d="M22.21,11.7a.05.05,0,0,1-.05,0H22.1a4,4,0,0,1-1.39-.59l.06-.07a4,4,0,0,0,1.35.57h.05S22.21,11.68,22.21,11.7Z"/><path class="cls-31" d="M19.05,8.74A0,0,0,0,1,19,8.69s0,0,0,0l.19-.05a24,24,0,0,1,2.47-.52s.05,0,.06,0,0,.05,0,.05a20.44,20.44,0,0,0-2.46.53Z"/><path class="cls-31" d="M19.44,6.68a0,0,0,0,1,0,0s0,0,0-.06l0,0c.2-.15.72-.57.63-.79a0,0,0,0,1,0-.06.06.06,0,0,1,.07,0c.12.29-.39.69-.66.91l0,0Z"/><path class="cls-31" d="M19.05,5.09a0,0,0,0,1-.05,0A.05.05,0,0,1,19,5,1.07,1.07,0,0,0,20,4.2a.52.52,0,0,0-.09-.52s0,0,0-.07a.06.06,0,0,1,.07,0,.61.61,0,0,1,.13.62,1.17,1.17,0,0,1-1,.87Z"/><path class="cls-31" d="M19.05,4.7h0a0,0,0,0,1,0-.06l.5-.7a0,0,0,0,1,.06,0,.06.06,0,0,1,0,.07c0,.08-.46.65-.51.71S19.06,4.7,19.05,4.7Z"/><path class="cls-31" d="M19.39,4.55a.63.63,0,0,1-.21,0,0,0,0,1,1,0-.09c.18.07.22,0,.23,0s0-.15,0-.22a0,0,0,0,1,0-.06s0,0,.06,0,.12.23,0,.32A.15.15,0,0,1,19.39,4.55Z"/><path class="cls-4" d="M3.46,5h0c-.05,0,0,0,0-.27a1.51,1.51,0,0,0,0-.36,0,0,0,0,1,0-.06,0,0,0,0,1,.06,0s0,.16,0,.41a1.21,1.21,0,0,0,0,.18.06.06,0,0,1,0,.06A.09.09,0,0,1,3.46,5Z"/><path class="cls-4" d="M4,4.89a.06.06,0,0,1,0,0V4.3a.05.05,0,0,1,0,0,0,0,0,0,1,0,0v.54A.05.05,0,0,1,4,4.89Z"/><path class="cls-4" d="M4.76,4.62h0s0,0,0,0,0-.31,0-.35v0s.06-.06.08,0,0,0,0,.4A0,0,0,0,1,4.76,4.62Z"/><path class="cls-4" d="M5.39,4.62a0,0,0,0,1,0,0V4.09a.05.05,0,0,1,0,0,.06.06,0,0,1,.05,0v.48A.05.05,0,0,1,5.39,4.62Z"/><path class="cls-40" d="M19.26,19.77,19.16,21c-.67-.41-2.26-1.44-2.08-1.94S18.64,19.38,19.26,19.77Z"/><path class="cls-34" d="M21,13.25s-.29,1.15,0,1.27.55-.86.55-.86Z"/><path class="cls-34" d="M22.19,14.06s-.35,1.27,0,1.43.59-1.17.59-1.17Z"/><path class="cls-41" d="M24.13,3.72a1.84,1.84,0,0,1-.34.6,11.64,11.64,0,0,0-1.28,1.79c-.07.17,0,.59-.11.61a.78.78,0,0,1-.24,0v0a3.79,3.79,0,0,1-.92-.21h0a1.77,1.77,0,0,1-.59-.38,2,2,0,0,1-.44-.71s0-1.59-.31-1.76-.74,0-.91.52a2.25,2.25,0,0,1-.2-.79c-.05-.36-.07-.83-.08-1.12a6.13,6.13,0,0,0,2.05,1.52A4,4,0,0,0,24.13,3.72Z"/><path class="cls-24" d="M20.94,25.42a8.17,8.17,0,0,1-2.4-.93s.51-1.83.51-1.91v.33a6.07,6.07,0,0,0,1.91.87A7,7,0,0,0,20.94,25.42Z"/><path class="cls-24" d="M9.72,12.66A20.59,20.59,0,0,1,7.83,9a66.08,66.08,0,0,1-.72-7,.56.56,0,0,1,1.11.16c0,.44.51,6,1.1,8.85C9.44,11.6,9.57,12.14,9.72,12.66Z"/><path class="cls-24" d="M23.48,10.94a.56.56,0,0,1-.8,0,1.65,1.65,0,0,0-1.46-.5,2.42,2.42,0,0,0-1.62,1.24c-.17.36-.37.91-.61,1.55a19.69,19.69,0,0,1-2.33,4.87,3.2,3.2,0,0,1-2.59,1.4,3.64,3.64,0,0,1-2.67-1,10.89,10.89,0,0,1-1.91-3.22c.75.9,1.67,2,2.14,2.67.85,1.16,2.8,1.1,4,.28s2.33-3.31,2.8-4.7.91-2.77,1.89-3.51a3.52,3.52,0,0,1,2.39-.45h0a3,3,0,0,1,.79.57A.57.57,0,0,1,23.48,10.94Z"/><path class="cls-29" d="M12,8a2.47,2.47,0,0,1-1.15,1,3.6,3.6,0,0,1-1.22.28,14,14,0,0,1-1.6-4C7.82,3.78,7.72,2.6,7.72,2.6a2.06,2.06,0,0,1-1.28-.71s-.11.62-.23.61a.54.54,0,0,1-.33-.2,1.54,1.54,0,0,1-.32-.92c0-.69.29-1.26.81-1.07A.54.54,0,0,1,7,0s1,0,1.51,1.47C8.54,1.51,11.1,7.05,12,8Z"/><path class="cls-30" d="M10.83,9a3.6,3.6,0,0,1-1.22.28,14,14,0,0,1-1.6-4C7.82,3.78,7.72,2.6,7.72,2.6a2.06,2.06,0,0,1-1.28-.71s-.11.62-.23.61a.54.54,0,0,1-.33-.2A1.38,1.38,0,0,0,6.19,1S7.34,2.47,7.91,2.41A16.53,16.53,0,0,0,8.77,6.3,12.43,12.43,0,0,0,10.83,9Z"/></g></g></svg>