<svg xmlns="http://www.w3.org/2000/svg" viewBox="0 0 37.22 47.01"><defs><style>.cls-1{fill:#f1b5ab;}.cls-2{fill:#f5948d;}.cls-3{fill:#1d4ea1;}.cls-4{fill:#1d427f;}.cls-5{fill:#892e28;}.cls-6{fill:#263b7f;}.cls-7{fill:#212a60;}.cls-8{fill:#f79738;}.cls-9{fill:#e47d25;}.cls-10{fill:#a6ddeb;}.cls-11{fill:#d64e27;}.cls-12{fill:#441211;}.cls-13{fill:#591813;}.cls-14{fill:#b15026;}.cls-15{fill:#ab463e;}.cls-16{fill:#66c8ce;}.cls-17{fill:#e69548;}.cls-18{fill:#a3d6b7;}.cls-19{fill:#703e3e;}.cls-20{fill:#e78234;}.cls-21{fill:#601112;}.cls-22{fill:#983222;}.cls-23{fill:#fff;}.cls-24{fill:#2b91be;}.cls-25{fill:#0a4e8d;}.cls-26{fill:#d2833b;}.cls-27{fill:#d45927;}.cls-28{fill:#d0412b;}.cls-29{fill:#c02c26;}.cls-30{fill:#89c09c;}</style></defs><g id="Capa_2" data-name="Capa 2"><g id="_ëîé_1" data-name="‘ëîé_1"><path class="cls-1" d="M31,5s-.09,1.34-.44,1.61a1,1,0,0,0-1-.19,2.08,2.08,0,0,0-.86.59,1,1,0,0,0-.1.13s-.63.17-1.14-.79a7.26,7.26,0,0,1-1-2.31c0-.11,0-.21,0-.32a2,2,0,0,1,.53-1.4c.27-.24.5-.17,1,0a2.33,2.33,0,0,0,.41.07h0a2.75,2.75,0,0,0,1.37-.15c.37-.2.93-.48,1-.24a.15.15,0,0,1,0,.07c0,.16,0,.47,0,.8a4.31,4.31,0,0,0,.13,1.1C30.81,4.26,30.88,4.63,31,5Z"/><path class="cls-2" d="M28.61,7a1,1,0,0,0-.1.13s-.63.17-1.14-.79a7.26,7.26,0,0,1-1-2.31c0-.11,0-.21,0-.32A22.9,22.9,0,0,0,27.47,5.8,3.21,3.21,0,0,0,28.61,7Z"/><path class="cls-2" d="M30.61,2a2,2,0,0,1-2.34.32,2.75,2.75,0,0,0,1.37-.15c.37-.2.93-.48,1-.24A.15.15,0,0,1,30.61,2Z"/><path class="cls-1" d="M11.83,22.66c-.35,1.2-1.23,3.66-1.23,3.66a7.26,7.26,0,0,1,0,1.4.23.23,0,0,1-.05.11c-.16.19-.24,0-.24,0S10,29.17,9.76,29s0-2.21.13-2.59.38-3.12.44-4.17a36,36,0,0,1,.53-4.36l.78.16a4.17,4.17,0,0,1,.54.14,2.54,2.54,0,0,1,.45.18C12.56,18.85,12.17,21.47,11.83,22.66Z"/><path class="cls-2" d="M11.83,22.66c-.35,1.2-1.23,3.66-1.23,3.66a7.26,7.26,0,0,1,0,1.4c0-.54,0-1.45,0-1.48s1.1-3.75,1.26-4.88.24-2.23.4-3.15a2.54,2.54,0,0,1,.45.18C12.56,18.85,12.17,21.47,11.83,22.66Z"/><path class="cls-3" d="M35,45l-.48.29-.05,0,0,0-.26-.66a62.73,62.73,0,0,1-2.42-7.44,4.41,4.41,0,0,1,.5-2.9,37.27,37.27,0,0,1-1.13-3.84c-.27-1.19-.83-3.17-1.21-4.46v0l-.23-.8h0l-.14-.46,0,0h0l-.09.05-.21.1v0C28,29.07,28,29.05,27.61,31.1s-1,3.72-1.48,5.52c-.23.92-.76,3.13-1.22,5.06s-.83,3.43-.83,3.43l-.29,0h-.07l-.35,0s-1-6.65-.68-8.32a8.17,8.17,0,0,1,1.49-3.12s-.26-5.46-.19-7.43c0-.39,0-.81.08-1.23a.28.28,0,0,1,0-.09c.11-1.15.29-2.31.39-2.94V22c.05-.26.07-.42.07-.42l.24,0c.33.05,1,.13,1.75.19h.07c.66.05,1.43.08,2.2.06a7.59,7.59,0,0,0,1.07-.08H30a17.12,17.12,0,0,0,1.86-.36l.07,0c.75-.19,1.24-.37,1.24-.37s0,.18.07.46a.2.2,0,0,1,0,.07l.37,2.4s0,.07,0,.1c.05.33.1.64.14.89.21,1.26.76,6.74.89,8.57S35,45,35,45Z"/><path class="cls-4" d="M24.91,41.68c-.45,1.84-.83,3.43-.83,3.43l-.29,0h-.07l-.35,0s-1-6.65-.68-8.32a8.17,8.17,0,0,1,1.49-3.12s-.26-5.46-.19-7.43c0-.39,0-.81.08-1.23a.28.28,0,0,1,0-.09c.11-1.15.29-2.31.39-2.94V22c.05-.26.07-.42.07-.42l.24,0c-.05,1.61-.09,5.2,0,8.52a36.07,36.07,0,0,1-.09,4.54S23.36,38.57,24.91,41.68Z"/><path class="cls-5" d="M29.49,24.77v0h0Z"/><path class="cls-4" d="M34.16,44.69a62.73,62.73,0,0,1-2.42-7.44,4.41,4.41,0,0,1,.5-2.9,37.27,37.27,0,0,1-1.13-3.84c-.27-1.19-.83-3.17-1.21-4.46v0l-.23-.8,3.22,8.91a37.76,37.76,0,0,0-.1,3.85A31.52,31.52,0,0,0,34.16,44.69Z"/><path class="cls-6" d="M20,36.15a9.07,9.07,0,0,1-.11,4.35c-.38,1.4-.95,3.92-.95,3.92l0,0-.11.05h0l-.07,0c-.29.1-.37-.07-.37-.07S17.91,42,17.72,40s-.74-5-.93-7.42c-.17-2.14-.68-6-.79-6.81,0-.09,0-.14,0-.14l0,.07h0c-.15.4-.83,2.3-1.28,3.52S13,33.63,13,33.63a11.67,11.67,0,0,1,.9,2.3A8.77,8.77,0,0,1,13.68,40c-.31,1.37-1,4.55-1,4.55l-.06,0-.06,0h0a.74.74,0,0,1-.59-.13v0c0-.34-.27-2.46-.45-4.23-.21-1.92-.76-6.09-.76-6.09s.27-3,.58-5.08c.07-.45.18-1,.31-1.64.16-.79.36-1.67.55-2.47.1-.41.19-.8.29-1.15a.5.5,0,0,1,0-.12c.12-.47.23-.87.31-1.14a.14.14,0,0,0,0-.06l.12-.35s.53.39,2.33.25a4.41,4.41,0,0,0,3-1.19l0-.08h0s.16.19.39.5l0,.05c.21.29.47.65.72,1l0,.06a8.92,8.92,0,0,1,.59,1.08c.52,1.2-.09,4-.32,5.55S19,33.79,19,33.79A11,11,0,0,1,20,36.15Z"/><path class="cls-7" d="M20,36.15a9.07,9.07,0,0,1-.11,4.35c-.38,1.4-.95,3.92-.95,3.92l0,0-.11.05h0a38.87,38.87,0,0,0,.54-6.92c-.19-2.59-.85-3-.85-3l-.1.35c0-.09.07-.24.13-.47.35-1.29.82-6,.82-6A22.26,22.26,0,0,0,16.7,24.4c-1.09-1.11-2.28-.67-3.13.25a24.72,24.72,0,0,0-1.94,2.75c.16-.79.36-1.67.55-2.47.1-.41.19-.8.29-1.15a.5.5,0,0,1,0-.12c.12-.47.23-.87.31-1.14a.14.14,0,0,0,0-.06l.12-.35s.53.39,2.33.25a4.41,4.41,0,0,0,3-1.19l0-.08h0s.16.19.39.5l0,.05c.21.29.47.65.72,1l0,.06a8.92,8.92,0,0,1,.59,1.08c.52,1.2-.09,4-.32,5.55S19,33.79,19,33.79A11,11,0,0,1,20,36.15Z"/><path class="cls-7" d="M14.68,29.17C14.17,30.54,13,33.63,13,33.63a11.67,11.67,0,0,1,.9,2.3A8.77,8.77,0,0,1,13.68,40c-.31,1.37-1,4.55-1,4.55l-.06,0-.06,0h0A28.11,28.11,0,0,0,13.37,39a30.83,30.83,0,0,0-.9-5.19s1.67-4.17,2.39-6.15,1.1-2,1.1-2C15.81,26.05,15.13,28,14.68,29.17Z"/><path class="cls-8" d="M17.94,16.66h0l0,0a1.11,1.11,0,0,1,0,.19v0a1.08,1.08,0,0,1-.24.43h0l-.09.08h0a15.13,15.13,0,0,0,.19,1.75,15.28,15.28,0,0,0,.53,2l0,.08a2.39,2.39,0,0,1-.46.39,5.25,5.25,0,0,1-2.55.8l-.74,0a2.94,2.94,0,0,1-1.59-.28,21.8,21.8,0,0,0-.3-4,.44.44,0,0,1,0-.09h0v.41h0l-.41-.16a12.52,12.52,0,0,0-1.35-.31s0-.12,0-.3c0,0,0-.05,0-.07a24.68,24.68,0,0,1,.41-2.46c.25-1,.54-2.69,1-3a4.73,4.73,0,0,1,1.83-.64h.09a9.45,9.45,0,0,1,1.12-.07h.07a5,5,0,0,1,2.46.41l.06,0h0a6.28,6.28,0,0,1,1,1.56,19.5,19.5,0,0,1,.93,2.42.14.14,0,0,0,0,.06h0l.11.36a3.72,3.72,0,0,0-1.68.5c-.18.11-.28.2-.28.23Z"/><path class="cls-9" d="M12.62,18.38l-.41-.16.08-.55a.45.45,0,0,1,.32.4A2.91,2.91,0,0,1,12.62,18.38Z"/><path class="cls-9" d="M18.26,21.09l0,.08a2.39,2.39,0,0,1-.46.39,9.85,9.85,0,0,1-.53-2.29,9.4,9.4,0,0,0-.23-1.73s.8-.85.57-1.44l.74.62c-.18.11-.28.2-.28.23l-.15-.29h0l0,0a1.11,1.11,0,0,1,0,.19v0a1.08,1.08,0,0,1-.24.43h0l-.09.08h0a15.13,15.13,0,0,0,.19,1.75A15.28,15.28,0,0,0,18.26,21.09Z"/><path class="cls-8" d="M35.79,14.24l-.1,0h0l-.38-.09h-.06a4.61,4.61,0,0,0-.89-.09c-.25,0-.51,0-.74,0-.5,0-.9.1-.9.1v0h0l.11.8v0H30.18a13.69,13.69,0,0,0-2.84,0l-.89.46a4.14,4.14,0,0,0-.56.35l0,0a1.28,1.28,0,0,0-.15.36h0c-.07.29-.05.64.4.65h.13a2.85,2.85,0,0,0,.41,0h0a6.12,6.12,0,0,0,1.06-.27h.1a2.65,2.65,0,0,1,.46.05l.1,0a2.74,2.74,0,0,1,.52.15c.29.12,1.12.55,2,1,.43.2.88.4,1.28.56s.53.2.74.26l.31.08c-.06,1.29-.12,2.47-.12,2.47l-.69.22a14.6,14.6,0,0,1-3.62.61,25.68,25.68,0,0,1-4-.26l-.24,0-.2-1.84.12-.92h0c0-.19.06-.43.1-.72a10,10,0,0,1,1.11-3.18,4.05,4.05,0,0,0-1.54.14,12.72,12.72,0,0,0-1.27.33c-.47.15-.76.27-.76.27,0-.17-.09-.34-.13-.52a.13.13,0,0,0,0-.06c-.37-1.68-.52-3.72-.14-4.34h0a5.16,5.16,0,0,1,3-1.93l1.71-.52A9,9,0,0,1,28.05,8l1.39.11,1.47.54,1.95.75a3.41,3.41,0,0,1,2,2.11c.22.61.56,1.67.75,2.29a.25.25,0,0,1,0,.07h0l.11.33A.31.31,0,0,0,35.79,14.24Z"/><path class="cls-9" d="M30.91,8.61a4.32,4.32,0,0,1-4.33-.3A9,9,0,0,1,28.05,8l1.39.11Z"/><path class="cls-9" d="M22.87,15.41c-.47.15-.76.27-.76.27,0-.17-.09-.34-.13-.52a.13.13,0,0,0,0-.06c-.37-1.68-.52-3.72-.14-4.34h0A12.44,12.44,0,0,0,22.87,15.41Z"/><path class="cls-9" d="M33.24,18.6c-.06,1.29-.12,2.47-.12,2.47l-.69.22c.14-.81.33-2.07.35-2.49a3.43,3.43,0,0,1-.94-.36A5,5,0,0,1,28.69,20a20.7,20.7,0,0,1-3.81.38l-.09,1.29-.24,0-.2-1.84.12-.92h0l5.79-.51a4.2,4.2,0,0,0,.65-.63c.43.2.88.4,1.28.56s.53.2.74.26Z"/><path class="cls-9" d="M32.18,15c0-.34,0-.74,0-1.18,0-1.46,0-2.42,0-2.42L33.58,14c-.5,0-.9.1-.9.1v0h0l.11.8v0h-.63Z"/><path class="cls-9" d="M25.34,12.1a24,24,0,0,1,1.15,3.59l-1.18.78.52-.63a17,17,0,0,0-.15-1.74C25.55,13.19,25.34,12.1,25.34,12.1Z"/><path class="cls-10" d="M33.57,24a9.12,9.12,0,0,1-1.46-2.1c.45-.11.82-.22,1.09-.3a.2.2,0,0,0,0-.07c-.27.09-.65.2-1.11.31l-.2-.4-.07,0c.06.11.12.24.21.4a18.57,18.57,0,0,1-2.22.39c.08-.24.14-.42.15-.43h-.07c0,.08-.08.23-.15.44l-.44,0a16.93,16.93,0,0,1-2.86,0q.12-.28.18-.45h-.07c0,.11-.1.27-.18.45-.44,0-.83-.08-1.16-.13,0,0,0,0,0,0h0c-.29,0-.52-.09-.68-.12v.07l.66.11a11.45,11.45,0,0,0-.63,2.51l-.42.32a.28.28,0,0,0,0,.09l.42-.32A10.71,10.71,0,0,0,24.4,26c0,1.94,0,8,0,8.34a6.55,6.55,0,0,0-1.19,3.32,42,42,0,0,0,.53,7.56h.07a41.67,41.67,0,0,1-.54-7.54,6.36,6.36,0,0,1,1.19-3.3v0c0-.06,0-6.37,0-8.35a11.61,11.61,0,0,1,.1-1.21,7.29,7.29,0,0,0,1-.89,5.94,5.94,0,0,0,.88-1.5c.48,0,1,.06,1.57.06s.88,0,1.33-.05l.41,0c-.12.34-.27.8-.41,1.21,0,0,0,0,0,0h0s0,0,0,0c.09-.28.28-.83.42-1.24a17.65,17.65,0,0,0,2.27-.39,8.88,8.88,0,0,0,1.53,2.18S33.57,24,33.57,24Zm-8.09-.2a6.6,6.6,0,0,1-.91.85,12,12,0,0,1,.62-2.44c.32.05.71.09,1.15.13A5.89,5.89,0,0,1,25.48,23.8Z"/><path class="cls-10" d="M34.52,45.29l-.05,0a.76.76,0,0,0,0-.11c-.79-2.47-1.29-4.21-1.5-5.19-.06-.31-.13-.6-.19-.89a9.49,9.49,0,0,1-.18-4.85L29.9,26.05v0l-.4-1.24h0l-.09.07-.19.13h0a0,0,0,0,1,0,0l.73-.52a0,0,0,0,1,0,.05l-.41.3,0,0,3.07,9.5h0a9.4,9.4,0,0,0,.18,4.83c.06.29.13.59.2.89.2,1,.7,2.73,1.49,5.19Z"/><path class="cls-6" d="M1.22,45A1.9,1.9,0,0,0,0,46.58H2.05a9.9,9.9,0,0,1,.39-1.45Z"/><path class="cls-1" d="M31.92,18.15a14,14,0,0,1-4.56,1.66c-2.16.27-3.23.3-4-.58a12.25,12.25,0,0,1-1.29-3.55s.11-.15.69-.35a6.12,6.12,0,0,1,.92-.26,6,6,0,0,1,2.06-.21c0,.24,0,.63.08,1-.11.16-.46,1,.25,1a5.48,5.48,0,0,0,1.67-.34,3.36,3.36,0,0,1,1.13.22h0c.33.14,1.35.67,2.36,1.13Z"/><path class="cls-1" d="M36.52,17.63a1.34,1.34,0,0,1-.29.89c-.65.68-1.88.38-3,.08l-.31-.08a9.41,9.41,0,0,1-1-.37c-1.18-.49-2.6-1.24-3-1.41h0a3.36,3.36,0,0,0-1.13-.22,5.48,5.48,0,0,1-1.67.34.39.39,0,0,1-.36-.16c-.18-.25,0-.74.11-.86A11.7,11.7,0,0,1,27.34,15a13.69,13.69,0,0,1,2.84,0c1.32,0,2.63,0,2.63,0v0h0l-.12-.82s.36-.06.82-.09c.25,0,.54,0,.82,0a5.17,5.17,0,0,1,1.47.23h0A11.34,11.34,0,0,1,36.52,17.63Z"/><path class="cls-11" d="M12,44.48v0a1.91,1.91,0,0,0-.47,0,5.77,5.77,0,0,0-1.65,1h2.86s0-.86,0-1A.75.75,0,0,1,12,44.48Z"/><path class="cls-11" d="M18.33,44.44l-.45,1.23s.7,0,1.41,0a9.77,9.77,0,0,0-.37-1.25l0,0C18.44,44.67,18.33,44.44,18.33,44.44Z"/><path class="cls-1" d="M25.61,3.82c-.31.15-.13,1.64.88,1.47a6.65,6.65,0,0,0-.65-1.47A.26.26,0,0,0,25.61,3.82Z"/><path class="cls-12" d="M27,3.6c-.07-.16.21-.4.76-.48a1,1,0,0,1,.76.13s0,.13-.51.17A6.23,6.23,0,0,0,27,3.6Z"/><path class="cls-12" d="M29.82,3.17c-.14-.08.39-.44.91-.38V3S30,3.28,29.82,3.17Z"/><path class="cls-11" d="M23.37,45.22a3.5,3.5,0,0,1,1.55-.39,1.21,1.21,0,0,1,1,.73H23.37Z"/><path class="cls-11" d="M34.42,45.35a2,2,0,0,1,1.37-.66,2.24,2.24,0,0,1,1.43.84s-2.58,0-2.8,0Z"/><path class="cls-13" d="M31,5A1.63,1.63,0,0,1,30.6,7l-.22.16a3,3,0,0,1-.79.34,3.49,3.49,0,0,1-1.49.09l-.1,0-.12,0L27.7,7.5c-.69-.31-1-1-1.15-2a2.27,2.27,0,0,0-.06-.25,6.65,6.65,0,0,0-.65-1.47l-.26-.47a2.06,2.06,0,0,1,.55-2.17h0A3.06,3.06,0,0,1,28.4,0a4.88,4.88,0,0,1,2.44.56.61.61,0,0,1,.24.32A3.87,3.87,0,0,1,31,2.73c0,.24-.11.53-.17.76s-.1.4-.1.4a11,11,0,0,1-.15-2c0-.24-.59,0-1,.24a3.12,3.12,0,0,1-1.78.08c-.49-.12-.72-.19-1,0a2,2,0,0,0-.52,1.5h0a1.7,1.7,0,0,0,0,.22,7.26,7.26,0,0,0,1,2.31,1.4,1.4,0,0,0,.8.77h0a.66.66,0,0,0,.34,0,2.13,2.13,0,0,1,1-.72,1,1,0,0,1,1,.19C30.86,6.31,31,5,31,5Z"/><polygon class="cls-6" points="14.87 14.36 14.87 14.9 16.96 14.63 16.96 14.08 14.87 14.36"/><path class="cls-11" d="M29.56,12.56l.15.79A12.14,12.14,0,0,1,32,13l-.27-.74A8.66,8.66,0,0,0,29.56,12.56Z"/><path class="cls-14" d="M19.87,45l-.22,0a.75.75,0,0,1-.59-.58,2.28,2.28,0,0,1,.88-2,3.28,3.28,0,0,1,1.5-.75,33.88,33.88,0,0,0,.47-7,16.84,16.84,0,0,0-2.83-8.14c-1.76-2.58-3.72-3.3-4.89-2.87-.82.31-2.17,2.23-3.61,5.14-.76,1.53-3.74,7.63-4.51,9.59S3.55,44.7,3.53,44.75a.31.31,0,0,1-.41.17A.31.31,0,0,1,3,44.51s1.77-4.45,2.53-6.38S9.26,30,10,28.49c1.1-2.22,2.68-5,4-5.45a3.36,3.36,0,0,1,2.65.31,8.26,8.26,0,0,1,3,2.79,17.6,17.6,0,0,1,2.94,8.46,35.41,35.41,0,0,1-.45,7,14.1,14.1,0,0,1,1.82,0,.32.32,0,1,1,0,.63,10.9,10.9,0,0,0-1.91,0,3.29,3.29,0,0,1-.1.37C21.25,44.73,20.34,45,19.87,45Zm1.41-2.66a2.51,2.51,0,0,0-.93.52,1.72,1.72,0,0,0-.68,1.39.15.15,0,0,0,.11.12c.43.09,1-.49,1.48-2Z"/><path class="cls-15" d="M3,44.4c-.26.1-2,.48-2,.79s2.31-.26,2.31-.26Z"/><path class="cls-10" d="M31.25,38.26l-.19,2-.15,1.54-.29,3.08c0,.47-1.46.84-3.26.84H26.8c-1.53-.07-2.69-.41-2.69-.83,0,0-.16-1.5-.33-3.07a1.37,1.37,0,0,1,0-.19c-.05-.46-.1-.92-.15-1.34-.12-1.09-.21-2-.22-2,.09.24.63.44,1.44.58a14.64,14.64,0,0,0,2.48.19C29.44,39.06,31.17,38.7,31.25,38.26Z"/><path class="cls-16" d="M26.8,45.7c-1.53-.07-2.69-.41-2.69-.83,0,0-.16-1.5-.33-3.07a1.37,1.37,0,0,1,0-.19c-.05-.46-.1-.92-.15-1.34-.12-1.09-.21-2-.22-2,.09.24.63.44,1.44.58A29.09,29.09,0,0,0,26.8,45.7Z"/><path class="cls-17" d="M31.25,38.23c0,.46-1.76.83-3.94.83a15.06,15.06,0,0,1-2.52-.19c-.79-.14-1.31-.35-1.4-.58a.14.14,0,0,1,0-.06c0-.3.7-.55,1.77-.7a15.51,15.51,0,0,1,2.17-.14C29.49,37.39,31.25,37.76,31.25,38.23Z"/><path class="cls-18" d="M31.06,40.25l-.15,1.54a18.62,18.62,0,0,1-3.68.42,12.44,12.44,0,0,1-1.66,0,5.79,5.79,0,0,1-1.79-.38,1.37,1.37,0,0,1,0-.19c-.05-.46-.1-.92-.15-1.34a7.25,7.25,0,0,0,1.6.4,12.83,12.83,0,0,0,2.11.11A13,13,0,0,0,31.06,40.25Z"/><path class="cls-19" d="M28.66,45.35A1.66,1.66,0,1,1,30.32,47,1.66,1.66,0,0,1,28.66,45.35Z"/><path class="cls-20" d="M30.32,46.63a1.28,1.28,0,1,1,1.28-1.28A1.28,1.28,0,0,1,30.32,46.63Z"/><path class="cls-19" d="M23.8,45.68a.86.86,0,1,1,.86.86A.86.86,0,0,1,23.8,45.68Z"/><path class="cls-20" d="M24.66,46.16a.47.47,0,0,1-.48-.48.48.48,0,0,1,.48-.48.49.49,0,0,1,.48.48A.48.48,0,0,1,24.66,46.16Z"/><path class="cls-21" d="M18,11.81a9,9,0,0,0-.62,2.35s0,0,0,0h0s0,0,0,0a9.22,9.22,0,0,1,.63-2.37Z"/><path class="cls-21" d="M14.39,13.05v.49l-.08,2.78s0,0,0,0h0a0,0,0,0,1,0,0l.09-3.24-.95-.65v0a0,0,0,0,1,0,0c.26-.29.66-.73.8-.93h.08c-.12.18-.53.64-.81,1l.93.64S14.39,13,14.39,13.05Z"/><path class="cls-21" d="M14.36,13.54h0s0,0,0,0l1.53-.87-.48-1.23s0,0,0,0,0,0,0,0l.48,1.27s0,0,0,0l-1.55.88Z"/><path class="cls-10" d="M19.7,37.86a9.37,9.37,0,0,0-1.11-3.28c0-.13.16-1.52.26-3.5,0-.7.13-1.46.22-2.19a13,13,0,0,0,.11-4.09,14.22,14.22,0,0,0-.62-2l.28,0a2.32,2.32,0,0,0,.62-.09l0-.06a2.11,2.11,0,0,1-.89.06,5.74,5.74,0,0,0-.37-.79c.21-.11.39-.22.54-.31l0-.05a7.5,7.5,0,0,1-2.85,1,7,7,0,0,1-3-.15.14.14,0,0,1,0,.06,4.66,4.66,0,0,0,.5.12,6.47,6.47,0,0,1-.81,1,.5.5,0,0,0,0,.12,6.16,6.16,0,0,0,.89-1.13,6.73,6.73,0,0,0,1.23.11,9.62,9.62,0,0,0,1.23-.09,8,8,0,0,0,1.48-.37,2.87,2.87,0,0,0,1.18.49,12.79,12.79,0,0,1,.64,2A13.17,13.17,0,0,1,19,28.88c-.09.73-.18,1.49-.22,2.2-.11,2.06-.26,3.49-.26,3.51s0,0,0,0a9,9,0,0,1,1.11,3.26c.14,1.45-.74,5.71-.94,6.64l.07,0A35.79,35.79,0,0,0,19.7,37.86ZM17.37,22.28A6.36,6.36,0,0,0,18.1,22a7.54,7.54,0,0,1,.36.76A2.78,2.78,0,0,1,17.37,22.28Z"/><path class="cls-10" d="M16,25.68s0,0,0,0a0,0,0,0,1,0,0s0,0,0,0h0a2.74,2.74,0,0,0-.21-.42c-.16.44-1.16,3.07-1.66,4.67-.31,1-.74,2.16-1,2.92-.18.48-.33.89-.34,1a9.47,9.47,0,0,1,.88,3.48,55.47,55.47,0,0,1-1,7.34l-.06,0a56.34,56.34,0,0,0,1-7.36,9.56,9.56,0,0,0-.86-3.43l0,0s0-.1.34-1,.72-1.91,1-2.92c.55-1.74,1.68-4.71,1.69-4.74s0,0,0,0l0,0A3.06,3.06,0,0,1,16,25.68Z"/><path class="cls-21" d="M28.82,12.69s0,0,0,0c-.33-1-.84-2.52-.9-2.61a0,0,0,0,1,0,0,0,0,0,0,1,0,0,20.56,20.56,0,0,1,.87,2.51l.36-2.39a0,0,0,0,1,0,0s0,0,0,0l-.37,2.52a0,0,0,0,1,0,0Z"/><path class="cls-21" d="M28.82,12.69s0,0,0,0l-.26-2.24a0,0,0,0,1,0,0l0,0,.26,2.24s0,0,0,0Z"/><path class="cls-21" d="M32.81,15a0,0,0,0,1,0,0s0,0,0,0,.54,0,.83-.07a0,0,0,0,1,0,0s0,0,0,0c-.3,0-.83.06-.84.07Z"/><path class="cls-22" d="M25.76,4.15s0,0,0,0,0,0,0,0a1.22,1.22,0,0,1,.25.25h0s-.16.19-.1.27a.16.16,0,0,0,.12,0l.15,0a.59.59,0,0,1,.05.19l0,0h0s0,0,0,0A1.24,1.24,0,0,0,25.76,4.15Zm.15.54s0-.12.09-.19a1.18,1.18,0,0,1,.11.19C26,4.71,25.93,4.72,25.91,4.69Z"/><path class="cls-22" d="M29.66,5.34a1,1,0,0,1-.48-.13,0,0,0,0,1,0,0s0,0,0,0a.89.89,0,0,0,.79,0,2.45,2.45,0,0,1-.44-.78,2.45,2.45,0,0,1,0-1.19s0,0,0,0,0,0,0,0a2.54,2.54,0,0,0,0,1.15,2.65,2.65,0,0,0,.45.79,0,0,0,0,1,0,0,0,0,0,0,1,0,0A.83.83,0,0,1,29.66,5.34Z"/><path class="cls-23" d="M28.27,5.48a3.2,3.2,0,0,0,1.21.1,6.66,6.66,0,0,1,.78-.1s-.27.77-.87.81S28.27,5.48,28.27,5.48Z"/><path class="cls-21" d="M27.92,4.06c0,.22,0,.4-.11.41s-.14-.17-.15-.39,0-.4.11-.41S27.91,3.84,27.92,4.06Z"/><path class="cls-21" d="M30.06,3.78c0,.22,0,.4-.11.41S29.81,4,29.8,3.8s0-.4.11-.41S30.05,3.56,30.06,3.78Z"/><path class="cls-21" d="M23.72,15.1a0,0,0,0,1,0,0s0,0,0,0a6.65,6.65,0,0,1,2.08-.23s0,0,0,0,0,0,0,0a6.92,6.92,0,0,0-2.05.23Z"/><path class="cls-21" d="M25.71,14.35h0s0,0,0,0a6.21,6.21,0,0,0-3.69.79.13.13,0,0,0,0-.06,6.18,6.18,0,0,1,3.71-.79h0A0,0,0,0,1,25.71,14.35Z"/><path class="cls-21" d="M35.66,13.83a6.32,6.32,0,0,0-3-.1h0s0,0,0,0h0s0,0,0,0h0a6.54,6.54,0,0,1,3,.1A.25.25,0,0,1,35.66,13.83Z"/><path class="cls-21" d="M12.65,18.07h0a5.42,5.42,0,0,0-1.71-.46s0-.05,0-.07a5.56,5.56,0,0,1,1.63.43l0,0A2.56,2.56,0,0,1,11.63,15l0,0a.05.05,0,0,1,0,0,2.48,2.48,0,0,0,.86,2.88,0,0,0,0,1,0,0l.07.1h0l0,0A0,0,0,0,1,12.65,18.07Z"/><path class="cls-21" d="M19.94,15.86a2.89,2.89,0,0,0-2,.77s0,0,0,0h0a.74.74,0,0,1,0,.14v0a1.49,1.49,0,0,1-.24.43h0l-.09.09a1.33,1.33,0,0,1-.19.14,1.53,1.53,0,0,1-.75.18,1.82,1.82,0,0,1-.53-.07s0,0,0,0,0,0,0,0a1.85,1.85,0,0,0,1.23-.11,1.29,1.29,0,0,0,.57-.82l-.7-1.41a0,0,0,0,1,0,0s0,0,0,0l.68,1.38a2.94,2.94,0,0,1,2-.76A.14.14,0,0,0,19.94,15.86Z"/><path class="cls-24" d="M28.56,10.42l-.08-.06C28.16,10.14,27,9.6,27,9.6s.14-.36.31-.77c.24-.57.53-1.26.54-1.26h0l.12,0,.1,0a5.36,5.36,0,0,0,.14,1.43v0C28.43,9.73,28.56,10.42,28.56,10.42Z"/><path class="cls-24" d="M30.57,9.55c-.51.21-1.9.82-2,.87a6.94,6.94,0,0,0,.56-1.37c.19-.56.37-1.15.46-1.51h0l.15,0,.54,1.36Z"/><path class="cls-12" d="M30.38,7.19a3,3,0,0,1-.79.34,3.49,3.49,0,0,1-1.49.09l-.1,0-.12,0L27.7,7.5c-.69-.31-1-1-1.15-2a2.27,2.27,0,0,0-.06-.25,6.65,6.65,0,0,0-.65-1.47l-.26-.47a2.06,2.06,0,0,1,.55-2.17,4.56,4.56,0,0,0,.22,2.61h0a1.7,1.7,0,0,0,0,.22,7.26,7.26,0,0,0,1,2.31,1.4,1.4,0,0,0,.8.77h0A3.12,3.12,0,0,0,30.38,7.19Z"/><path class="cls-12" d="M31,2.73c0,.24-.11.53-.17.76s-.1.4-.1.4a11,11,0,0,1-.15-2,3.63,3.63,0,0,0,.48-1A3.87,3.87,0,0,1,31,2.73Z"/><path class="cls-25" d="M28.24,9.05a2.62,2.62,0,0,1-.9-.22c.24-.57.53-1.26.54-1.26h0l.12,0,.1,0A5.36,5.36,0,0,0,28.24,9.05Z"/><path class="cls-25" d="M30.28,8.84a7.58,7.58,0,0,1-1.16.21c.19-.56.37-1.15.46-1.51h0l.15,0Z"/><path class="cls-26" d="M24.79,38.87c-.79-.14-1.31-.35-1.4-.58a.14.14,0,0,1,0-.06c0-.3.7-.55,1.77-.7A1.75,1.75,0,0,0,24.79,38.87Z"/><path class="cls-27" d="M24.41,38.18l-.07,0a.18.18,0,0,1-.1-.24l.66-1.62a.18.18,0,0,1,.16-.12l4.26-.24a.21.21,0,0,1,.19.13L30,37.78a.19.19,0,0,1-.13.23.18.18,0,0,1-.23-.12l-.48-1.56-4,.22-.61,1.51A.2.2,0,0,1,24.41,38.18Z"/><path class="cls-1" d="M20.73,18.44a5,5,0,0,1-.5,1,7.29,7.29,0,0,1-1.5,1.81A13.85,13.85,0,0,1,15.59,23c-.06.44-.44,1-.61,1h0c-.13-.05,0-.37,0-.37s-.33.63-.52.6.1-.59.13-.64c-.22.3-.61.73-.74.62S14.3,23,14.3,23s-.47.32-.57.25.19-.36.47-.64a2,2,0,0,1,1-.36,9,9,0,0,0,1.56-1.59l0-.05h0c.8-.91,1.89-2.35,1.89-2.35s-.66-1.32-.66-1.32a1.47,1.47,0,0,1,.25-.18,6.49,6.49,0,0,1,.71-.33,1.63,1.63,0,0,1,1-.17A9,9,0,0,1,20.73,18.44Z"/><path class="cls-2" d="M19,18.32a25.92,25.92,0,0,1-2.11,2.25c.8-.91,1.89-2.35,1.89-2.35s-.66-1.32-.66-1.32a1.47,1.47,0,0,1,.25-.18A3.77,3.77,0,0,1,19,18.32Z"/><path class="cls-2" d="M20.23,19.42a7.29,7.29,0,0,1-1.5,1.81A13.85,13.85,0,0,1,15.59,23c-.06.44-.44,1-.61,1h0a6.39,6.39,0,0,0,.51-1.14,17.86,17.86,0,0,0,2.64-1.5A11.34,11.34,0,0,0,20.23,19.42Z"/><path class="cls-2" d="M31.92,18.15a14,14,0,0,1-4.56,1.66c-2.16.27-3.23.3-4-.58a12.25,12.25,0,0,1-1.29-3.55s.11-.15.69-.35c.14.66.5,2.84,1.67,3.74a9.59,9.59,0,0,0,3.89,0,13.34,13.34,0,0,0,2.91-1.2Z"/><polygon class="cls-2" points="25.61 17.78 25.61 17.78 25.61 17.78 25.61 17.78"/><path class="cls-2" d="M36.52,17.63a1.34,1.34,0,0,1-.29.89c-.65.68-1.88.38-3,.08l-.31-.08a9.41,9.41,0,0,1-1-.37c-1.18-.49-2.6-1.24-3-1.41h0a3.36,3.36,0,0,0-1.13-.22,5.48,5.48,0,0,1-1.67.34.39.39,0,0,1-.36-.16,5.33,5.33,0,0,0,1.4-.4A1.94,1.94,0,0,1,28.27,16a34.46,34.46,0,0,0,4.4,1.38A7.67,7.67,0,0,0,36.52,17.63Z"/><path class="cls-2" d="M33.51,14.92l-.7.05h0l-.12-.82s.36-.06.82-.09C33.49,14.5,33.51,14.92,33.51,14.92Z"/><path class="cls-21" d="M32.16,18.28h0c-.43-.16-1.93-.88-3.11-1.45a1.74,1.74,0,0,0-1.31-.23l-.19,0a3.71,3.71,0,0,0-.49.14,1.77,1.77,0,0,1-1,.12.57.57,0,0,1-.36-.26.42.42,0,0,1,0-.28,1.47,1.47,0,0,1,.18-.51c0-.1-.07-.83-.07-.9A18.91,18.91,0,0,0,25.31,12s0,0,0,0,0,0,0,0a18.06,18.06,0,0,1,.45,3c0,.07.07.9.07.91v0a1.33,1.33,0,0,0-.17.5.29.29,0,0,0,0,.24.51.51,0,0,0,.32.23,1.73,1.73,0,0,0,1-.12,3.82,3.82,0,0,1,.5-.14l.19,0a1.75,1.75,0,0,1,1.35.23c1.18.58,2.67,1.29,3.1,1.45,0,0,0,0,0,0S32.18,18.28,32.16,18.28Z"/><path class="cls-21" d="M35.79,14.24l-.1,0h0l-.38-.09h-.06a4.91,4.91,0,0,0-.73,0h0a12.65,12.65,0,0,0-1.78.12h0s0,0,0,0-.06-.26-.1-.43h0c-.19-.88-.42-2.25-.42-2.29a0,0,0,0,1,0,0s0,0,0,0,.22,1.38.41,2.25a.2.2,0,0,0,0,.07c0,.14.06.26.09.37A12.67,12.67,0,0,1,34.47,14h0a3.9,3.9,0,0,1,1.29.19A.31.31,0,0,0,35.79,14.24Z"/><path class="cls-1" d="M15.43,11h0a1.91,1.91,0,0,1-.19,1.07c-.25.48-.64,1-.88.93s-.14-1.05-.09-1.46a1.25,1.25,0,0,0-.08-.52c-.07-.19-.16-.37-.21-.48h0a2.69,2.69,0,0,0,1.41-1C15.45,9.92,15.46,10.75,15.43,11Z"/><path class="cls-2" d="M15.43,11a2.2,2.2,0,0,1-1.24,0c-.07-.19-.16-.37-.21-.48h0a2.69,2.69,0,0,0,1.41-1C15.45,9.92,15.46,10.75,15.43,11Z"/><path class="cls-1" d="M29.59,7.53h0c-.07.3-.21.75-.37,1.22a9.23,9.23,0,0,1-.65,1.66s-.13-.69-.31-1.35l-.06-.22a5.76,5.76,0,0,1-.09-1.23A3.49,3.49,0,0,0,29.59,7.53Z"/><path class="cls-2" d="M29.59,7.53h0c-.07.3-.21.75-.37,1.22a3.05,3.05,0,0,1-1,.09,5.76,5.76,0,0,1-.09-1.23A3.49,3.49,0,0,0,29.59,7.53Z"/><path class="cls-28" d="M18.71,10.06a1.45,1.45,0,0,1-.89.17,1.35,1.35,0,0,1-1.17-1.08,21.4,21.4,0,0,1,0-2.72c-.05-.39-.1-.38-.27-.39a2,2,0,0,1-.29-.85,1.55,1.55,0,0,1,.07-.44A1,1,0,0,1,17.27,4C18.44,4,19,5.27,18.91,6.27s-.72,2.27-.48,2.52.77,0,.89-.24A1.32,1.32,0,0,1,18.71,10.06Z"/><path class="cls-29" d="M17.82,10.23a1.35,1.35,0,0,1-1.17-1.08,21.4,21.4,0,0,1,0-2.72c-.05-.39-.1-.38-.27-.39a2,2,0,0,1-.29-.85,1.55,1.55,0,0,1,.07-.44c.65-.21,1.43-.13,1.4,1.19,0,1.54-.66,2.39-.35,3.31A3.14,3.14,0,0,0,17.82,10.23Z"/><path class="cls-1" d="M16.9,8.36a2.63,2.63,0,0,1-.91.86,2.58,2.58,0,0,1-.36.66,3.36,3.36,0,0,1-.24.29,2.54,2.54,0,0,1-1.24.79h-.06a1.71,1.71,0,0,1-1.94-1A5.32,5.32,0,0,1,12,6.72a5.93,5.93,0,0,0,2.7-.33c.36-.1.43,0,.76.47a2.14,2.14,0,0,1,.17.3h0A6.08,6.08,0,0,1,16,8.34a1.08,1.08,0,0,1,.39-.6,1,1,0,0,1,.34-.2C17,7.48,17.08,7.92,16.9,8.36Z"/><path class="cls-2" d="M16.9,8.36a2.63,2.63,0,0,1-.91.86,2.58,2.58,0,0,1-.36.66,3.36,3.36,0,0,1-.24.29,6,6,0,0,0,.22-3A6.08,6.08,0,0,1,16,8.34a1.08,1.08,0,0,1,.39-.6,1,1,0,0,1,.34-.2C17,7.48,17.08,7.92,16.9,8.36Z"/><path class="cls-6" d="M16.47,5.16a.62.62,0,0,0-.62.2,5.28,5.28,0,0,1,.33.81C17,6,16.82,5.28,16.47,5.16Z"/><path class="cls-28" d="M16.38,7.74a1.08,1.08,0,0,0-.39.6,7.24,7.24,0,0,0-.27-.92,2.44,2.44,0,0,0-.28-.56c-.33-.46-.4-.57-.76-.47a5.93,5.93,0,0,1-2.7.33c-.33-.06-.44-.58-.18-1A4.33,4.33,0,0,1,15,4.56a1.48,1.48,0,0,1,.82.8v0a5,5,0,0,1,.32.79A4.39,4.39,0,0,1,16.38,7.74Z"/><path class="cls-22" d="M16.47,8a0,0,0,0,0,0,0,1.75,1.75,0,0,0-.4.7s0,0,0,0h0a0,0,0,0,0,0,0l0-.12.1,0a.19.19,0,0,0,.11,0c.08-.09,0-.3,0-.36L16.47,8A0,0,0,0,0,16.47,8Zm-.19.52s-.1,0-.13,0a1.48,1.48,0,0,1,.14-.25C16.31,8.34,16.32,8.45,16.28,8.49Z"/><path class="cls-22" d="M13,9.73h-.27l0,0a0,0,0,0,1,0,0l.5-1.45s0,0,0,0,0,0,0,0l-.48,1.41h.45a.24.24,0,0,0,.17-.05.06.06,0,0,0,0,0s0,0,0,0a0,0,0,0,1,0,0,.1.1,0,0,1,0,.09.32.32,0,0,1-.22.08Z"/><path class="cls-23" d="M13.24,10.18a1.78,1.78,0,0,0,.76-.07l.66-.23a1.55,1.55,0,0,1-.81.65A.51.51,0,0,1,13.24,10.18Z"/><path class="cls-28" d="M14,7.83c0-.08.26-.39.64-.41a1.46,1.46,0,0,1,.73.2,5.19,5.19,0,0,0-.82,0A3.14,3.14,0,0,0,14,7.83Z"/><path class="cls-28" d="M13.08,8a.82.82,0,0,0-.5-.3.73.73,0,0,0-.55.15,1.71,1.71,0,0,0,.52.08A2.79,2.79,0,0,1,13.08,8Z"/><path class="cls-21" d="M12.9,8.44c0,.17-.1.3-.18.29s-.12-.16-.09-.33.1-.29.17-.28S12.92,8.27,12.9,8.44Z"/><path class="cls-21" d="M14.79,8.23c0,.17-.1.3-.18.29s-.11-.15-.09-.32.1-.3.18-.29S14.81,8.07,14.79,8.23Z"/><path class="cls-29" d="M16.38,7.74a1.08,1.08,0,0,0-.39.6,7.24,7.24,0,0,0-.27-.92,10.17,10.17,0,0,0,.14-2,5,5,0,0,1,.32.79A4.39,4.39,0,0,1,16.38,7.74Z"/><path class="cls-30" d="M25.57,42.18a5.79,5.79,0,0,1-1.79-.38,1.37,1.37,0,0,1,0-.19c-.05-.46-.1-.92-.15-1.34a7.25,7.25,0,0,0,1.6.4C25.3,41.08,25.45,41.71,25.57,42.18Z"/></g></g></svg>