<svg xmlns="http://www.w3.org/2000/svg" viewBox="0 0 48.42 43"><defs><style>.cls-1{isolation:isolate;}.cls-2{fill:#98d8ea;}.cls-3{fill:#c6e8ef;}.cls-4{fill:#9dd9e1;}.cls-5{fill:#3883c4;}.cls-6{fill:#938b8b;}.cls-7{fill:#f79738;}.cls-8{fill:#d64e27;}.cls-9{fill:#c23f27;}.cls-10{fill:#e18726;}.cls-11{fill:#b75349;}.cls-12{fill:#a03e37;}.cls-13{fill:#f1b5ab;}.cls-14{fill:#f5948d;}.cls-15{fill:#5f1d16;}.cls-16{fill:#263b7f;}.cls-17{fill:#983222;}.cls-18{fill:#993e3a;}.cls-19{fill:#fff;}.cls-20{fill:#a6ddeb;}.cls-21{fill:#1e1724;}.cls-22{fill:#a6d6b4;}.cls-23{fill:#ffc40c;}.cls-24{fill:#9fd8d4;}.cls-25,.cls-28{fill:#ce615a;}.cls-26{fill:#4d4263;}.cls-27{fill:#ca6428;}.cls-28{mix-blend-mode:multiply;opacity:0.5;}.cls-29{fill:#9b3c36;}.cls-30{fill:#872d2b;}.cls-31{fill:#a89e9e;}.cls-32{fill:#b9b0b0;}.cls-33{fill:#ffc10d;}</style></defs><g class="cls-1"><g id="Capa_2" data-name="Capa 2"><g id="_ëîé_1" data-name="‘ëîé_1"><path class="cls-2" d="M37.05,36.22H5.71c-.08,2.23-.27,4-.29,4.23H37.18C37.08,39,37,37.54,37.05,36.22Z"/><path class="cls-3" d="M38.9,20.66c0,.75-.48,4.33-.87,7H38a17.76,17.76,0,0,0-.61,3.16H5.58a11.66,11.66,0,0,0-.75-3.3c-.56-3.09-1.39-7-1.39-7,.49-.55,14.58-.19,18.36-.23h.26C25.4,20.31,38.9,20.66,38.9,20.66Z"/><path class="cls-3" d="M4.8,27.74l0-.15a4.14,4.14,0,0,0-.19-.53A2.53,2.53,0,0,0,1.74,25.5a2.13,2.13,0,0,0-1.18.8A2.9,2.9,0,0,0,.1,28.8a3,3,0,0,0,1.51,1.92,2.16,2.16,0,0,0,1.52.16A2.58,2.58,0,0,0,4.8,27.74Z"/><path class="cls-2" d="M1.74,25.5a2.53,2.53,0,0,1,2.84,1.56h0a4.47,4.47,0,0,1,.25.49l-.54-2.82C1.11,24.11.55,26.3.55,26.3h0A2.13,2.13,0,0,1,1.74,25.5Z"/><path class="cls-4" d="M5.58,30.86c0,.49.09,1,.11,1.5H37.21c0-.53.1-1,.16-1.49C34.86,30.92,8.4,30.86,5.58,30.86Z"/><path class="cls-2" d="M5.69,32.36c.07,1.31.06,2.65,0,3.86H37.05c0-1.41.07-2.71.16-3.86Z"/><path class="cls-2" d="M5.69,32.36c0-.51-.06-1-.11-1.5h0a11.66,11.66,0,0,0-.75-3.3c0,.07,0,0,0,0a4.47,4.47,0,0,0-.25-.49,4.14,4.14,0,0,1,.19.53l0,.15a2.58,2.58,0,0,1-1.67,3.14,2.16,2.16,0,0,1-1.52-.16,27.68,27.68,0,0,1,1,9.75H5.42v0c0-.23.21-2,.29-4.23C5.75,35,5.76,33.67,5.69,32.36Z"/><path class="cls-2" d="M42.36,29.65a2.44,2.44,0,0,1-2.7,1.12,2.53,2.53,0,0,1-1.61-3.07H38a17.76,17.76,0,0,0-.61,3.16s.12,0,0,0c-.06.46-.11,1-.16,1.49-.09,1.15-.15,2.45-.16,3.86s0,2.74.13,4.23h3.23S39.77,34,42.36,29.65Z"/><path class="cls-2" d="M41.16,25.62a2.21,2.21,0,0,1,1.21.88c-.59-1.07-1.89-2.75-3.91-1.88L38,27.7h0a2.46,2.46,0,0,1,.29-.64A2.5,2.5,0,0,1,41.16,25.62Z"/><path class="cls-3" d="M42.74,27.3h0a5.91,5.91,0,0,0-.37-.79,2.21,2.21,0,0,0-1.21-.88,2.5,2.5,0,0,0-2.89,1.44,2.29,2.29,0,0,0-.17.46c0,.06,0,.12-.05.18a2.53,2.53,0,0,0,1.61,3.07,2.44,2.44,0,0,0,2.7-1.12,2.92,2.92,0,0,0,.38-2.35Z"/><path class="cls-5" d="M22.14,30.86H22L21.8,20.37h.1Z"/><path class="cls-5" d="M22.13,36.14a0,0,0,0,1-.05,0l0-3.73a0,0,0,0,1,.05,0s0,0,0,0l0,3.73a0,0,0,0,1,0,0Z"/><path class="cls-5" d="M37,36.22H5.71a0,0,0,0,1,0,0,0,0,0,0,1,0,0H37a0,0,0,0,1,0,0A0,0,0,0,1,37,36.22Z"/><path class="cls-5" d="M40.29,29.72h-.13c-.53-.1-.67-.7-.62-1.19s.41-1.29,1-1.29h.14c.54.11.67.72.62,1.22S40.83,29.72,40.29,29.72Zm.2-2.4c-.49,0-.81.62-.86,1.21s.08,1,.55,1.09h.11c.49,0,.81-.61.87-1.18s-.07-1-.55-1.11Z"/><path class="cls-5" d="M2.45,29.75h0c-.72,0-1.07-.76-1.15-1.4s.1-1.39.59-1.51a.58.58,0,0,1,.19,0c.66,0,1.26.88,1.36,1.66a1,1,0,0,1-.74,1.25A1.07,1.07,0,0,1,2.45,29.75Zm-.37-2.84a.47.47,0,0,0-.17,0c-.44.11-.59.79-.51,1.4s.43,1.33,1.05,1.33h0l.23,0a1,1,0,0,0,.66-1.15C3.25,27.74,2.69,26.91,2.08,26.91Z"/><path class="cls-5" d="M5.42,40.49h0a0,0,0,0,1,0-.05,54.6,54.6,0,0,0,.07-10.28,8.27,8.27,0,0,0-.58-2.45,2.86,2.86,0,0,1-1.27,3.05,1.9,1.9,0,0,1-2,0,0,0,0,0,1,0-.06,0,0,0,0,1,.07,0,1.86,1.86,0,0,0,1.91,0c1.23-.56,1.47-2.38,1.1-3.38a.07.07,0,0,1,0-.06,0,0,0,0,1,.06,0,7.4,7.4,0,0,1,.8,2.9,54.81,54.81,0,0,1-.07,10.3A.05.05,0,0,1,5.42,40.49Z"/><path class="cls-5" d="M37.18,40.49s0,0,0,0a52.67,52.67,0,0,1,0-7.65,17.59,17.59,0,0,1,.85-5,0,0,0,0,1,.06,0s0,0,0,0a3.53,3.53,0,0,0,0,1.24,2.09,2.09,0,0,0,1.57,1.65,2.32,2.32,0,0,0,2.84-1.43,0,0,0,0,1,.09,0,2.46,2.46,0,0,1-3,1.48,2.39,2.39,0,0,1-1.7-2.59,23.49,23.49,0,0,0-.71,4.59,50.77,50.77,0,0,0,0,7.63,0,0,0,0,1,0,.05Z"/><path class="cls-6" d="M37.37,30.87H5.58C8.4,30.86,34.86,30.92,37.37,30.87Z"/><path class="cls-5" d="M37.22,32.41H5.69a0,0,0,0,1,0,0,0,0,0,0,1,0,0H37.22a0,0,0,0,1,.05,0A0,0,0,0,1,37.22,32.41Z"/><path class="cls-7" d="M48.42,41.26c0,.51-1.39,1-3.29,1.09-.43,0-.88,0-1.36,0-2.56,0-4.64-.51-4.64-1.14V40.6l.14-7.38c0,.61,2,1.11,4.49,1.11a15.64,15.64,0,0,0,2.4-.17c1.26-.2,2.1-.54,2.1-.94l.13,7.23v.13Z"/><path class="cls-8" d="M35.66,38.47l-.27.08s-1.75-2.14-2.71-3.33a21.43,21.43,0,0,1-3-4c-.57-1.23-1.82-4.56-2.13-5.41a2.71,2.71,0,0,0,1.85-1.52A4.34,4.34,0,0,0,29.06,21l-.52-1-.09-.17-.34-.66,0-.06L28,18.91l0,0h0l.11-.08.1-.09a5.35,5.35,0,0,0,.53-.54h0l0,0a7.35,7.35,0,0,1,1.63,3.54h0a23.27,23.27,0,0,1,.5,2.87c.19,1.73.58,6,.58,6A3.43,3.43,0,0,1,34,32.93c.07.22.2.62.34,1.1C34.86,35.72,35.66,38.47,35.66,38.47Z"/><path class="cls-8" d="M24.9,32.12c1,1.28.72,2.82.22,4.49s-1.35,4-1.35,4l-.3-.06-.22,0s-.32-6.36-.38-8.3c-.06-1.73-.21-5.25-.23-6a6,6,0,0,0,1.11.1c.34,0,.74,0,1.23,0l.75-.06Z"/><path class="cls-9" d="M35.66,38.47l-.27.08s-1.75-2.14-2.71-3.33a21.43,21.43,0,0,1-3-4c-.57-1.23-1.82-4.56-2.13-5.41a2.71,2.71,0,0,0,1.85-1.52A4.34,4.34,0,0,0,29.06,21l-.52-1-.09-.17-.34-.66,0-.06L28,18.91l0,0h0l.11-.08.1-.09a5.35,5.35,0,0,0,.53-.54h0l0,0a7.35,7.35,0,0,1,1.63,3.54h0a23.54,23.54,0,0,0-.62,4.2,20.7,20.7,0,0,0,.8,5.36s1.83,2.43,3.8,2.76C34.86,35.72,35.66,38.47,35.66,38.47Z"/><path class="cls-9" d="M25.73,26.2l-.83,5.92c1,1.28.72,2.82.22,4.49s-1.35,4-1.35,4l-.3-.06A35.06,35.06,0,0,0,24.81,35c.17-2-.36-2.46-.36-2.46-.07-1.41-.49-4.79-.7-6.23.34,0,.74,0,1.23,0Z"/><path class="cls-7" d="M29.06,10.93a3.86,3.86,0,0,0-.49.82c-.06.15-.14.32-.22.48s-.31.57-.31.57l-.3-.19-.06,0-.58-.36,0,0,0,0a3.74,3.74,0,0,0-.91,2.47,2.64,2.64,0,0,0,.81,2c.35.24,1.1.87,1.31,1a1.5,1.5,0,0,1-.17.23,5.28,5.28,0,0,1-1.66,1.35,6.45,6.45,0,0,1-1.81.61h-.06a9.68,9.68,0,0,1-1.72.17,21.11,21.11,0,0,1-.52-2.84c0-.33-.07-.66-.1-1-.07-.63-.13-1.15-.15-1.28a0,0,0,0,0,0,0l-.27-.1h0a3,3,0,0,1-.79-.43,1.06,1.06,0,0,1-.43-.77,11.17,11.17,0,0,1,.76-2c.15-.44.34-1.37.47-1.86a2.44,2.44,0,0,1,.09-.3,2.56,2.56,0,0,1,.37-.36l.1-.09c.14-.13.28-.26.37-.36s0,.05,0,.08c0,.18.05.67.11,1.08a1.22,1.22,0,0,0,.19.58h.08l0,0a3.56,3.56,0,0,0,.23-.67,2.47,2.47,0,0,1,.1-.29c.17-.47.52-1.1.5-1.2h.19c.29,0,.84,0,1.23,0l.38,0a4.28,4.28,0,0,1,1.42.91c.44.36,1.09,1,1.5,1.35l0,0Z"/><path class="cls-10" d="M22.74,8.75c0,.18.05.67.11,1.08a2,2,0,0,1-1.05-.05,2.44,2.44,0,0,1,.09-.3,2.56,2.56,0,0,1,.37-.36l.1-.09c.14-.13.28-.26.37-.36S22.74,8.72,22.74,8.75Z"/><path class="cls-10" d="M25.39,8.28a4.62,4.62,0,0,1-2,1.43,2.47,2.47,0,0,1,.1-.29c.17-.47.52-1.1.5-1.2h.19C24.45,8.24,25,8.25,25.39,8.28Z"/><path class="cls-10" d="M27,16.67c.35.24,1.1.87,1.31,1a1.5,1.5,0,0,1-.17.23,7.89,7.89,0,0,1-2.16-2,2.74,2.74,0,0,1-.15-1.6,1.78,1.78,0,0,1-1.33.12c1.29-.19,1.81-.7,1.83-1.72a2.91,2.91,0,0,0-.23-1.43s-.27-.3.37-.14a6.89,6.89,0,0,1,1.93,1.06c-.16.31-.31.57-.31.57l-.3-.19-.06,0-.58-.36,0,0,0,0a3.74,3.74,0,0,0-.91,2.47A2.64,2.64,0,0,0,27,16.67Z"/><path class="cls-11" d="M23.43,6.4a5.41,5.41,0,0,0,0-.63c1-.79.31-1.81,0-1.73s-.29.63-.29.63L22.72,4a1.07,1.07,0,0,0-.46-.41,2.15,2.15,0,0,0-1.81.08,3.25,3.25,0,0,0-1.4,1.59,1.36,1.36,0,0,1-.91-1,2.74,2.74,0,0,1,1.28-2.53,3.15,3.15,0,0,1,2.07,0s-.44-.51,0-.52A5.62,5.62,0,0,1,23.28,2l.06,0a5,5,0,0,1,1.32,2.05C24.9,5.09,24.62,6.55,23.43,6.4Z"/><path class="cls-12" d="M23.43,6.4a5.41,5.41,0,0,0,0-.63c1-.79.31-1.81,0-1.73s-.29.63-.29.63L22.72,4a1.07,1.07,0,0,0-.46-.41c1.39-.13,1.22-.67,1-1.57l.06,0a5,5,0,0,1,1.32,2.05C24.9,5.09,24.62,6.55,23.43,6.4Z"/><path class="cls-11" d="M27.66,4.43a2,2,0,0,1-1.18,1.72A1.92,1.92,0,0,0,26.56,5c-.14-.29-.23-.25-.71-.17s-.82-.08-.93-.75-.31-1.73-1.13-2c.14-.41,0-.78-.27-.81a1.9,1.9,0,0,1,.26-.7A1.26,1.26,0,0,1,24.92,0C26,0,26.3.7,26.46,1.48a3.55,3.55,0,0,1-.23,1.73A.48.48,0,0,1,26.8,3a1.31,1.31,0,0,1,.86,1.11h0A2.28,2.28,0,0,1,27.66,4.43Z"/><path class="cls-12" d="M27.66,4.43a2,2,0,0,1-1.18,1.72A1.92,1.92,0,0,0,26.56,5c-.14-.29-.23-.25-.71-.17s-.82-.08-.93-.75-.31-1.73-1.13-2c.14-.41,0-.78-.27-.81a1.9,1.9,0,0,1,.26-.7c1-.21,1.86-.07,2.15.8s-.1,2,.08,2.06,1.27-.59,1.65.56h0A2.28,2.28,0,0,1,27.66,4.43Z"/><path class="cls-13" d="M23.43,5.77s0,.14,0,.34,0,.18,0,.29A2.55,2.55,0,0,1,23,7.85s0,0,0,0a4.43,4.43,0,0,1-.36.38,1.83,1.83,0,0,1-1.69.46c-.92-.16-1.34-.88-1.52-1.83s-.36-1.66-.36-1.66h0a3.25,3.25,0,0,1,1.4-1.59,2.16,2.16,0,0,1,1.7-.13,1.13,1.13,0,0,1,.57.46l.42.71s0-.55.29-.63S24.4,5,23.43,5.77Z"/><path class="cls-14" d="M23.43,5.77s0,.14,0,.34,0,.18,0,.29A2.55,2.55,0,0,1,23,7.85s0,0,0,0a5.88,5.88,0,0,0-.83-4.37,1.13,1.13,0,0,1,.57.46l.42.71s0-.55.29-.63S24.4,5,23.43,5.77Z"/><path class="cls-15" d="M23.52,1.34h0c-.35,0-.28.6-.28.6a2.13,2.13,0,0,1,.46.44,1.15,1.15,0,0,0,.1-.23C23.93,1.74,23.81,1.37,23.52,1.34Z"/><path class="cls-13" d="M29.91,19.43l0-.05Z"/><path class="cls-11" d="M21.14,5.19s-.08-.44.29-.49a1.91,1.91,0,0,1,.88.25S21.34,4.91,21.14,5.19Z"/><path class="cls-11" d="M20.09,5.4a.46.46,0,0,0-.54,0,.65.65,0,0,0-.26.56,2.66,2.66,0,0,1,.45-.32A2.26,2.26,0,0,0,20.09,5.4Z"/><path class="cls-15" d="M28,18.86a5.66,5.66,0,0,0,.74-.72l-.74.72Z"/><path class="cls-16" d="M29.06,21l-.52-1-.09-.17-.34-.66,0-.06L28,18.91l0,0h0l.66-.64.08-.07h0l-.43-.41a4.87,4.87,0,0,1-1.83,1.58,8.45,8.45,0,0,1-3.59.79v.44h0s0,0,0,.06c-.1.66-.61,4.91-.61,5.41,0,0,.05.1.42.19a9.17,9.17,0,0,0,2.34.06l.75-.06a9.25,9.25,0,0,0,1.86-.37,2.71,2.71,0,0,0,1.85-1.52A4.34,4.34,0,0,0,29.06,21ZM28,18.86Z"/><path class="cls-15" d="M28.27,17.71h0Z"/><path class="cls-15" d="M28.71,18.14s0,0,0,0S28.72,18.12,28.71,18.14Z"/><polygon class="cls-15" points="27.95 18.86 27.96 18.86 27.96 18.86 27.95 18.86"/><path class="cls-16" d="M23.77,40.64a1.89,1.89,0,0,0-1.13-.14,3.25,3.25,0,0,0-1.27.76h2.4Z"/><path class="cls-16" d="M35.35,38.5a7.93,7.93,0,0,1-.29,2c-.16.27-.72.47-.75.59s1,.23,1.35,0a8.5,8.5,0,0,0,.93-1.83l-1-.93Z"/><path class="cls-16" d="M23,10.41a1.18,1.18,0,0,0-1-.2A6.26,6.26,0,0,1,22.36,9c.14-.13.28-.26.37-.36s0,.05,0,.08C22.77,9.06,22.84,10.25,23,10.41Z"/><path class="cls-16" d="M24.62,9.66a3.46,3.46,0,0,0-1.5.74,5.9,5.9,0,0,0,.35-1c.17-.47.52-1.1.5-1.2h.19Z"/><path class="cls-17" d="M23.46,5.22h0a1,1,0,0,1,0-1h0l0,0s0,0,0,0v0a.9.9,0,0,0,0,.9,0,0,0,0,1,0,0Z"/><path class="cls-17" d="M23.38,4.94l0,0s0,0,0,0,.14,0,.12-.16,0,0,0,0-.09,0-.11,0,0,0,0,0a0,0,0,0,1,0,0,.28.28,0,0,1,.17,0,.13.13,0,0,1,.06.09.22.22,0,0,1-.16.23Z"/><path class="cls-18" d="M19,4.57a0,0,0,0,1,0,0s0-.5.1-.66c0,0,0,0,.05,0a0,0,0,0,1,0,0,1.17,1.17,0,0,0-.09.61s0,0,0,0Z"/><path class="cls-18" d="M19.63,2.82h0s0,0,0,0a1.83,1.83,0,0,1,.52-.55,0,0,0,0,1,0,0s0,0,0,0a1.7,1.7,0,0,0-.48.52Z"/><path class="cls-18" d="M22,2.86h0c-.32-.27-1.17-.18-1.18-.18s0,0,0,0,0,0,0,0,.89-.09,1.23.2a0,0,0,0,1,0,0Z"/><path class="cls-18" d="M22.55,2.76h0a2.06,2.06,0,0,0-.47-.46,0,0,0,0,1,0,0,0,0,0,0,1,0,0,2.18,2.18,0,0,1,.48.47s0,0,0,0Z"/><path class="cls-18" d="M18.69,4.57h0c-.22-.23-.11-.82-.08-.86a0,0,0,0,1,0,0s0,0,0,0-.1.58.08.77a0,0,0,0,1,0,0Z"/><path class="cls-15" d="M25.68,2.17l0,0s-.22-.89-.81-1.09-.72.19-.72.19a0,0,0,0,1-.05,0s0,0,0,0,.16-.44.8-.23.85,1.1.86,1.14a.05.05,0,0,1,0,0Z"/><path class="cls-15" d="M26,1.7h0a0,0,0,0,1,0,0,2.06,2.06,0,0,0-.28-.93,0,0,0,1,1,.05,0,2.11,2.11,0,0,1,.3,1A0,0,0,0,1,26,1.7Z"/><path class="cls-15" d="M24.09,1.79h0s0,0,0,0,.16-.32.38-.31a0,0,0,0,1,0,0s0,0,0,0-.28.2-.32.28S24.1,1.79,24.09,1.79Z"/><path class="cls-15" d="M25.21,3.37l0,0c-.05-.42-.59-.88-.76-1h0a0,0,0,0,1,0-.05h.05a2.08,2.08,0,0,1,.79,1,0,0,0,0,1,0,0Z"/><path class="cls-15" d="M27,5.22h0s0,0,0,0a2.56,2.56,0,0,0-.32-1.08,0,0,0,0,1,0,0s0,0,0,0a2.36,2.36,0,0,1,.34,1.13A0,0,0,0,1,27,5.22Z"/><path class="cls-15" d="M27.3,4.81h0a0,0,0,0,1,0,0A1.13,1.13,0,0,0,27.05,4V4s0,0,0,0a0,0,0,0,1,.05,0V4a1.21,1.21,0,0,1,.22.82Z"/><path class="cls-19" d="M21,7.83a4,4,0,0,0,1.15-.78,1.46,1.46,0,0,1-.31,1C21.52,8.41,21,7.83,21,7.83Z"/><path class="cls-17" d="M20.43,7.43a1.15,1.15,0,0,1-.27,0,0,0,0,0,1,0,0s.08-.31.14-.67a.83.83,0,0,0-.13-.79s0,0,0,0h0a.9.9,0,0,1,.16.85c-.06.29-.12.55-.14.63a.74.74,0,0,0,.42,0,.43.43,0,0,0,.22-.2s0,0,0,0,0,0,0,0a.46.46,0,0,1-.26.23A.44.44,0,0,1,20.43,7.43Z"/><path class="cls-18" d="M24.62,19.91h-.06a25.94,25.94,0,0,1-1-3.28c-.16-.6-.32-1.09-.47-1.52s-.23-.66-.3-1a3.86,3.86,0,0,1,0-1.79l0-.17c.07-.42.12-.83.17-1.18s.05-.44.07-.6h.06l0,0c0,.16-.06.39-.09.64s-.09.77-.17,1.19l0,.17a3.92,3.92,0,0,0,0,1.77c.07.29.18.6.3.95s.31.92.47,1.52A27.73,27.73,0,0,0,24.62,19.91Z"/><path class="cls-18" d="M24.56,14.47h-.11a0,0,0,0,1,0-.06,1.84,1.84,0,0,0,1.16-.34,1.68,1.68,0,0,0,.73-1.18s0,0,0,0,0,0,0,0a1.71,1.71,0,0,1-.76,1.22A1.84,1.84,0,0,1,24.56,14.47Z"/><path class="cls-18" d="M22.26,15a1.21,1.21,0,0,1-.45-.12s0,0,0,0,0,0,0,0a.9.9,0,0,0,.47.11l0,0s0,0,0,0Z"/><path class="cls-18" d="M27.1,12.21l0,0,0,0-.76-.66a0,0,0,0,1,0,0s0,0,0,0l.76.67A0,0,0,0,1,27.1,12.21Z"/><path class="cls-18" d="M28.73,10.62a4.12,4.12,0,0,0-1,2h0l-.06,0a4.29,4.29,0,0,1,1-2Z"/><path class="cls-20" d="M28.74,18.17a5.27,5.27,0,0,1-.75.74,8,8,0,0,1-1,.74l-.06,0a6.91,6.91,0,0,1-1.6.73l-.06,0-.27.07a6.52,6.52,0,0,1-1.35.15h-.19a6,6,0,0,1-.6-.06s0-.05,0-.06A5.91,5.91,0,0,0,25,20.45l.27-.07h0A8.06,8.06,0,0,0,28,18.86h0l.11-.08.1-.09a6.42,6.42,0,0,0,.45-.47l.07-.08h0c0-.05,0,0,0,0Z"/><path class="cls-20" d="M23.21,22.14h0s0,0,0,0c.05-.29.25-1.47.25-1.49a0,0,0,0,1,0,0s0,0,0,0-.2,1.2-.25,1.49Z"/><path class="cls-20" d="M25.55,22.14a0,0,0,0,1,0,0,10,10,0,0,0-.29-1.7s0,0,0,0,0,0,0,0a10.18,10.18,0,0,1,.29,1.72,0,0,0,0,1,0,0Z"/><path class="cls-20" d="M27.77,22.08s0,0,0,0-.29-.6-.56-1.21a3.32,3.32,0,0,1-.28-1.17,0,0,0,0,1,0,0h0a0,0,0,0,1,0,0,3.26,3.26,0,0,0,.28,1.15c.27.6.55,1.2.56,1.21a0,0,0,0,1,0,0Z"/><path class="cls-21" d="M19.94,6.35c.07.2,0,.4-.05.43s-.23-.1-.3-.31-.05-.39.05-.43S19.87,6.15,19.94,6.35Z"/><path class="cls-21" d="M21.67,5.68c.07.21,0,.4-.05.43s-.23-.1-.3-.31-.05-.39.05-.42S21.6,5.48,21.67,5.68Z"/><path class="cls-13" d="M22.22,16.28v.24s-.5,1.16-.91,1.86a5.23,5.23,0,0,1-1.39,1.36c-.25.28-.51.57-.65.49l0,0c-.12-.14.15-.5.15-.5l-.45.2s-.06.57-.22.52-.12-.75,0-1,.74-.38.74-.38.38-.8.81-1.9A17.66,17.66,0,0,0,21,14.43h0a2.73,2.73,0,0,0,.83.44l.23.09S22.14,15.55,22.22,16.28Z"/><path class="cls-14" d="M22.22,16.28v.24s-.5,1.16-.91,1.86a5.23,5.23,0,0,1-1.39,1.36c-.25.28-.51.57-.65.49l.54-.58a13.36,13.36,0,0,0,1.8-2.83,10.39,10.39,0,0,0,.22-1.94l.23.09S22.14,15.55,22.22,16.28Z"/><path class="cls-22" d="M39.17,36.77c-2.14,0-3.45-4-4.54-8.34A19.69,19.69,0,0,0,29.27,19c-2.57-2.8-4.25-2.59-6.19-2S19.93,19.72,19.79,20a.38.38,0,0,1-.36.28.38.38,0,0,1-.38-.38,6.94,6.94,0,0,1,3.82-3.68c2.12-.62,4.1-.87,7,2.23a20.38,20.38,0,0,1,5.54,9.78c.59,2.34,2,7.76,3.81,7.76h.08a.38.38,0,1,1,.06.75Z"/><path class="cls-13" d="M24,8.22c0,.1-.33.73-.5,1.2s-.28,1.09-.43,1-.27-1.35-.3-1.66c0,0,0-.06,0-.08s0-.09-.05-.13a1.05,1.05,0,0,0-.19-.28,2.73,2.73,0,0,0,.36-.39,2.46,2.46,0,0,0,.43-1.4,9.23,9.23,0,0,1,.43,1C23.85,7.84,24,8.18,24,8.22Z"/><path class="cls-14" d="M23.71,7.45a3.2,3.2,0,0,1-1,1.09,1.05,1.05,0,0,0-.19-.28,2.73,2.73,0,0,0,.36-.39,2.46,2.46,0,0,0,.43-1.4A9.23,9.23,0,0,1,23.71,7.45Z"/><path class="cls-13" d="M30.84,19c.11.65-.11,1.07-.25,1.07s-.07-.17,0-.3h0a.7.7,0,0,1,0-.17l0,.06h0c-.08.14-.3.5-.41.48s-.07-.12,0-.22h0a.91.91,0,0,1,0-.16l-.05.1h0c-.06.11-.15.25-.23.19s-.05-.15,0-.26a2.46,2.46,0,0,1,.08-.3s0,0,0,.06-.15.3-.23.23.1-1.12.1-1.12-.38.28-.52.09a.11.11,0,0,1,0-.1c0-.23.45-.59.43-.65s-.15-1.75-.38-2.88a5.08,5.08,0,0,1-.16-1.49c0-.05-.87-.58-1.05-.79,0,0,.15-.27.31-.58s.16-.32.22-.47a3.86,3.86,0,0,1,.49-.82,16.26,16.26,0,0,1,1.56,1.67,2.45,2.45,0,0,1,.25,1.31c0,1-.28,4-.28,4A8.42,8.42,0,0,1,30.84,19Z"/><path class="cls-14" d="M29.75,16.35a8.31,8.31,0,0,1-.12,1.76,3.23,3.23,0,0,1-.43.5c0-.23.45-.59.43-.65s-.15-1.75-.38-2.88a5.08,5.08,0,0,1-.16-1.49c0-.05-.87-.58-1.05-.79,0,0,.15-.27.31-.58a3.62,3.62,0,0,1,1,1.3A9.49,9.49,0,0,1,29.75,16.35Z"/><path class="cls-18" d="M29.82,19.75a2.46,2.46,0,0,1,.08-.3s0,0,0,.06A2.05,2.05,0,0,0,30,19h0a0,0,0,0,1,0,0A1.8,1.8,0,0,1,29.82,19.75Z"/><path class="cls-18" d="M30.1,19.87a.91.91,0,0,1,0-.16l-.05.1a4.37,4.37,0,0,0,.18-.59h0a0,0,0,0,1,0,0A4.15,4.15,0,0,1,30.1,19.87Z"/><path class="cls-18" d="M30.55,19.72a.7.7,0,0,1,0-.17l0,.06a1.59,1.59,0,0,0,.1-.47s0,0,0,0a0,0,0,0,1,0,0A1.66,1.66,0,0,1,30.55,19.72Z"/><ellipse class="cls-23" cx="43.77" cy="33.22" rx="4.5" ry="1.1"/><path class="cls-7" d="M43.77,32.55c-1.52,0-2.75.3-2.75.67s1.23.68,2.75.68,2.76-.3,2.76-.68S45.29,32.55,43.77,32.55Z"/><path class="cls-15" d="M39.46,42.06a.68.68,0,1,1,1.29.37.71.71,0,0,1-.85.54A.73.73,0,0,1,39.46,42.06Z"/><path class="cls-24" d="M40.07,42.62H40a.25.25,0,0,1-.16-.14.39.39,0,0,1,0-.3.36.36,0,0,1,.32-.29h.06a.25.25,0,0,1,.16.14.44.44,0,0,1,0,.3A.36.36,0,0,1,40.07,42.62Z"/><path class="cls-25" d="M48.4,40.58a13.13,13.13,0,0,1-4.62,1h-.54a10.09,10.09,0,0,1-3.2-.49,7.38,7.38,0,0,1-.9-.38V40.6a9.2,9.2,0,0,0,4.63.87,13,13,0,0,0,4.63-1Z"/><polygon class="cls-26" points="19.88 19.85 17.16 25.84 16.21 27.92 11.48 38.3 10.69 40.04 9.66 40.19 10.54 38.3 15.34 27.92 16.31 25.84 19.05 19.92 19.88 19.85"/><polygon class="cls-7" points="9.66 40.19 6.24 41.36 12.24 41.47 11.68 41.06 10.71 39.99 9.66 40.19"/><polygon class="cls-27" points="6.24 41.36 6.24 41.99 12.24 41.99 12.24 41.47 6.24 41.36"/><polygon class="cls-16" points="17.16 25.84 16.21 27.92 15.34 27.92 16.31 25.84 17.16 25.84"/><polygon class="cls-16" points="11.48 38.3 10.69 40.04 9.66 40.19 10.54 38.3 11.48 38.3"/><path class="cls-18" d="M22.74,11.15c0,.08,0,.13-.07.13s-.08,0-.08-.13,0-.13.08-.13S22.74,11.08,22.74,11.15Z"/><path class="cls-18" d="M22.57,13.46c0,.07,0,.13-.08.13s-.07-.06-.07-.13,0-.13.07-.13S22.57,13.39,22.57,13.46Z"/><path class="cls-18" d="M23,15.5c0,.07,0,.13-.06.14s-.08-.05-.09-.12,0-.13.06-.14S23,15.43,23,15.5Z"/><path class="cls-18" d="M23.57,17.42c0,.07,0,.14-.06.14s-.08,0-.09-.12,0-.13.06-.14S23.56,17.35,23.57,17.42Z"/><path class="cls-18" d="M23.93,18.85c0,.07,0,.13-.05.14s-.08,0-.09-.12,0-.13.05-.14S23.92,18.78,23.93,18.85Z"/><path class="cls-28" d="M45.89,33.17a.15.15,0,0,1-.15.15H41.08a.15.15,0,0,1-.15-.15h0a.15.15,0,0,1,.15-.15h4.66a.15.15,0,0,1,.15.15Z"/><path class="cls-29" d="M45.89,33.22h-.58l-.17-1.06a9.84,9.84,0,0,0-3.55.11l0,.95h-.63l.07-1,0-.51a17.59,17.59,0,0,1,4.73,0l0,.38Z"/><path class="cls-30" d="M45.89,33.22h-.58l-.17-1.06a9.84,9.84,0,0,0-3.55.11l0,.95h-.63l.07-1a6.54,6.54,0,0,1,2.42-.38,15.74,15.74,0,0,1,2.37.25Z"/><path class="cls-31" d="M4.83,27.55l0,.22c0-.07,0-.14,0-.21Z"/><path class="cls-31" d="M5.58,30.86h0Z"/><path class="cls-31" d="M37.37,30.87h0Z"/><path class="cls-31" d="M42.74,27.3h0Z"/><path class="cls-31" d="M38.1,27.52a2.29,2.29,0,0,1,.17-.46,2.46,2.46,0,0,0-.29.64h.07C38.07,27.64,38.08,27.58,38.1,27.52Z"/><path class="cls-32" d="M42.37,26.5a5.91,5.91,0,0,1,.37.79A2.73,2.73,0,0,0,42.37,26.5Z"/><polygon class="cls-33" points="40.17 34.81 41.63 34.98 41.02 41.03 40.17 40.64 40.17 34.81"/></g></g></g></svg>